LibraSans-Italic.ufo
<glyph name="exclam" format="1">
  <advance width="278"/>
  <unicode hex="0021"/>
  <outline>
    <contour>
      <point x="268" y="688" type="line"/>
      <point x="161" y="194" type="line"/>
      <point x="88" y="194" type="line"/>
      <point x="172" y="688" type="line"/>
    </contour>
    <contour>
      <point x="132" y="0" type="line"/>
      <point x="38" y="0" type="line"/>
      <point x="57" y="98" type="line"/>
      <point x="152" y="98" type="line"/>
    </contour>
  </outline>
</glyph>
<glyph name="dollar" format="1">
  <advance width="556"/>
  <unicode hex="0024"/>
  <outline>
    <contour>
      <point x="523" y="208" type="curve" smooth="yes"/>
      <point x="523" y="87"/>
      <point x="431" y="15"/>
      <point x="264" y="10" type="curve"/>
      <point x="249" y="-68" type="line"/>
      <point x="193" y="-68" type="line"/>
      <point x="208" y="11" type="line"/>
      <point x="77" y="20"/>
      <point x="11" y="80"/>
      <point x="-6" y="184" type="curve"/>
      <point x="74" y="202" type="line"/>
      <point x="90" y="127"/>
      <point x="135" y="90"/>
      <point x="222" y="83" type="curve"/>
      <point x="269" y="324" type="line"/>
      <point x="220" y="337"/>
      <point x="184" y="351"/>
      <point x="160" y="366" type="curve" smooth="yes"/>
      <point x="113" y="395"/>
      <point x="88" y="436"/>
      <point x="88" y="497" type="curve" smooth="yes"/>
      <point x="88" y="606"/>
      <point x="193" y="676"/>
      <point x="337" y="676" type="curve"/>
      <point x="350" y="740" type="line"/>
      <point x="405" y="740" type="line"/>
      <point x="392" y="673" type="line"/>
      <point x="493" y="661"/>
      <point x="555" y="611"/>
      <point x="571" y="531" type="curve"/>
      <point x="495" y="509" type="line"/>
      <point x="480" y="563"/>
      <point x="442" y="595"/>
      <point x="379" y="604" type="curve"/>
      <point x="337" y="388" type="line"/>
      <point x="465" y="353"/>
      <point x="523" y="293"/>
    </contour>
    <contour>
      <point x="433" y="202" type="curve" smooth="yes"/>
      <point x="433" y="253"/>
      <point x="405" y="282"/>
      <point x="322" y="309" type="curve"/>
      <point x="278" y="83" type="line"/>
      <point x="381" y="88"/>
      <point x="433" y="128"/>
    </contour>
    <contour>
      <point x="177" y="497" type="curve" smooth="yes"/>
      <point x="177" y="453"/>
      <point x="200" y="428"/>
      <point x="284" y="403" type="curve"/>
      <point x="324" y="605" type="line"/>
      <point x="229" y="602"/>
      <point x="177" y="564"/>
    </contour>
  </outline>
</glyph>
<glyph name="quotesingle" format="1">
  <advance width="191"/>
  <unicode hex="0027"/>
  <outline>
    <contour>
      <point x="219" y="688" type="line"/>
      <point x="167" y="472" type="line"/>
      <point x="99" y="472" type="line"/>
      <point x="129" y="688" type="line"/>
    </contour>
  </outline>
</glyph>
<glyph name="asterisk" format="1">
  <advance width="389"/>
  <unicode hex="002A"/>
  <outline>
    <contour>
      <point x="271" y="688" type="line"/>
      <point x="265" y="544" type="line"/>
      <point x="394" y="594" type="line"/>
      <point x="416" y="530" type="line"/>
      <point x="278" y="494" type="line"/>
      <point x="369" y="372" type="line"/>
      <point x="311" y="337" type="line"/>
      <point x="237" y="463" type="line"/>
      <point x="161" y="338" type="line"/>
      <point x="103" y="373" type="line"/>
      <point x="195" y="494" type="line"/>
      <point x="59" y="530" type="line"/>
      <point x="81" y="595" type="line"/>
      <point x="211" y="543" type="line"/>
      <point x="205" y="688" type="line"/>
    </contour>
  </outline>
</glyph>
<glyph name="plus" format="1">
  <advance width="584"/>
  <unicode hex="002B"/>
  <outline>
    <contour>
      <point x="549" y="297" type="line"/>
      <point x="342" y="297" type="line"/>
      <point x="342" y="88" type="line"/>
      <point x="271" y="88" type="line"/>
      <point x="271" y="297" type="line"/>
      <point x="63" y="297" type="line"/>
      <point x="63" y="368" type="line"/>
      <point x="271" y="368" type="line"/>
      <point x="271" y="577" type="line"/>
      <point x="342" y="577" type="line"/>
      <point x="342" y="368" type="line"/>
      <point x="549" y="368" type="line"/>
    </contour>
  </outline>
</glyph>
<glyph name="period" format="1">
  <advance width="278"/>
  <unicode hex="002E"/>
  <outline>
    <contour>
      <point x="134" y="0" type="line"/>
      <point x="39" y="0" type="line"/>
      <point x="60" y="107" type="line"/>
      <point x="155" y="107" type="line"/>
    </contour>
  </outline>
</glyph>
<glyph name="two" format="1">
  <advance width="556"/>
  <unicode hex="0032"/>
  <outline>
    <contour>
      <point x="449" y="0" type="line"/>
      <point x="-6" y="0" type="line"/>
      <point x="6" y="62" type="line"/>
      <point x="150" y="302"/>
      <point x="449" y="322"/>
      <point x="449" y="519" type="curve" smooth="yes"/>
      <point x="449" y="583"/>
      <point x="405" y="626"/>
      <point x="336" y="626" type="curve" smooth="yes"/>
      <point x="265" y="626"/>
      <point x="210" y="587"/>
      <point x="186" y="510" type="curve"/>
      <point x="103" y="528" type="line"/>
      <point x="138" y="639"/>
      <point x="219" y="698"/>
      <point x="342" y="698" type="curve" smooth="yes"/>
      <point x="401" y="698"/>
      <point x="449" y="682"/>
      <point x="486" y="650" type="curve" smooth="yes"/>
      <point x="523" y="619"/>
      <point x="542" y="577"/>
      <point x="542" y="526" type="curve" smooth="yes"/>
      <point x="542" y="492"/>
      <point x="534" y="459"/>
      <point x="517" y="427" type="curve" smooth="yes"/>
      <point x="500" y="396"/>
      <point x="475" y="365"/>
      <point x="442" y="336" type="curve" smooth="yes"/>
      <point x="409" y="307"/>
      <point x="358" y="272"/>
      <point x="291" y="229" type="curve" smooth="yes"/>
      <point x="195" y="169"/>
      <point x="139" y="122"/>
      <point x="108" y="75" type="curve"/>
      <point x="463" y="75" type="line"/>
    </contour>
  </outline>
</glyph>
<glyph name="six" format="1">
  <advance width="556"/>
  <unicode hex="0036"/>
  <outline>
    <contour>
      <point x="261" y="-10" type="curve" smooth="yes"/>
      <point x="198" y="-10"/>
      <point x="148" y="12"/>
      <point x="111" y="55" type="curve" smooth="yes"/>
      <point x="74" y="99"/>
      <point x="56" y="156"/>
      <point x="56" y="227" type="curve" smooth="yes"/>
      <point x="56" y="305"/>
      <point x="70" y="382"/>
      <point x="97" y="459" type="curve" smooth="yes"/>
      <point x="152" y="612"/>
      <point x="248" y="698"/>
      <point x="372" y="698" type="curve" smooth="yes"/>
      <point x="469" y="698"/>
      <point x="533" y="650"/>
      <point x="556" y="562" type="curve"/>
      <point x="475" y="544" type="line"/>
      <point x="459" y="597"/>
      <point x="420" y="627"/>
      <point x="368" y="627" type="curve" smooth="yes"/>
      <point x="261" y="627"/>
      <point x="183" y="527"/>
      <point x="150" y="354" type="curve"/>
      <point x="189" y="413"/>
      <point x="251" y="445"/>
      <point x="324" y="445" type="curve" smooth="yes"/>
      <point x="380" y="445"/>
      <point x="425" y="428"/>
      <point x="459" y="393" type="curve" smooth="yes"/>
      <point x="494" y="359"/>
      <point x="511" y="315"/>
      <point x="511" y="260" type="curve" smooth="yes"/>
      <point x="513" y="112"/>
      <point x="402" y="-14"/>
    </contour>
    <contour>
      <point x="141" y="206" type="curve" smooth="yes"/>
      <point x="141" y="121"/>
      <point x="188" y="61"/>
      <point x="263" y="61" type="curve" smooth="yes"/>
      <point x="308" y="61"/>
      <point x="346" y="79"/>
      <point x="375" y="116" type="curve" smooth="yes"/>
      <point x="405" y="153"/>
      <point x="420" y="199"/>
      <point x="420" y="255" type="curve" smooth="yes"/>
      <point x="420" y="330"/>
      <point x="380" y="377"/>
      <point x="308" y="377" type="curve" smooth="yes"/>
      <point x="216" y="377"/>
      <point x="141" y="311"/>
    </contour>
  </outline>
</glyph>
<glyph name="eight" format="1">
  <advance width="556"/>
  <unicode hex="0038"/>
  <outline>
    <contour>
      <point x="344" y="698" type="curve" smooth="yes"/>
      <point x="468" y="698"/>
      <point x="550" y="633"/>
      <point x="550" y="533" type="curve" smooth="yes"/>
      <point x="550" y="441"/>
      <point x="490" y="373"/>
      <point x="394" y="358" type="curve"/>
      <point x="394" y="356" type="line"/>
      <point x="465" y="335"/>
      <point x="504" y="283"/>
      <point x="504" y="211" type="curve" smooth="yes"/>
      <point x="504" y="75"/>
      <point x="407" y="-10"/>
      <point x="244" y="-10" type="curve" smooth="yes"/>
      <point x="105" y="-10"/>
      <point x="26" y="60"/>
      <point x="26" y="176" type="curve" smooth="yes"/>
      <point x="26" y="273"/>
      <point x="86" y="344"/>
      <point x="201" y="369" type="curve"/>
      <point x="201" y="371" type="line"/>
      <point x="141" y="396"/>
      <point x="107" y="446"/>
      <point x="107" y="514" type="curve" smooth="yes"/>
      <point x="107" y="629"/>
      <point x="197" y="698"/>
    </contour>
    <contour>
      <point x="321" y="396" type="curve" smooth="yes"/>
      <point x="409" y="396"/>
      <point x="459" y="444"/>
      <point x="459" y="531" type="curve" smooth="yes"/>
      <point x="459" y="595"/>
      <point x="417" y="632"/>
      <point x="333" y="632" type="curve" smooth="yes"/>
      <point x="248" y="632"/>
      <point x="195" y="587"/>
      <point x="195" y="504" type="curve" smooth="yes"/>
      <point x="195" y="437"/>
      <point x="242" y="396"/>
    </contour>
    <contour>
      <point x="276" y="328" type="curve" smooth="yes"/>
      <point x="175" y="328"/>
      <point x="117" y="271"/>
      <point x="117" y="174" type="curve" smooth="yes"/>
      <point x="117" y="101"/>
      <point x="168" y="57"/>
      <point x="253" y="57" type="curve" smooth="yes"/>
      <point x="350" y="57"/>
      <point x="415" y="117"/>
      <point x="415" y="213" type="curve" smooth="yes"/>
      <point x="415" y="285"/>
      <point x="361" y="328"/>
    </contour>
  </outline>
</glyph>
<glyph name="nine" format="1">
  <advance width="556"/>
  <unicode hex="0039"/>
  <outline>
    <contour>
      <point x="438" y="334" type="curve"/>
      <point x="395" y="268"/>
      <point x="340" y="235"/>
      <point x="273" y="235" type="curve" smooth="yes"/>
      <point x="156" y="235"/>
      <point x="80" y="318"/>
      <point x="80" y="430" type="curve" smooth="yes"/>
      <point x="77" y="578"/>
      <point x="189" y="702"/>
      <point x="333" y="698" type="curve" smooth="yes"/>
      <point x="461" y="698"/>
      <point x="536" y="610"/>
      <point x="536" y="467" type="curve" smooth="yes"/>
      <point x="536" y="417"/>
      <point x="530" y="364"/>
      <point x="517" y="309" type="curve" smooth="yes"/>
      <point x="505" y="254"/>
      <point x="489" y="207"/>
      <point x="468" y="166" type="curve" smooth="yes"/>
      <point x="407" y="43"/>
      <point x="317" y="-10"/>
      <point x="221" y="-10" type="curve" smooth="yes"/>
      <point x="121" y="-10"/>
      <point x="59" y="35"/>
      <point x="34" y="125" type="curve"/>
      <point x="111" y="147" type="line"/>
      <point x="127" y="92"/>
      <point x="166" y="61"/>
      <point x="225" y="61" type="curve" smooth="yes"/>
      <point x="328" y="61"/>
      <point x="402" y="158"/>
    </contour>
    <contour>
      <point x="452" y="497" type="curve" smooth="yes"/>
      <point x="452" y="576"/>
      <point x="402" y="627"/>
      <point x="331" y="627" type="curve" smooth="yes"/>
      <point x="235" y="627"/>
      <point x="169" y="552"/>
      <point x="169" y="429" type="curve" smooth="yes"/>
      <point x="169" y="350"/>
      <point x="212" y="304"/>
      <point x="283" y="304" type="curve" smooth="yes"/>
      <point x="377" y="306"/>
      <point x="456" y="380"/>
    </contour>
  </outline>
</glyph>
<glyph name="equal" format="1">
  <advance width="584"/>
  <unicode hex="003D"/>
  <outline>
    <contour>
      <point x="549" y="418" type="line"/>
      <point x="63" y="418" type="line"/>
      <point x="63" y="490" type="line"/>
      <point x="549" y="490" type="line"/>
    </contour>
    <contour>
      <point x="549" y="168" type="line"/>
      <point x="63" y="168" type="line"/>
      <point x="63" y="240" type="line"/>
      <point x="549" y="240" type="line"/>
    </contour>
  </outline>
</glyph>
<glyph name="greater" format="1">
  <advance width="584"/>
  <unicode hex="003E"/>
  <outline>
    <contour>
      <point x="550" y="279" type="line"/>
      <point x="64" y="75" type="line"/>
      <point x="64" y="150" type="line"/>
      <point x="483" y="329" type="line"/>
      <point x="64" y="508" type="line"/>
      <point x="64" y="583" type="line"/>
      <point x="550" y="379" type="line"/>
    </contour>
  </outline>
</glyph>
<glyph name="F" format="1">
  <advance width="611"/>
  <unicode hex="0046"/>
  <outline>
    <contour>
      <point x="643" y="612" type="line"/>
      <point x="243" y="612" type="line"/>
      <point x="193" y="356" type="line"/>
      <point x="582" y="356" type="line"/>
      <point x="566" y="279" type="line"/>
      <point x="178" y="279" type="line"/>
      <point x="124" y="0" type="line"/>
      <point x="31" y="0" type="line"/>
      <point x="164" y="688" type="line"/>
      <point x="658" y="688" type="line"/>
    </contour>
  </outline>
</glyph>
<glyph name="J" format="1">
  <advance width="500"/>
  <unicode hex="004A"/>
  <outline>
    <contour>
      <point x="186" y="-10" type="curve" smooth="yes"/>
      <point x="82" y="-10"/>
      <point x="14" y="52"/>
      <point x="-2" y="167" type="curve"/>
      <point x="80" y="184" type="line"/>
      <point x="95" y="107"/>
      <point x="130" y="66"/>
      <point x="194" y="66" type="curve" smooth="yes"/>
      <point x="263" y="66"/>
      <point x="304" y="111"/>
      <point x="324" y="215" type="curve" smooth="yes"/>
      <point x="400" y="612" type="line"/>
      <point x="258" y="612" type="line"/>
      <point x="273" y="688" type="line"/>
      <point x="508" y="688" type="line"/>
      <point x="414" y="207" type="line" smooth="yes"/>
      <point x="386" y="60"/>
      <point x="313" y="-10"/>
    </contour>
  </outline>
</glyph>
<glyph name="V" format="1">
  <advance width="667"/>
  <unicode hex="0056"/>
  <outline>
    <contour>
      <point x="745" y="688" type="line"/>
      <point x="331" y="0" type="line"/>
      <point x="234" y="0" type="line"/>
      <point x="86" y="688" type="line"/>
      <point x="181" y="688" type="line"/>
      <point x="278" y="204" type="line"/>
      <point x="295" y="82" type="line"/>
      <point x="360" y="204" type="line"/>
      <point x="643" y="688" type="line"/>
    </contour>
  </outline>
</glyph>
<glyph name="X" format="1">
  <advance width="667"/>
  <unicode hex="0058"/>
  <outline>
    <contour>
      <point x="585" y="0" type="line"/>
      <point x="488" y="0" type="line"/>
      <point x="340" y="296" type="line"/>
      <point x="84" y="0" type="line"/>
      <point x="-19" y="0" type="line"/>
      <point x="300" y="364" type="line"/>
      <point x="134" y="688" type="line"/>
      <point x="231" y="688" type="line"/>
      <point x="363" y="419" type="line"/>
      <point x="595" y="688" type="line"/>
      <point x="698" y="688" type="line"/>
      <point x="405" y="358" type="line"/>
    </contour>
  </outline>
</glyph>
<glyph name="backslash" format="1">
  <advance width="278"/>
  <unicode hex="005C"/>
  <outline>
    <contour>
      <point x="230" y="-10" type="line"/>
      <point x="156" y="-10" type="line"/>
      <point x="71" y="725" type="line"/>
      <point x="144" y="725" type="line"/>
    </contour>
  </outline>
</glyph>
<glyph name="bracketright" format="1">
  <advance width="278"/>
  <unicode hex="005D"/>
  <outline>
    <contour>
      <point x="116" y="-208" type="line"/>
      <point x="-83" y="-208" type="line"/>
      <point x="-70" y="-145" type="line"/>
      <point x="43" y="-145" type="line"/>
      <point x="200" y="662" type="line"/>
      <point x="86" y="662" type="line"/>
      <point x="98" y="725" type="line"/>
      <point x="297" y="725" type="line"/>
    </contour>
  </outline>
</glyph>
<glyph name="t" format="1">
  <advance width="278"/>
  <unicode hex="0074"/>
  <outline>
    <contour>
      <point x="134" y="-10" type="curve" smooth="yes"/>
      <point x="79" y="-10"/>
      <point x="45" y="26"/>
      <point x="45" y="81" type="curve" smooth="yes"/>
      <point x="45" y="99"/>
      <point x="48" y="120"/>
      <point x="53" y="145" type="curve" smooth="yes"/>
      <point x="114" y="464" type="line"/>
      <point x="53" y="464" type="line"/>
      <point x="66" y="528" type="line"/>
      <point x="128" y="528" type="line"/>
      <point x="179" y="646" type="line"/>
      <point x="238" y="646" type="line"/>
      <point x="215" y="528" type="line"/>
      <point x="313" y="528" type="line"/>
      <point x="300" y="464" type="line"/>
      <point x="202" y="464" type="line"/>
      <point x="141" y="149" type="line" smooth="yes"/>
      <point x="137" y="130"/>
      <point x="135" y="114"/>
      <point x="135" y="103" type="curve" smooth="yes"/>
      <point x="135" y="74"/>
      <point x="150" y="60"/>
      <point x="179" y="60" type="curve" smooth="yes"/>
      <point x="193" y="60"/>
      <point x="209" y="62"/>
      <point x="228" y="67" type="curve"/>
      <point x="219" y="2" type="line"/>
      <point x="186" y="-6"/>
      <point x="158" y="-10"/>
    </contour>
  </outline>
</glyph>
<glyph name="braceleft" format="1">
  <advance width="334"/>
  <unicode hex="007B"/>
  <outline>
    <contour>
      <point x="226" y="-208" type="line"/>
      <point x="179" y="-208" type="line" smooth="yes"/>
      <point x="107" y="-208"/>
      <point x="61" y="-162"/>
      <point x="61" y="-85" type="curve" smooth="yes"/>
      <point x="61" y="-65"/>
      <point x="62" y="-46"/>
      <point x="65" y="-28" type="curve" smooth="yes"/>
      <point x="93" y="112" type="line" smooth="yes"/>
      <point x="96" y="126"/>
      <point x="97" y="138"/>
      <point x="97" y="149" type="curve" smooth="yes"/>
      <point x="97" y="204"/>
      <point x="66" y="225"/>
      <point x="10" y="228" type="curve"/>
      <point x="22" y="290" type="line"/>
      <point x="94" y="293"/>
      <point x="135" y="329"/>
      <point x="150" y="405" type="curve" smooth="yes"/>
      <point x="184" y="582" type="line" smooth="yes"/>
      <point x="203" y="674"/>
      <point x="248" y="725"/>
      <point x="341" y="725" type="curve" smooth="yes"/>
      <point x="407" y="725" type="line"/>
      <point x="395" y="662" type="line"/>
      <point x="364" y="662" type="line" smooth="yes"/>
      <point x="305" y="662"/>
      <point x="277" y="636"/>
      <point x="261" y="557" type="curve" smooth="yes"/>
      <point x="228" y="383" type="line" smooth="yes"/>
      <point x="215" y="320"/>
      <point x="169" y="275"/>
      <point x="109" y="260" type="curve"/>
      <point x="109" y="259" type="line"/>
      <point x="154" y="247"/>
      <point x="182" y="215"/>
      <point x="182" y="164" type="curve" smooth="yes"/>
      <point x="182" y="155"/>
      <point x="181" y="145"/>
      <point x="179" y="135" type="curve" smooth="yes"/>
      <point x="149" y="-21" type="line" smooth="yes"/>
      <point x="146" y="-37"/>
      <point x="144" y="-69"/>
      <point x="143" y="-81" type="curve" smooth="yes"/>
      <point x="143" y="-83" type="line" smooth="yes"/>
      <point x="143" y="-120"/>
      <point x="165" y="-145"/>
      <point x="214" y="-145" type="curve" smooth="yes"/>
      <point x="238" y="-145" type="line"/>
    </contour>
  </outline>
</glyph>
<glyph name="asciitilde" format="1">
  <advance width="584"/>
  <unicode hex="007E"/>
  <outline>
    <contour>
      <point x="427" y="270" type="curve" smooth="yes"/>
      <point x="382" y="270"/>
      <point x="334" y="288"/>
      <point x="287" y="304" type="curve" smooth="yes"/>
      <point x="245" y="319"/>
      <point x="210" y="326"/>
      <point x="181" y="326" type="curve" smooth="yes"/>
      <point x="137" y="326"/>
      <point x="101" y="314"/>
      <point x="60" y="283" type="curve"/>
      <point x="60" y="353" type="line"/>
      <point x="96" y="380"/>
      <point x="139" y="394"/>
      <point x="188" y="394" type="curve" smooth="yes"/>
      <point x="221" y="394"/>
      <point x="260" y="387"/>
      <point x="303" y="372" type="curve" smooth="yes"/>
      <point x="351" y="355"/>
      <point x="382" y="345"/>
      <point x="396" y="342" type="curve" smooth="yes"/>
      <point x="410" y="339"/>
      <point x="423" y="337"/>
      <point x="435" y="337" type="curve" smooth="yes"/>
      <point x="477" y="337"/>
      <point x="517" y="352"/>
      <point x="554" y="382" type="curve"/>
      <point x="554" y="309" type="line"/>
      <point x="514" y="282"/>
      <point x="482" y="270"/>
    </contour>
  </outline>
</glyph>
<glyph name="currency" format="1">
  <advance width="556"/>
  <unicode hex="00A4"/>
  <outline>
    <contour>
      <point x="81" y="334" type="curve" smooth="yes"/>
      <point x="81" y="379"/>
      <point x="94" y="420"/>
      <point x="119" y="457" type="curve"/>
      <point x="70" y="506" type="line"/>
      <point x="121" y="556" type="line"/>
      <point x="169" y="507" type="line"/>
      <point x="206" y="534"/>
      <point x="248" y="547"/>
      <point x="293" y="547" type="curve" smooth="yes"/>
      <point x="338" y="547"/>
      <point x="379" y="534"/>
      <point x="416" y="508" type="curve"/>
      <point x="463" y="555" type="line"/>
      <point x="514" y="504" type="line"/>
      <point x="467" y="457" type="line"/>
      <point x="493" y="419"/>
      <point x="506" y="378"/>
      <point x="506" y="334" type="curve" smooth="yes"/>
      <point x="506" y="289"/>
      <point x="493" y="248"/>
      <point x="466" y="211" type="curve"/>
      <point x="515" y="162" type="line"/>
      <point x="465" y="111" type="line"/>
      <point x="416" y="160" type="line"/>
      <point x="379" y="135"/>
      <point x="338" y="122"/>
      <point x="293" y="122" type="curve" smooth="yes"/>
      <point x="246" y="122"/>
      <point x="205" y="135"/>
      <point x="170" y="161" type="curve"/>
      <point x="119" y="110" type="line"/>
      <point x="69" y="161" type="line"/>
      <point x="119" y="211" type="line"/>
      <point x="94" y="248"/>
      <point x="81" y="289"/>
    </contour>
    <contour>
      <point x="156" y="335" type="curve" smooth="yes"/>
      <point x="156" y="298"/>
      <point x="169" y="265"/>
      <point x="196" y="238" type="curve" smooth="yes"/>
      <point x="223" y="211"/>
      <point x="255" y="198"/>
      <point x="293" y="198" type="curve" smooth="yes"/>
      <point x="330" y="198"/>
      <point x="362" y="211"/>
      <point x="389" y="237" type="curve" smooth="yes"/>
      <point x="416" y="264"/>
      <point x="430" y="296"/>
      <point x="430" y="335" type="curve" smooth="yes"/>
      <point x="430" y="373"/>
      <point x="416" y="405"/>
      <point x="389" y="432" type="curve" smooth="yes"/>
      <point x="362" y="459"/>
      <point x="330" y="472"/>
      <point x="293" y="472" type="curve" smooth="yes"/>
      <point x="255" y="472"/>
      <point x="223" y="458"/>
      <point x="196" y="431" type="curve" smooth="yes"/>
      <point x="169" y="404"/>
      <point x="156" y="372"/>
    </contour>
  </outline>
</glyph>
<glyph name="yen" format="1">
  <advance width="556"/>
  <unicode hex="00A5"/>
  <outline>
    <contour>
      <point x="636" y="688" type="line"/>
      <point x="364" y="346" type="line"/>
      <point x="521" y="346" type="line"/>
      <point x="509" y="285" type="line"/>
      <point x="322" y="285" type="line"/>
      <point x="307" y="210" type="line"/>
      <point x="494" y="210" type="line"/>
      <point x="482" y="148" type="line"/>
      <point x="295" y="148" type="line"/>
      <point x="266" y="0" type="line"/>
      <point x="179" y="0" type="line"/>
      <point x="208" y="148" type="line"/>
      <point x="22" y="148" type="line"/>
      <point x="34" y="210" type="line"/>
      <point x="220" y="210" type="line"/>
      <point x="236" y="285" type="line"/>
      <point x="49" y="285" type="line"/>
      <point x="61" y="346" type="line"/>
      <point x="217" y="346" type="line"/>
      <point x="78" y="688" type="line"/>
      <point x="172" y="688" type="line"/>
      <point x="292" y="372" type="line"/>
      <point x="536" y="688" type="line"/>
    </contour>
  </outline>
</glyph>
<glyph name="copyright" format="1">
  <advance width="737"/>
  <unicode hex="00A9"/>
  <outline>
    <contour>
      <point x="737" y="345" type="curve"/>
      <point x="743" y="157"/>
      <point x="572" y="-14"/>
      <point x="384" y="-8" type="curve" smooth="yes"/>
      <point x="320" y="-8"/>
      <point x="260" y="8"/>
      <point x="205" y="41" type="curve" smooth="yes"/>
      <point x="94" y="106"/>
      <point x="31" y="222"/>
      <point x="31" y="345" type="curve" smooth="yes"/>
      <point x="25" y="533"/>
      <point x="196" y="704"/>
      <point x="384" y="698" type="curve"/>
      <point x="574" y="703"/>
      <point x="742" y="534"/>
    </contour>
    <contour>
      <point x="692" y="345" type="curve"/>
      <point x="697" y="508"/>
      <point x="547" y="656"/>
      <point x="384" y="652" type="curve"/>
      <point x="220" y="656"/>
      <point x="72" y="508"/>
      <point x="77" y="345" type="curve"/>
      <point x="74" y="181"/>
      <point x="219" y="33"/>
      <point x="384" y="38" type="curve"/>
      <point x="550" y="34"/>
      <point x="697" y="182"/>
    </contour>
    <contour>
      <point x="389" y="136" type="curve" smooth="yes"/>
      <point x="266" y="136"/>
      <point x="196" y="214"/>
      <point x="196" y="346" type="curve" smooth="yes"/>
      <point x="196" y="478"/>
      <point x="262" y="553"/>
      <point x="386" y="553" type="curve" smooth="yes"/>
      <point x="465" y="553"/>
      <point x="521" y="519"/>
      <point x="552" y="451" type="curve"/>
      <point x="496" y="435" type="line"/>
      <point x="475" y="480"/>
      <point x="436" y="502"/>
      <point x="387" y="502" type="curve" smooth="yes"/>
      <point x="304" y="502"/>
      <point x="259" y="449"/>
      <point x="259" y="346" type="curve" smooth="yes"/>
      <point x="259" y="246"/>
      <point x="308" y="187"/>
      <point x="389" y="187" type="curve" smooth="yes"/>
      <point x="440" y="187"/>
      <point x="476" y="211"/>
      <point x="503" y="263" type="curve"/>
      <point x="559" y="246" type="line"/>
      <point x="519" y="167"/>
      <point x="465" y="136"/>
    </contour>
  </outline>
</glyph>
<glyph name="twosuperior" format="1">
  <advance width="333"/>
  <unicode hex="00B2"/>
  <outline>
    <contour>
      <point x="308" y="275" type="line"/>
      <point x="15" y="275" type="line"/>
      <point x="23" y="325" type="line"/>
      <point x="33" y="341"/>
      <point x="44" y="355"/>
      <point x="57" y="368" type="curve" smooth="yes"/>
      <point x="70" y="381"/>
      <point x="83" y="393"/>
      <point x="98" y="404" type="curve" smooth="yes"/>
      <point x="113" y="415"/>
      <point x="138" y="431"/>
      <point x="171" y="452" type="curve" smooth="yes"/>
      <point x="214" y="477"/>
      <point x="242" y="494"/>
      <point x="255" y="505" type="curve" smooth="yes"/>
      <point x="282" y="528"/>
      <point x="296" y="551"/>
      <point x="296" y="582" type="curve" smooth="yes"/>
      <point x="296" y="615"/>
      <point x="274" y="642"/>
      <point x="231" y="642" type="curve" smooth="yes"/>
      <point x="186" y="642"/>
      <point x="150" y="614"/>
      <point x="141" y="573" type="curve"/>
      <point x="80" y="581" type="line"/>
      <point x="99" y="654"/>
      <point x="153" y="694"/>
      <point x="234" y="694" type="curve" smooth="yes"/>
      <point x="311" y="694"/>
      <point x="362" y="650"/>
      <point x="362" y="589" type="curve" smooth="yes"/>
      <point x="362" y="567"/>
      <point x="357" y="547"/>
      <point x="347" y="529" type="curve" smooth="yes"/>
      <point x="338" y="511"/>
      <point x="324" y="494"/>
      <point x="306" y="479" type="curve" smooth="yes"/>
      <point x="289" y="464"/>
      <point x="256" y="442"/>
      <point x="208" y="414" type="curve" smooth="yes"/>
      <point x="145" y="378"/>
      <point x="116" y="355"/>
      <point x="99" y="330" type="curve"/>
      <point x="318" y="330" type="line"/>
    </contour>
  </outline>
</glyph>
<glyph name="acute" format="1">
  <advance width="333"/>
  <unicode hex="00B4"/>
  <outline>
    <contour>
      <point x="131" y="586" type="line"/>
      <point x="85" y="586" type="line"/>
      <point x="87" y="596" type="line"/>
      <point x="210" y="736" type="line"/>
      <point x="316" y="736" type="line"/>
      <point x="314" y="722" type="line"/>
    </contour>
  </outline>
</glyph>
<glyph name="mu1" format="1">
  <advance width="576"/>
  <unicode hex="00B5"/>
  <outline>
    <contour>
      <point x="87" y="-208" type="line"/>
      <point x="0" y="-208" type="line"/>
      <point x="143" y="528" type="line"/>
      <point x="231" y="528" type="line"/>
      <point x="166" y="193" type="line" smooth="yes"/>
      <point x="162" y="172"/>
      <point x="160" y="156"/>
      <point x="160" y="144" type="curve" smooth="yes"/>
      <point x="160" y="87"/>
      <point x="186" y="58"/>
      <point x="239" y="58" type="curve" smooth="yes"/>
      <point x="312" y="58"/>
      <point x="371" y="125"/>
      <point x="388" y="230" type="curve" smooth="yes"/>
      <point x="446" y="528" type="line"/>
      <point x="534" y="528" type="line"/>
      <point x="457" y="134" type="line" smooth="yes"/>
      <point x="454" y="121"/>
      <point x="453" y="107"/>
      <point x="453" y="94" type="curve" smooth="yes"/>
      <point x="453" y="71"/>
      <point x="462" y="59"/>
      <point x="480" y="59" type="curve" smooth="yes"/>
      <point x="484" y="59"/>
      <point x="493" y="60"/>
      <point x="508" y="63" type="curve"/>
      <point x="497" y="0" type="line"/>
      <point x="474" y="-7"/>
      <point x="454" y="-10"/>
      <point x="437" y="-10" type="curve" smooth="yes"/>
      <point x="389" y="-10"/>
      <point x="371" y="23"/>
      <point x="371" y="83" type="curve"/>
      <point x="370" y="83" type="line"/>
      <point x="328" y="21"/>
      <point x="278" y="-10"/>
      <point x="219" y="-10" type="curve" smooth="yes"/>
      <point x="178" y="-10"/>
      <point x="149" y="5"/>
      <point x="133" y="29" type="curve"/>
    </contour>
  </outline>
</glyph>
<glyph name="cedilla" format="1">
  <advance width="333"/>
  <unicode hex="00B8"/>
  <outline>
    <contour>
      <point x="184" y="0" type="line"/>
      <point x="155" y="-47" type="line"/>
      <point x="208" y="-50"/>
      <point x="234" y="-74"/>
      <point x="234" y="-113" type="curve" smooth="yes"/>
      <point x="234" y="-176"/>
      <point x="185" y="-208"/>
      <point x="86" y="-208" type="curve" smooth="yes"/>
      <point x="70" y="-208"/>
      <point x="53" y="-207"/>
      <point x="35" y="-204" type="curve"/>
      <point x="45" y="-160" type="line"/>
      <point x="60" y="-162"/>
      <point x="75" y="-163"/>
      <point x="88" y="-163" type="curve" smooth="yes"/>
      <point x="147" y="-163"/>
      <point x="169" y="-148"/>
      <point x="169" y="-119" type="curve" smooth="yes"/>
      <point x="169" y="-96"/>
      <point x="150" y="-84"/>
      <point x="111" y="-84" type="curve" smooth="yes"/>
      <point x="96" y="-84"/>
      <point x="87" y="-84"/>
      <point x="83" y="-85" type="curve" smooth="yes"/>
      <point x="132" y="0" type="line"/>
    </contour>
  </outline>
</glyph>
<glyph name="onesuperior" format="1">
  <advance width="333"/>
  <unicode hex="00B9"/>
  <outline>
    <contour>
      <point x="301" y="275" type="line"/>
      <point x="30" y="275" type="line"/>
      <point x="40" y="327" type="line"/>
      <point x="143" y="327" type="line"/>
      <point x="200" y="625" type="line"/>
      <point x="88" y="557" type="line"/>
      <point x="101" y="621" type="line"/>
      <point x="217" y="688" type="line"/>
      <point x="277" y="688" type="line"/>
      <point x="207" y="327" type="line"/>
      <point x="312" y="327" type="line"/>
    </contour>
  </outline>
</glyph>
<glyph name="ordmasculine" format="1">
  <advance width="365"/>
  <unicode hex="00BA"/>
  <outline>
    <contour>
      <point x="197" y="318" type="curve" smooth="yes"/>
      <point x="102" y="318"/>
      <point x="49" y="372"/>
      <point x="49" y="464" type="curve" smooth="yes"/>
      <point x="49" y="483"/>
      <point x="51" y="504"/>
      <point x="56" y="526" type="curve" smooth="yes"/>
      <point x="78" y="641"/>
      <point x="144" y="699"/>
      <point x="254" y="699" type="curve" smooth="yes"/>
      <point x="349" y="699"/>
      <point x="401" y="646"/>
      <point x="401" y="553" type="curve" smooth="yes"/>
      <point x="401" y="534"/>
      <point x="399" y="513"/>
      <point x="395" y="491" type="curve" smooth="yes"/>
      <point x="373" y="376"/>
      <point x="307" y="318"/>
    </contour>
    <contour>
      <point x="250" y="647" type="curve" smooth="yes"/>
      <point x="219" y="647"/>
      <point x="195" y="639"/>
      <point x="177" y="624" type="curve" smooth="yes"/>
      <point x="160" y="609"/>
      <point x="146" y="584"/>
      <point x="136" y="550" type="curve" smooth="yes"/>
      <point x="126" y="517"/>
      <point x="121" y="486"/>
      <point x="121" y="458" type="curve" smooth="yes"/>
      <point x="121" y="399"/>
      <point x="147" y="370"/>
      <point x="199" y="370" type="curve" smooth="yes"/>
      <point x="231" y="370"/>
      <point x="256" y="378"/>
      <point x="273" y="394" type="curve" smooth="yes"/>
      <point x="291" y="410"/>
      <point x="305" y="435"/>
      <point x="315" y="470" type="curve" smooth="yes"/>
      <point x="326" y="505"/>
      <point x="331" y="536"/>
      <point x="331" y="563" type="curve" smooth="yes"/>
      <point x="331" y="624"/>
      <point x="302" y="647"/>
    </contour>
  </outline>
</glyph>
<glyph name="onehalf" format="1">
  <advance width="834"/>
  <unicode hex="00BD"/>
  <outline>
    <contour>
      <point x="294" y="275" type="line"/>
      <point x="23" y="275" type="line"/>
      <point x="33" y="327" type="line"/>
      <point x="136" y="327" type="line"/>
      <point x="193" y="625" type="line"/>
      <point x="82" y="557" type="line"/>
      <point x="94" y="621" type="line"/>
      <point x="210" y="688" type="line"/>
      <point x="270" y="688" type="line"/>
      <point x="200" y="327" type="line"/>
      <point x="305" y="327" type="line"/>
    </contour>
    <contour>
      <point x="746" y="688" type="line"/>
      <point x="184" y="0" type="line"/>
      <point x="109" y="0" type="line"/>
      <point x="671" y="688" type="line"/>
    </contour>
    <contour>
      <point x="751" y="0" type="line"/>
      <point x="458" y="0" type="line"/>
      <point x="466" y="51" type="line"/>
      <point x="476" y="66"/>
      <point x="487" y="80"/>
      <point x="500" y="93" type="curve" smooth="yes"/>
      <point x="513" y="106"/>
      <point x="526" y="119"/>
      <point x="541" y="130" type="curve" smooth="yes"/>
      <point x="556" y="141"/>
      <point x="580" y="157"/>
      <point x="614" y="177" type="curve" smooth="yes"/>
      <point x="657" y="202"/>
      <point x="685" y="220"/>
      <point x="698" y="231" type="curve" smooth="yes"/>
      <point x="725" y="254"/>
      <point x="739" y="277"/>
      <point x="739" y="308" type="curve" smooth="yes"/>
      <point x="739" y="341"/>
      <point x="717" y="368"/>
      <point x="674" y="368" type="curve" smooth="yes"/>
      <point x="629" y="368"/>
      <point x="593" y="340"/>
      <point x="584" y="299" type="curve"/>
      <point x="523" y="306" type="line"/>
      <point x="542" y="381"/>
      <point x="596" y="419"/>
      <point x="677" y="419" type="curve" smooth="yes"/>
      <point x="754" y="419"/>
      <point x="805" y="377"/>
      <point x="805" y="314" type="curve" smooth="yes"/>
      <point x="805" y="292"/>
      <point x="800" y="272"/>
      <point x="790" y="254" type="curve" smooth="yes"/>
      <point x="780" y="237"/>
      <point x="766" y="220"/>
      <point x="749" y="205" type="curve" smooth="yes"/>
      <point x="732" y="190"/>
      <point x="699" y="168"/>
      <point x="651" y="140" type="curve" smooth="yes"/>
      <point x="588" y="103"/>
      <point x="559" y="81"/>
      <point x="542" y="56" type="curve"/>
      <point x="761" y="56" type="line"/>
    </contour>
  </outline>
</glyph>
<glyph name="threequarters" format="1">
  <advance width="834"/>
  <unicode hex="00BE"/>
  <outline>
    <contour>
      <point x="192" y="459" type="line"/>
      <point x="203" y="512" type="line"/>
      <point x="230" y="512" type="line" smooth="yes"/>
      <point x="294" y="512"/>
      <point x="329" y="541"/>
      <point x="329" y="588" type="curve" smooth="yes"/>
      <point x="329" y="619"/>
      <point x="305" y="642"/>
      <point x="269" y="642" type="curve" smooth="yes"/>
      <point x="224" y="642"/>
      <point x="191" y="619"/>
      <point x="179" y="576" type="curve"/>
      <point x="118" y="588" type="line"/>
      <point x="139" y="659"/>
      <point x="191" y="694"/>
      <point x="273" y="694" type="curve" smooth="yes"/>
      <point x="346" y="694"/>
      <point x="396" y="654"/>
      <point x="396" y="595" type="curve" smooth="yes"/>
      <point x="396" y="536"/>
      <point x="361" y="500"/>
      <point x="290" y="486" type="curve"/>
      <point x="290" y="485" type="line"/>
      <point x="337" y="477"/>
      <point x="369" y="443"/>
      <point x="369" y="399" type="curve" smooth="yes"/>
      <point x="369" y="320"/>
      <point x="306" y="269"/>
      <point x="211" y="269" type="curve" smooth="yes"/>
      <point x="126" y="269"/>
      <point x="78" y="307"/>
      <point x="66" y="383" type="curve"/>
      <point x="129" y="391" type="line"/>
      <point x="136" y="344"/>
      <point x="166" y="320"/>
      <point x="214" y="320" type="curve" smooth="yes"/>
      <point x="270" y="320"/>
      <point x="303" y="351"/>
      <point x="303" y="400" type="curve" smooth="yes"/>
      <point x="303" y="436"/>
      <point x="273" y="459"/>
      <point x="222" y="459" type="curve" smooth="yes"/>
    </contour>
    <contour>
      <point x="771" y="688" type="line"/>
      <point x="208" y="0" type="line"/>
      <point x="134" y="0" type="line"/>
      <point x="695" y="688" type="line"/>
    </contour>
    <contour>
      <point x="763" y="87" type="line"/>
      <point x="702" y="87" type="line"/>
      <point x="685" y="0" type="line"/>
      <point x="621" y="0" type="line"/>
      <point x="638" y="87" type="line"/>
      <point x="440" y="87" type="line"/>
      <point x="450" y="142" type="line"/>
      <point x="687" y="414" type="line"/>
      <point x="765" y="414" type="line"/>
      <point x="712" y="143" type="line"/>
      <point x="773" y="143" type="line"/>
    </contour>
    <contour>
      <point x="679" y="300" type="line"/>
      <point x="689" y="349" type="line"/>
      <point x="637" y="283" type="line"/>
      <point x="517" y="143" type="line"/>
      <point x="648" y="143" type="line"/>
    </contour>
  </outline>
</glyph>
<glyph name="questiondown" format="1">
  <advance width="611"/>
  <unicode hex="00BF"/>
  <outline>
    <contour>
      <point x="243" y="-169" type="curve" smooth="yes"/>
      <point x="178" y="-169"/>
      <point x="127" y="-153"/>
      <point x="89" y="-120" type="curve" smooth="yes"/>
      <point x="51" y="-88"/>
      <point x="32" y="-46"/>
      <point x="32" y="5" type="curve" smooth="yes"/>
      <point x="32" y="130"/>
      <point x="120" y="177"/>
      <point x="197" y="222" type="curve" smooth="yes"/>
      <point x="238" y="245"/>
      <point x="267" y="266"/>
      <point x="283" y="284" type="curve" smooth="yes"/>
      <point x="299" y="303"/>
      <point x="309" y="323"/>
      <point x="314" y="345" type="curve"/>
      <point x="399" y="345" type="line"/>
      <point x="395" y="319"/>
      <point x="387" y="296"/>
      <point x="376" y="277" type="curve" smooth="yes"/>
      <point x="365" y="258"/>
      <point x="350" y="240"/>
      <point x="333" y="225" type="curve" smooth="yes"/>
      <point x="316" y="210"/>
      <point x="286" y="190"/>
      <point x="242" y="165" type="curve" smooth="yes"/>
      <point x="208" y="146"/>
      <point x="183" y="129"/>
      <point x="168" y="115" type="curve" smooth="yes"/>
      <point x="139" y="88"/>
      <point x="123" y="58"/>
      <point x="123" y="15" type="curve" smooth="yes"/>
      <point x="123" y="-49"/>
      <point x="175" y="-91"/>
      <point x="251" y="-91" type="curve" smooth="yes"/>
      <point x="342" y="-91"/>
      <point x="402" y="-43"/>
      <point x="427" y="37" type="curve"/>
      <point x="507" y="17" type="line"/>
      <point x="467" y="-110"/>
      <point x="378" y="-169"/>
    </contour>
    <contour>
      <point x="344" y="529" type="line"/>
      <point x="439" y="529" type="line"/>
      <point x="420" y="431" type="line"/>
      <point x="325" y="431" type="line"/>
    </contour>
  </outline>
</glyph>
<glyph name="Agrave" format="1">
  <advance width="667"/>
  <unicode hex="00C0"/>
  <outline>
    <contour>
      <point x="622" y="0" type="line"/>
      <point x="527" y="0" type="line"/>
      <point x="490" y="201" type="line"/>
      <point x="178" y="201" type="line"/>
      <point x="61" y="0" type="line"/>
      <point x="-41" y="0" type="line"/>
      <point x="374" y="688" type="line"/>
      <point x="479" y="688" type="line"/>
    </contour>
    <contour>
      <point x="427" y="544" type="line"/>
      <point x="414" y="618" type="line"/>
      <point x="410" y="609"/>
      <point x="404" y="598"/>
      <point x="396" y="584" type="curve" smooth="yes"/>
      <point x="219" y="274" type="line"/>
      <point x="477" y="274" type="line"/>
    </contour>
    <contour>
      <point x="504" y="747" type="line"/>
      <point x="460" y="747" type="line"/>
      <point x="317" y="853" type="line"/>
      <point x="320" y="867" type="line"/>
      <point x="421" y="867" type="line"/>
      <point x="505" y="757" type="line"/>
    </contour>
  </outline>
</glyph>
<glyph name="Aacute" format="1">
  <advance width="667"/>
  <unicode hex="00C1"/>
  <outline>
    <contour>
      <point x="622" y="0" type="line"/>
      <point x="527" y="0" type="line"/>
      <point x="490" y="201" type="line"/>
      <point x="178" y="201" type="line"/>
      <point x="61" y="0" type="line"/>
      <point x="-41" y="0" type="line"/>
      <point x="374" y="688" type="line"/>
      <point x="479" y="688" type="line"/>
    </contour>
    <contour>
      <point x="427" y="544" type="line"/>
      <point x="414" y="618" type="line"/>
      <point x="410" y="609"/>
      <point x="404" y="598"/>
      <point x="396" y="584" type="curve" smooth="yes"/>
      <point x="219" y="274" type="line"/>
      <point x="477" y="274" type="line"/>
    </contour>
    <contour>
      <point x="418" y="747" type="line"/>
      <point x="363" y="747" type="line"/>
      <point x="364" y="757" type="line"/>
      <point x="492" y="867" type="line"/>
      <point x="593" y="867" type="line"/>
      <point x="590" y="853" type="line"/>
    </contour>
  </outline>
</glyph>
<glyph name="Atilde" format="1">
  <advance width="667"/>
  <unicode hex="00C3"/>
  <outline>
    <contour>
      <point x="622" y="0" type="line"/>
      <point x="527" y="0" type="line"/>
      <point x="490" y="201" type="line"/>
      <point x="178" y="201" type="line"/>
      <point x="61" y="0" type="line"/>
      <point x="-41" y="0" type="line"/>
      <point x="374" y="688" type="line"/>
      <point x="479" y="688" type="line"/>
    </contour>
    <contour>
      <point x="427" y="544" type="line"/>
      <point x="414" y="618" type="line"/>
      <point x="410" y="609"/>
      <point x="404" y="598"/>
      <point x="396" y="584" type="curve" smooth="yes"/>
      <point x="219" y="274" type="line"/>
      <point x="477" y="274" type="line"/>
    </contour>
    <contour>
      <point x="506" y="747" type="curve" smooth="yes"/>
      <point x="452" y="747"/>
      <point x="408" y="810"/>
      <point x="369" y="810" type="curve" smooth="yes"/>
      <point x="340" y="810"/>
      <point x="320" y="792"/>
      <point x="304" y="747" type="curve"/>
      <point x="255" y="747" type="line"/>
      <point x="286" y="846"/>
      <point x="323" y="878"/>
      <point x="378" y="878" type="curve" smooth="yes"/>
      <point x="435" y="878"/>
      <point x="476" y="815"/>
      <point x="515" y="815" type="curve" smooth="yes"/>
      <point x="544" y="815"/>
      <point x="566" y="836"/>
      <point x="579" y="878" type="curve"/>
      <point x="629" y="878" type="line"/>
      <point x="618" y="843"/>
      <point x="607" y="817"/>
      <point x="596" y="800" type="curve" smooth="yes"/>
      <point x="576" y="767"/>
      <point x="547" y="747"/>
    </contour>
  </outline>
</glyph>
<glyph name="Idieresis" format="1">
  <advance width="278"/>
  <unicode hex="00CF"/>
  <outline>
    <contour>
      <point x="133" y="0" type="line"/>
      <point x="40" y="0" type="line"/>
      <point x="173" y="688" type="line"/>
      <point x="267" y="688" type="line"/>
    </contour>
    <contour>
      <point x="363" y="747" type="line"/>
      <point x="279" y="747" type="line"/>
      <point x="296" y="837" type="line"/>
      <point x="380" y="837" type="line"/>
    </contour>
    <contour>
      <point x="177" y="747" type="line"/>
      <point x="91" y="747" type="line"/>
      <point x="108" y="837" type="line"/>
      <point x="194" y="837" type="line"/>
    </contour>
  </outline>
</glyph>
<glyph name="Otilde" format="1">
  <advance width="778"/>
  <unicode hex="00D5"/>
  <outline>
    <contour>
      <point x="458" y="698" type="curve" smooth="yes"/>
      <point x="548" y="698"/>
      <point x="619" y="672"/>
      <point x="671" y="621" type="curve" smooth="yes"/>
      <point x="724" y="570"/>
      <point x="750" y="502"/>
      <point x="750" y="416" type="curve" smooth="yes"/>
      <point x="746" y="155"/>
      <point x="577" y="-10"/>
      <point x="346" y="-10" type="curve" smooth="yes"/>
      <point x="162" y="-10"/>
      <point x="54" y="99"/>
      <point x="54" y="280" type="curve" smooth="yes"/>
      <point x="54" y="357"/>
      <point x="71" y="429"/>
      <point x="105" y="494" type="curve" smooth="yes"/>
      <point x="174" y="625"/>
      <point x="303" y="698"/>
    </contour>
    <contour>
      <point x="454" y="623" type="curve" smooth="yes"/>
      <point x="389" y="623"/>
      <point x="333" y="608"/>
      <point x="288" y="579" type="curve" smooth="yes"/>
      <point x="243" y="550"/>
      <point x="208" y="507"/>
      <point x="183" y="449" type="curve" smooth="yes"/>
      <point x="159" y="392"/>
      <point x="147" y="334"/>
      <point x="147" y="275" type="curve" smooth="yes"/>
      <point x="147" y="139"/>
      <point x="218" y="66"/>
      <point x="351" y="66" type="curve" smooth="yes"/>
      <point x="415" y="66"/>
      <point x="469" y="80"/>
      <point x="514" y="108" type="curve" smooth="yes"/>
      <point x="559" y="136"/>
      <point x="594" y="178"/>
      <point x="619" y="234" type="curve" smooth="yes"/>
      <point x="644" y="291"/>
      <point x="657" y="351"/>
      <point x="657" y="414" type="curve" smooth="yes"/>
      <point x="657" y="549"/>
      <point x="583" y="623"/>
    </contour>
    <contour>
      <point x="555" y="747" type="curve"/>
      <point x="499" y="747"/>
      <point x="458" y="810"/>
      <point x="417" y="810" type="curve" smooth="yes"/>
      <point x="388" y="810"/>
      <point x="369" y="792"/>
      <point x="353" y="747" type="curve"/>
      <point x="304" y="747" type="line"/>
      <point x="335" y="846"/>
      <point x="373" y="878"/>
      <point x="426" y="878" type="curve" smooth="yes"/>
      <point x="485" y="878"/>
      <point x="523" y="815"/>
      <point x="563" y="815" type="curve" smooth="yes"/>
      <point x="592" y="815"/>
      <point x="614" y="836"/>
      <point x="627" y="878" type="curve"/>
      <point x="677" y="878" type="line"/>
      <point x="644" y="776"/>
      <point x="617" y="753"/>
    </contour>
  </outline>
</glyph>
<glyph name="multiply" format="1">
  <advance width="584"/>
  <unicode hex="00D7"/>
  <outline>
    <contour>
      <point x="134" y="110" type="line"/>
      <point x="84" y="161" type="line"/>
      <point x="257" y="334" type="line"/>
      <point x="85" y="506" type="line"/>
      <point x="136" y="556" type="line"/>
      <point x="307" y="384" type="line"/>
      <point x="478" y="555" type="line"/>
      <point x="529" y="504" type="line"/>
      <point x="358" y="334" type="line"/>
      <point x="530" y="162" type="line"/>
      <point x="480" y="111" type="line"/>
      <point x="308" y="283" type="line"/>
    </contour>
  </outline>
</glyph>
<glyph name="Yacute" format="1">
  <advance width="667"/>
  <unicode hex="00DD"/>
  <outline>
    <contour>
      <point x="383" y="285" type="line"/>
      <point x="328" y="0" type="line"/>
      <point x="235" y="0" type="line"/>
      <point x="292" y="285" type="line"/>
      <point x="104" y="688" type="line"/>
      <point x="200" y="688" type="line"/>
      <point x="349" y="359" type="line"/>
      <point x="623" y="688" type="line"/>
      <point x="727" y="688" type="line"/>
    </contour>
    <contour>
      <point x="398" y="747" type="line"/>
      <point x="343" y="747" type="line"/>
      <point x="344" y="757" type="line"/>
      <point x="472" y="867" type="line"/>
      <point x="573" y="867" type="line"/>
      <point x="570" y="853" type="line"/>
    </contour>
  </outline>
</glyph>
<glyph name="iacute" format="1">
  <advance width="278"/>
  <unicode hex="00ED"/>
  <outline>
    <contour>
      <point x="131" y="0" type="line"/>
      <point x="43" y="0" type="line"/>
      <point x="146" y="528" type="line"/>
      <point x="234" y="528" type="line"/>
    </contour>
    <contour>
      <point x="174" y="586" type="line"/>
      <point x="128" y="586" type="line"/>
      <point x="129" y="596" type="line"/>
      <point x="253" y="736" type="line"/>
      <point x="359" y="736" type="line"/>
      <point x="356" y="722" type="line"/>
    </contour>
  </outline>
</glyph>
<glyph name="ntilde" format="1">
  <advance width="556"/>
  <unicode hex="00F1"/>
  <outline>
    <contour>
      <point x="438" y="0" type="line"/>
      <point x="350" y="0" type="line"/>
      <point x="412" y="315" type="line" smooth="yes"/>
      <point x="417" y="344"/>
      <point x="420" y="368"/>
      <point x="420" y="388" type="curve" smooth="yes"/>
      <point x="420" y="443"/>
      <point x="391" y="470"/>
      <point x="333" y="470" type="curve" smooth="yes"/>
      <point x="250" y="470"/>
      <point x="183" y="403"/>
      <point x="162" y="296" type="curve" smooth="yes"/>
      <point x="104" y="0" type="line"/>
      <point x="17" y="0" type="line"/>
      <point x="98" y="416" type="line" smooth="yes"/>
      <point x="104" y="447"/>
      <point x="110" y="484"/>
      <point x="117" y="528" type="curve"/>
      <point x="200" y="528" type="line" smooth="yes"/>
      <point x="200" y="525"/>
      <point x="198" y="512"/>
      <point x="194" y="490" type="curve" smooth="yes"/>
      <point x="186" y="438" type="line"/>
      <point x="188" y="438" type="line"/>
      <point x="241" y="513"/>
      <point x="291" y="538"/>
      <point x="366" y="538" type="curve" smooth="yes"/>
      <point x="462" y="538"/>
      <point x="511" y="488"/>
      <point x="511" y="399" type="curve" smooth="yes"/>
      <point x="511" y="378"/>
      <point x="507" y="352"/>
      <point x="500" y="319" type="curve" smooth="yes"/>
    </contour>
    <contour>
      <point x="412" y="586" type="curve" smooth="yes"/>
      <point x="356" y="586"/>
      <point x="316" y="645"/>
      <point x="274" y="645" type="curve" smooth="yes"/>
      <point x="242" y="645"/>
      <point x="219" y="625"/>
      <point x="205" y="586" type="curve"/>
      <point x="161" y="586" type="line"/>
      <point x="192" y="686"/>
      <point x="229" y="717"/>
      <point x="284" y="717" type="curve" smooth="yes"/>
      <point x="340" y="717"/>
      <point x="382" y="659"/>
      <point x="421" y="659" type="curve" smooth="yes"/>
      <point x="454" y="659"/>
      <point x="477" y="678"/>
      <point x="490" y="717" type="curve"/>
      <point x="535" y="717" type="line"/>
      <point x="524" y="682"/>
      <point x="513" y="656"/>
      <point x="502" y="639" type="curve" smooth="yes"/>
      <point x="481" y="607"/>
      <point x="452" y="586"/>
    </contour>
  </outline>
</glyph>
<glyph name="ocircumflex" format="1">
  <advance width="556"/>
  <unicode hex="00F4"/>
  <outline>
    <contour>
      <point x="527" y="333" type="curve" smooth="yes"/>
      <point x="527" y="249"/>
      <point x="500" y="149"/>
      <point x="452" y="85" type="curve" smooth="yes"/>
      <point x="404" y="22"/>
      <point x="332" y="-10"/>
      <point x="243" y="-10" type="curve" smooth="yes"/>
      <point x="115" y="-10"/>
      <point x="36" y="72"/>
      <point x="36" y="205" type="curve"/>
      <point x="42" y="404"/>
      <point x="140" y="542"/>
      <point x="316" y="538" type="curve" smooth="yes"/>
      <point x="453" y="538"/>
      <point x="527" y="464"/>
    </contour>
    <contour>
      <point x="437" y="333" type="curve"/>
      <point x="437" y="426"/>
      <point x="396" y="473"/>
      <point x="315" y="473" type="curve" smooth="yes"/>
      <point x="272" y="473"/>
      <point x="237" y="462"/>
      <point x="210" y="439" type="curve" smooth="yes"/>
      <point x="183" y="416"/>
      <point x="163" y="382"/>
      <point x="148" y="336" type="curve" smooth="yes"/>
      <point x="133" y="291"/>
      <point x="126" y="246"/>
      <point x="126" y="203" type="curve" smooth="yes"/>
      <point x="126" y="107"/>
      <point x="168" y="55"/>
      <point x="248" y="55" type="curve" smooth="yes"/>
      <point x="315" y="55"/>
      <point x="351" y="77"/>
      <point x="382" y="125" type="curve" smooth="yes"/>
      <point x="413" y="173"/>
      <point x="433" y="252"/>
    </contour>
    <contour>
      <point x="409" y="728" type="line"/>
      <point x="493" y="596" type="line"/>
      <point x="491" y="586" type="line"/>
      <point x="446" y="586" type="line"/>
      <point x="355" y="669" type="line"/>
      <point x="354" y="669" type="line"/>
      <point x="225" y="586" type="line"/>
      <point x="168" y="586" type="line"/>
      <point x="170" y="596" type="line"/>
      <point x="310" y="728" type="line"/>
    </contour>
  </outline>
</glyph>
<glyph name="Ccircumflex" format="1">
  <advance width="722"/>
  <unicode hex="0108"/>
  <outline>
    <contour>
      <point x="593" y="208" type="curve"/>
      <point x="663" y="165" type="line"/>
      <point x="582" y="42"/>
      <point x="479" y="-10"/>
      <point x="342" y="-10" type="curve" smooth="yes"/>
      <point x="162" y="-10"/>
      <point x="55" y="104"/>
      <point x="55" y="278" type="curve" smooth="yes"/>
      <point x="55" y="358"/>
      <point x="72" y="430"/>
      <point x="106" y="495" type="curve" smooth="yes"/>
      <point x="175" y="624"/>
      <point x="303" y="698"/>
      <point x="452" y="698" type="curve" smooth="yes"/>
      <point x="593" y="698"/>
      <point x="696" y="637"/>
      <point x="728" y="530" type="curve"/>
      <point x="640" y="503" type="line"/>
      <point x="616" y="576"/>
      <point x="546" y="622"/>
      <point x="447" y="622" type="curve" smooth="yes"/>
      <point x="266" y="622"/>
      <point x="147" y="483"/>
      <point x="147" y="276" type="curve" smooth="yes"/>
      <point x="147" y="147"/>
      <point x="223" y="66"/>
      <point x="348" y="66" type="curve" smooth="yes"/>
      <point x="444" y="66"/>
      <point x="529" y="115"/>
    </contour>
    <contour>
      <point x="543" y="874" type="line"/>
      <point x="629" y="757" type="line"/>
      <point x="627" y="747" type="line"/>
      <point x="581" y="747" type="line"/>
      <point x="487" y="815" type="line"/>
      <point x="486" y="815" type="line"/>
      <point x="360" y="747" type="line"/>
      <point x="305" y="747" type="line"/>
      <point x="307" y="757" type="line"/>
      <point x="443" y="874" type="line"/>
    </contour>
  </outline>
</glyph>
<glyph name="Emacron" format="1">
  <advance width="667"/>
  <unicode hex="0112"/>
  <outline>
    <contour>
      <point x="563" y="0" type="line"/>
      <point x="31" y="0" type="line"/>
      <point x="164" y="688" type="line"/>
      <point x="676" y="688" type="line"/>
      <point x="662" y="612" type="line"/>
      <point x="243" y="612" type="line"/>
      <point x="200" y="391" type="line"/>
      <point x="589" y="391" type="line"/>
      <point x="575" y="316" type="line"/>
      <point x="185" y="316" type="line"/>
      <point x="139" y="76" type="line"/>
      <point x="578" y="76" type="line"/>
    </contour>
    <contour>
      <point x="578" y="829" type="line"/>
      <point x="565" y="767" type="line"/>
      <point x="297" y="767" type="line"/>
      <point x="310" y="829" type="line"/>
    </contour>
  </outline>
</glyph>
<glyph name="Eogonek" format="1">
  <advance width="667"/>
  <unicode hex="0118"/>
  <outline>
    <contour>
      <point x="563" y="0" type="line"/>
      <point x="31" y="0" type="line"/>
      <point x="164" y="688" type="line"/>
      <point x="676" y="688" type="line"/>
      <point x="662" y="612" type="line"/>
      <point x="243" y="612" type="line"/>
      <point x="200" y="391" type="line"/>
      <point x="589" y="391" type="line"/>
      <point x="575" y="316" type="line"/>
      <point x="185" y="316" type="line"/>
      <point x="139" y="76" type="line"/>
      <point x="578" y="76" type="line"/>
    </contour>
    <contour>
      <point x="420" y="-208" type="curve" smooth="yes"/>
      <point x="363" y="-208"/>
      <point x="333" y="-175"/>
      <point x="333" y="-126" type="curve" smooth="yes"/>
      <point x="333" y="-73"/>
      <point x="374" y="-23"/>
      <point x="433" y="0" type="curve"/>
      <point x="498" y="0" type="line"/>
      <point x="438" y="-31"/>
      <point x="404" y="-74"/>
      <point x="404" y="-115" type="curve" smooth="yes"/>
      <point x="404" y="-138"/>
      <point x="417" y="-155"/>
      <point x="442" y="-155" type="curve" smooth="yes"/>
      <point x="459" y="-155"/>
      <point x="478" y="-151"/>
      <point x="498" y="-144" type="curve"/>
      <point x="490" y="-195" type="line"/>
      <point x="469" y="-204"/>
      <point x="445" y="-208"/>
    </contour>
  </outline>
</glyph>
<glyph name="eogonek" format="1">
  <advance width="556"/>
  <unicode hex="0119"/>
  <outline>
    <contour>
      <point x="507" y="246" type="curve"/>
      <point x="125" y="246" type="line"/>
      <point x="123" y="235"/>
      <point x="122" y="216"/>
      <point x="121" y="190" type="curve" smooth="yes"/>
      <point x="121" y="103"/>
      <point x="164" y="56"/>
      <point x="251" y="56" type="curve" smooth="yes"/>
      <point x="314" y="56"/>
      <point x="368" y="89"/>
      <point x="397" y="144" type="curve"/>
      <point x="464" y="113" type="line"/>
      <point x="417" y="28"/>
      <point x="345" y="-10"/>
      <point x="241" y="-10" type="curve" smooth="yes"/>
      <point x="110" y="-10"/>
      <point x="34" y="66"/>
      <point x="34" y="198" type="curve" smooth="yes"/>
      <point x="31" y="394"/>
      <point x="150" y="542"/>
      <point x="308" y="538" type="curve" smooth="yes"/>
      <point x="441" y="538"/>
      <point x="519" y="469"/>
      <point x="519" y="346" type="curve" smooth="yes"/>
      <point x="519" y="311"/>
      <point x="515" y="278"/>
    </contour>
    <contour>
      <point x="137" y="313" type="curve"/>
      <point x="430" y="313" type="line"/>
      <point x="432" y="348" type="line"/>
      <point x="432" y="429"/>
      <point x="389" y="473"/>
      <point x="310" y="473" type="curve" smooth="yes"/>
      <point x="222" y="473"/>
      <point x="161" y="416"/>
    </contour>
    <contour>
      <point x="274" y="-199" type="curve" smooth="yes"/>
      <point x="217" y="-199"/>
      <point x="188" y="-165"/>
      <point x="188" y="-117" type="curve" smooth="yes"/>
      <point x="188" y="-62"/>
      <point x="228" y="-13"/>
      <point x="288" y="10" type="curve"/>
      <point x="353" y="10" type="line"/>
      <point x="292" y="-22"/>
      <point x="258" y="-65"/>
      <point x="258" y="-105" type="curve" smooth="yes"/>
      <point x="258" y="-128"/>
      <point x="272" y="-145"/>
      <point x="296" y="-145" type="curve" smooth="yes"/>
      <point x="314" y="-145"/>
      <point x="333" y="-141"/>
      <point x="352" y="-134" type="curve"/>
      <point x="345" y="-186" type="line"/>
      <point x="323" y="-195"/>
      <point x="299" y="-199"/>
    </contour>
  </outline>
</glyph>
<glyph name="Gbreve" format="1">
  <advance width="778"/>
  <unicode hex="011E"/>
  <outline>
    <contour>
      <point x="362" y="-10" type="curve" smooth="yes"/>
      <point x="163" y="-10"/>
      <point x="49" y="97"/>
      <point x="49" y="280" type="curve" smooth="yes"/>
      <point x="45" y="522"/>
      <point x="219" y="703"/>
      <point x="461" y="698" type="curve" smooth="yes"/>
      <point x="605" y="698"/>
      <point x="699" y="643"/>
      <point x="735" y="536" type="curve"/>
      <point x="641" y="510" type="line"/>
      <point x="617" y="585"/>
      <point x="552" y="622"/>
      <point x="455" y="622" type="curve" smooth="yes"/>
      <point x="265" y="622"/>
      <point x="145" y="486"/>
      <point x="145" y="282" type="curve" smooth="yes"/>
      <point x="145" y="145"/>
      <point x="225" y="66"/>
      <point x="365" y="66" type="curve" smooth="yes"/>
      <point x="456" y="66"/>
      <point x="541" y="91"/>
      <point x="601" y="142" type="curve"/>
      <point x="626" y="266" type="line"/>
      <point x="420" y="266" type="line"/>
      <point x="436" y="344" type="line"/>
      <point x="728" y="344" type="line"/>
      <point x="679" y="103" type="line"/>
      <point x="587" y="24"/>
      <point x="487" y="-10"/>
    </contour>
    <contour>
      <point x="467" y="742" type="curve" smooth="yes"/>
      <point x="380" y="742"/>
      <point x="323" y="792"/>
      <point x="322" y="864" type="curve"/>
      <point x="379" y="864" type="line"/>
      <point x="380" y="825"/>
      <point x="418" y="809"/>
      <point x="471" y="809" type="curve" smooth="yes"/>
      <point x="530" y="809"/>
      <point x="569" y="827"/>
      <point x="590" y="864" type="curve"/>
      <point x="647" y="864" type="line"/>
      <point x="614" y="785"/>
      <point x="548" y="742"/>
    </contour>
  </outline>
</glyph>
<glyph name="Hbar" format="1">
  <advance width="722"/>
  <unicode hex="0126"/>
  <outline>
    <contour>
      <point x="589" y="0" type="line"/>
      <point x="498" y="0" type="line"/>
      <point x="560" y="319" type="line"/>
      <point x="185" y="319" type="line"/>
      <point x="124" y="0" type="line"/>
      <point x="30" y="0" type="line"/>
      <point x="127" y="500" type="line"/>
      <point x="52" y="500" type="line"/>
      <point x="67" y="576" type="line"/>
      <point x="142" y="576" type="line"/>
      <point x="164" y="688" type="line"/>
      <point x="257" y="688" type="line"/>
      <point x="235" y="576" type="line"/>
      <point x="610" y="576" type="line"/>
      <point x="631" y="688" type="line"/>
      <point x="722" y="688" type="line"/>
      <point x="701" y="576" type="line"/>
      <point x="775" y="576" type="line"/>
      <point x="761" y="500" type="line"/>
      <point x="686" y="500" type="line"/>
    </contour>
    <contour>
      <point x="201" y="397" type="line"/>
      <point x="575" y="397" type="line"/>
      <point x="595" y="500" type="line"/>
      <point x="221" y="500" type="line"/>
    </contour>
  </outline>
</glyph>
<glyph name="Itilde" format="1">
  <advance width="278"/>
  <unicode hex="0128"/>
  <outline>
    <contour>
      <point x="133" y="0" type="line"/>
      <point x="40" y="0" type="line"/>
      <point x="173" y="688" type="line"/>
      <point x="267" y="688" type="line"/>
    </contour>
    <contour>
      <point x="311" y="747" type="curve"/>
      <point x="256" y="747"/>
      <point x="214" y="810"/>
      <point x="174" y="810" type="curve" smooth="yes"/>
      <point x="143" y="810"/>
      <point x="125" y="792"/>
      <point x="109" y="747" type="curve"/>
      <point x="60" y="747" type="line"/>
      <point x="91" y="846"/>
      <point x="128" y="878"/>
      <point x="183" y="878" type="curve" smooth="yes"/>
      <point x="239" y="878"/>
      <point x="281" y="815"/>
      <point x="319" y="815" type="curve" smooth="yes"/>
      <point x="349" y="815"/>
      <point x="371" y="836"/>
      <point x="384" y="878" type="curve"/>
      <point x="434" y="878" type="line"/>
      <point x="400" y="776"/>
      <point x="373" y="753"/>
    </contour>
  </outline>
</glyph>
<glyph name="itilde" format="1">
  <advance width="222"/>
  <unicode hex="0129"/>
  <outline>
    <contour>
      <point x="104" y="0" type="line"/>
      <point x="17" y="0" type="line"/>
      <point x="119" y="528" type="line"/>
      <point x="207" y="528" type="line"/>
    </contour>
    <contour>
      <point x="244" y="586" type="curve" smooth="yes"/>
      <point x="190" y="586"/>
      <point x="147" y="645"/>
      <point x="106" y="645" type="curve" smooth="yes"/>
      <point x="74" y="645"/>
      <point x="51" y="625"/>
      <point x="37" y="586" type="curve"/>
      <point x="-7" y="586" type="line"/>
      <point x="24" y="686"/>
      <point x="61" y="717"/>
      <point x="116" y="717" type="curve" smooth="yes"/>
      <point x="172" y="717"/>
      <point x="214" y="659"/>
      <point x="253" y="659" type="curve" smooth="yes"/>
      <point x="286" y="659"/>
      <point x="309" y="678"/>
      <point x="322" y="717" type="curve"/>
      <point x="367" y="717" type="line"/>
      <point x="356" y="682"/>
      <point x="345" y="656"/>
      <point x="334" y="639" type="curve" smooth="yes"/>
      <point x="313" y="607"/>
      <point x="284" y="586"/>
    </contour>
  </outline>
</glyph>
<glyph name="imacron" format="1">
  <advance width="222"/>
  <unicode hex="012B"/>
  <outline>
    <contour>
      <point x="104" y="0" type="line"/>
      <point x="17" y="0" type="line"/>
      <point x="119" y="528" type="line"/>
      <point x="207" y="528" type="line"/>
    </contour>
    <contour>
      <point x="320" y="666" type="line"/>
      <point x="308" y="604" type="line"/>
      <point x="39" y="604" type="line"/>
      <point x="52" y="666" type="line"/>
    </contour>
  </outline>
</glyph>
<glyph name="Ibreve" format="1">
  <advance width="278"/>
  <unicode hex="012C"/>
  <outline>
    <contour>
      <point x="133" y="0" type="line"/>
      <point x="40" y="0" type="line"/>
      <point x="173" y="688" type="line"/>
      <point x="267" y="688" type="line"/>
    </contour>
    <contour>
      <point x="227" y="742" type="curve" smooth="yes"/>
      <point x="140" y="742"/>
      <point x="83" y="792"/>
      <point x="82" y="864" type="curve"/>
      <point x="139" y="864" type="line"/>
      <point x="140" y="825"/>
      <point x="176" y="809"/>
      <point x="231" y="809" type="curve" smooth="yes"/>
      <point x="289" y="809"/>
      <point x="329" y="827"/>
      <point x="350" y="864" type="curve"/>
      <point x="407" y="864" type="line"/>
      <point x="372" y="785"/>
      <point x="308" y="742"/>
    </contour>
  </outline>
</glyph>
<glyph name="Iogonek" format="1">
  <advance width="278"/>
  <unicode hex="012E"/>
  <outline>
    <contour>
      <point x="133" y="0" type="line"/>
      <point x="40" y="0" type="line"/>
      <point x="173" y="688" type="line"/>
      <point x="267" y="688" type="line"/>
    </contour>
    <contour>
      <point x="56" y="-208" type="curve" smooth="yes"/>
      <point x="-1" y="-208"/>
      <point x="-31" y="-175"/>
      <point x="-31" y="-126" type="curve" smooth="yes"/>
      <point x="-31" y="-73"/>
      <point x="9" y="-23"/>
      <point x="69" y="0" type="curve"/>
      <point x="134" y="0" type="line"/>
      <point x="73" y="-31"/>
      <point x="40" y="-74"/>
      <point x="40" y="-115" type="curve" smooth="yes"/>
      <point x="40" y="-138"/>
      <point x="53" y="-155"/>
      <point x="78" y="-155" type="curve" smooth="yes"/>
      <point x="95" y="-155"/>
      <point x="114" y="-151"/>
      <point x="133" y="-144" type="curve"/>
      <point x="126" y="-195" type="line"/>
      <point x="104" y="-204"/>
      <point x="81" y="-208"/>
    </contour>
  </outline>
</glyph>
<glyph name="IJ" format="1">
  <advance width="733"/>
  <unicode hex="0132"/>
  <outline>
    <contour>
      <point x="133" y="0" type="line"/>
      <point x="40" y="0" type="line"/>
      <point x="173" y="688" type="line"/>
      <point x="267" y="688" type="line"/>
    </contour>
    <contour>
      <point x="419" y="-10" type="curve" smooth="yes"/>
      <point x="316" y="-10"/>
      <point x="248" y="52"/>
      <point x="231" y="167" type="curve"/>
      <point x="313" y="184" type="line"/>
      <point x="328" y="107"/>
      <point x="363" y="66"/>
      <point x="428" y="66" type="curve" smooth="yes"/>
      <point x="496" y="66"/>
      <point x="537" y="111"/>
      <point x="557" y="215" type="curve" smooth="yes"/>
      <point x="634" y="612" type="line"/>
      <point x="492" y="612" type="line"/>
      <point x="506" y="688" type="line"/>
      <point x="741" y="688" type="line"/>
      <point x="647" y="207" type="line" smooth="yes"/>
      <point x="619" y="60"/>
      <point x="547" y="-10"/>
    </contour>
  </outline>
</glyph>
<glyph name="Jcircumflex" format="1">
  <advance width="500"/>
  <unicode hex="0134"/>
  <outline>
    <contour>
      <point x="186" y="-10" type="curve" smooth="yes"/>
      <point x="82" y="-10"/>
      <point x="14" y="52"/>
      <point x="-2" y="167" type="curve"/>
      <point x="80" y="184" type="line"/>
      <point x="95" y="107"/>
      <point x="130" y="66"/>
      <point x="194" y="66" type="curve" smooth="yes"/>
      <point x="263" y="66"/>
      <point x="304" y="111"/>
      <point x="324" y="215" type="curve" smooth="yes"/>
      <point x="400" y="612" type="line"/>
      <point x="258" y="612" type="line"/>
      <point x="273" y="688" type="line"/>
      <point x="508" y="688" type="line"/>
      <point x="414" y="207" type="line" smooth="yes"/>
      <point x="386" y="60"/>
      <point x="313" y="-10"/>
    </contour>
    <contour>
      <point x="485" y="874" type="line"/>
      <point x="572" y="757" type="line"/>
      <point x="570" y="747" type="line"/>
      <point x="523" y="747" type="line"/>
      <point x="430" y="815" type="line"/>
      <point x="429" y="815" type="line"/>
      <point x="302" y="747" type="line"/>
      <point x="247" y="747" type="line"/>
      <point x="249" y="757" type="line"/>
      <point x="386" y="874" type="line"/>
    </contour>
  </outline>
</glyph>
<glyph name="jcircumflex" format="1">
  <advance width="222"/>
  <unicode hex="0135"/>
  <outline>
    <contour>
      <point x="243" y="728" type="line"/>
      <point x="327" y="596" type="line"/>
      <point x="325" y="586" type="line"/>
      <point x="280" y="586" type="line"/>
      <point x="189" y="669" type="line"/>
      <point x="188" y="669" type="line"/>
      <point x="59" y="586" type="line"/>
      <point x="2" y="586" type="line"/>
      <point x="4" y="596" type="line"/>
      <point x="144" y="728" type="line"/>
    </contour>
    <contour>
      <point x="-49" y="-208" type="curve" smooth="yes"/>
      <point x="-67" y="-208"/>
      <point x="-88" y="-206"/>
      <point x="-112" y="-201" type="curve"/>
      <point x="-101" y="-134" type="line"/>
      <point x="-84" y="-137"/>
      <point x="-70" y="-138"/>
      <point x="-60" y="-138" type="curve" smooth="yes"/>
      <point x="-21" y="-138"/>
      <point x="-5" y="-112"/>
      <point x="6" y="-52" type="curve" smooth="yes"/>
      <point x="119" y="528" type="line"/>
      <point x="207" y="528" type="line"/>
      <point x="91" y="-65" type="line" smooth="yes"/>
      <point x="71" y="-169"/>
      <point x="27" y="-208"/>
    </contour>
  </outline>
</glyph>
<glyph name="lcaron" format="1">
  <advance width="281"/>
  <unicode hex="013E"/>
  <outline>
    <contour>
      <point x="104" y="0" type="line"/>
      <point x="16" y="0" type="line"/>
      <point x="157" y="725" type="line"/>
      <point x="245" y="725" type="line"/>
    </contour>
    <contour>
      <point x="311" y="550" type="curve"/>
      <point x="254" y="550" type="line"/>
      <point x="291" y="583"/>
      <point x="313" y="614"/>
      <point x="318" y="643" type="curve"/>
      <point x="275" y="643" type="line"/>
      <point x="291" y="725" type="line"/>
      <point x="386" y="725" type="line"/>
      <point x="376" y="673" type="line" smooth="yes"/>
      <point x="365" y="616"/>
      <point x="343" y="581"/>
    </contour>
  </outline>
</glyph>
<glyph name="ldot" format="1">
  <advance width="400"/>
  <unicode hex="0140"/>
  <outline>
    <contour>
      <point x="104" y="0" type="line"/>
      <point x="16" y="0" type="line"/>
      <point x="157" y="725" type="line"/>
      <point x="245" y="725" type="line"/>
    </contour>
    <contour>
      <point x="353" y="335" type="line"/>
      <point x="265" y="335" type="line"/>
      <point x="282" y="419" type="line"/>
      <point x="370" y="419" type="line"/>
    </contour>
  </outline>
</glyph>
<glyph name="Lslash" format="1">
  <advance width="556"/>
  <unicode hex="0141"/>
  <outline>
    <contour>
      <point x="184" y="316" type="line"/>
      <point x="138" y="76" type="line"/>
      <point x="485" y="76" type="line"/>
      <point x="470" y="0" type="line"/>
      <point x="29" y="0" type="line"/>
      <point x="81" y="263" type="line"/>
      <point x="1" y="221" type="line"/>
      <point x="15" y="298" type="line"/>
      <point x="96" y="340" type="line"/>
      <point x="163" y="688" type="line"/>
      <point x="256" y="688" type="line"/>
      <point x="199" y="394" type="line"/>
      <point x="349" y="466" type="line"/>
      <point x="333" y="389" type="line"/>
    </contour>
  </outline>
</glyph>
<glyph name="Eng" format="1">
  <advance width="723"/>
  <unicode hex="014A"/>
  <outline>
    <contour>
      <point x="416" y="-10" type="curve" smooth="yes"/>
      <point x="344" y="-10"/>
      <point x="292" y="22"/>
      <point x="264" y="66" type="curve"/>
      <point x="333" y="119" type="line"/>
      <point x="354" y="87"/>
      <point x="387" y="65"/>
      <point x="422" y="65" type="curve" smooth="yes"/>
      <point x="445" y="65"/>
      <point x="465" y="71"/>
      <point x="480" y="82" type="curve" smooth="yes"/>
      <point x="495" y="94"/>
      <point x="508" y="113"/>
      <point x="519" y="138" type="curve" smooth="yes"/>
      <point x="530" y="163"/>
      <point x="541" y="206"/>
      <point x="553" y="267" type="curve" smooth="yes"/>
      <point x="588" y="451" type="line" smooth="yes"/>
      <point x="593" y="474"/>
      <point x="595" y="494"/>
      <point x="595" y="512" type="curve" smooth="yes"/>
      <point x="595" y="585"/>
      <point x="550" y="622"/>
      <point x="461" y="622" type="curve" smooth="yes"/>
      <point x="346" y="625"/>
      <point x="225" y="533"/>
      <point x="208" y="435" type="curve" smooth="yes"/>
      <point x="124" y="0" type="line"/>
      <point x="31" y="0" type="line"/>
      <point x="134" y="533" type="line"/>
      <point x="162" y="688" type="line"/>
      <point x="252" y="688" type="line"/>
      <point x="248" y="659"/>
      <point x="241" y="618"/>
      <point x="232" y="565" type="curve"/>
      <point x="234" y="565" type="line"/>
      <point x="297" y="652"/>
      <point x="384" y="698"/>
      <point x="487" y="698" type="curve" smooth="yes"/>
      <point x="621" y="698"/>
      <point x="688" y="640"/>
      <point x="688" y="523" type="curve" smooth="yes"/>
      <point x="688" y="498"/>
      <point x="685" y="471"/>
      <point x="679" y="441" type="curve" smooth="yes"/>
      <point x="645" y="265" type="line" smooth="yes"/>
      <point x="628" y="178"/>
      <point x="611" y="119"/>
      <point x="594" y="86" type="curve" smooth="yes"/>
      <point x="559" y="21"/>
      <point x="505" y="-10"/>
    </contour>
  </outline>
</glyph>
<glyph name="rcommaaccent" format="1">
  <advance width="333"/>
  <unicode hex="0157"/>
  <outline>
    <contour>
      <point x="367" y="531" type="curve"/>
      <point x="351" y="458" type="line"/>
      <point x="336" y="462"/>
      <point x="322" y="464"/>
      <point x="307" y="464" type="curve" smooth="yes"/>
      <point x="272" y="464"/>
      <point x="241" y="446"/>
      <point x="214" y="410" type="curve" smooth="yes"/>
      <point x="187" y="375"/>
      <point x="168" y="330"/>
      <point x="158" y="275" type="curve" smooth="yes"/>
      <point x="104" y="0" type="line"/>
      <point x="17" y="0" type="line"/>
      <point x="96" y="405" type="line"/>
      <point x="108" y="473" type="line"/>
      <point x="117" y="528" type="line"/>
      <point x="200" y="528" type="line"/>
      <point x="183" y="420" type="line"/>
      <point x="185" y="420" type="line"/>
      <point x="228" y="507"/>
      <point x="265" y="538"/>
      <point x="320" y="538" type="curve" smooth="yes"/>
      <point x="335" y="538"/>
      <point x="351" y="536"/>
    </contour>
    <contour>
      <point x="31" y="-222" type="curve"/>
      <point x="-26" y="-222" type="line"/>
      <point x="11" y="-189"/>
      <point x="33" y="-158"/>
      <point x="38" y="-129" type="curve"/>
      <point x="-5" y="-129" type="line"/>
      <point x="11" y="-48" type="line"/>
      <point x="106" y="-48" type="line"/>
      <point x="96" y="-100" type="line" smooth="yes"/>
      <point x="85" y="-156"/>
      <point x="63" y="-191"/>
    </contour>
  </outline>
</glyph>
<glyph name="tcommaaccent" format="1">
  <advance width="278"/>
  <unicode hex="0163"/>
  <outline>
    <contour>
      <point x="134" y="-10" type="curve" smooth="yes"/>
      <point x="79" y="-10"/>
      <point x="45" y="26"/>
      <point x="45" y="81" type="curve" smooth="yes"/>
      <point x="45" y="99"/>
      <point x="48" y="120"/>
      <point x="53" y="145" type="curve" smooth="yes"/>
      <point x="114" y="464" type="line"/>
      <point x="53" y="464" type="line"/>
      <point x="66" y="528" type="line"/>
      <point x="128" y="528" type="line"/>
      <point x="179" y="646" type="line"/>
      <point x="238" y="646" type="line"/>
      <point x="215" y="528" type="line"/>
      <point x="313" y="528" type="line"/>
      <point x="300" y="464" type="line"/>
      <point x="202" y="464" type="line"/>
      <point x="141" y="149" type="line" smooth="yes"/>
      <point x="137" y="130"/>
      <point x="135" y="114"/>
      <point x="135" y="103" type="curve" smooth="yes"/>
      <point x="135" y="74"/>
      <point x="150" y="60"/>
      <point x="179" y="60" type="curve" smooth="yes"/>
      <point x="193" y="60"/>
      <point x="209" y="62"/>
      <point x="228" y="67" type="curve"/>
      <point x="219" y="2" type="line"/>
      <point x="186" y="-6"/>
      <point x="158" y="-10"/>
    </contour>
    <contour>
      <point x="156" y="0" type="line"/>
      <point x="127" y="-47" type="line"/>
      <point x="180" y="-50"/>
      <point x="207" y="-74"/>
      <point x="207" y="-113" type="curve" smooth="yes"/>
      <point x="207" y="-176"/>
      <point x="158" y="-208"/>
      <point x="59" y="-208" type="curve" smooth="yes"/>
      <point x="42" y="-208"/>
      <point x="25" y="-207"/>
      <point x="7" y="-204" type="curve"/>
      <point x="17" y="-160" type="line"/>
      <point x="33" y="-162"/>
      <point x="47" y="-163"/>
      <point x="60" y="-163" type="curve" smooth="yes"/>
      <point x="119" y="-163"/>
      <point x="141" y="-148"/>
      <point x="141" y="-119" type="curve" smooth="yes"/>
      <point x="141" y="-96"/>
      <point x="122" y="-84"/>
      <point x="83" y="-84" type="curve" smooth="yes"/>
      <point x="69" y="-84"/>
      <point x="60" y="-84"/>
      <point x="55" y="-85" type="curve" smooth="yes"/>
      <point x="104" y="0" type="line"/>
    </contour>
  </outline>
</glyph>
<glyph name="Utilde" format="1">
  <advance width="722"/>
  <unicode hex="0168"/>
  <outline>
    <contour>
      <point x="319" y="-10" type="curve" smooth="yes"/>
      <point x="168" y="-10"/>
      <point x="75" y="74"/>
      <point x="75" y="210" type="curve" smooth="yes"/>
      <point x="75" y="239"/>
      <point x="81" y="286"/>
      <point x="86" y="310" type="curve" smooth="yes"/>
      <point x="159" y="688" type="line"/>
      <point x="252" y="688" type="line"/>
      <point x="173" y="276" type="line" smooth="yes"/>
      <point x="168" y="248"/>
      <point x="165" y="225"/>
      <point x="165" y="207" type="curve" smooth="yes"/>
      <point x="165" y="118"/>
      <point x="224" y="66"/>
      <point x="327" y="66" type="curve" smooth="yes"/>
      <point x="452" y="66"/>
      <point x="527" y="132"/>
      <point x="552" y="264" type="curve" smooth="yes"/>
      <point x="634" y="688" type="line"/>
      <point x="727" y="688" type="line"/>
      <point x="644" y="259" type="line" smooth="yes"/>
      <point x="609" y="80"/>
      <point x="499" y="-10"/>
    </contour>
    <contour>
      <point x="533" y="747" type="curve"/>
      <point x="477" y="747"/>
      <point x="435" y="810"/>
      <point x="396" y="810" type="curve" smooth="yes"/>
      <point x="365" y="810"/>
      <point x="347" y="792"/>
      <point x="331" y="747" type="curve"/>
      <point x="282" y="747" type="line"/>
      <point x="313" y="846"/>
      <point x="351" y="878"/>
      <point x="404" y="878" type="curve" smooth="yes"/>
      <point x="463" y="878"/>
      <point x="501" y="815"/>
      <point x="541" y="815" type="curve" smooth="yes"/>
      <point x="570" y="815"/>
      <point x="592" y="836"/>
      <point x="605" y="878" type="curve"/>
      <point x="655" y="878" type="line"/>
      <point x="622" y="776"/>
      <point x="595" y="753"/>
    </contour>
  </outline>
</glyph>
<glyph name="Ubreve" format="1">
  <advance width="722"/>
  <unicode hex="016C"/>
  <outline>
    <contour>
      <point x="319" y="-10" type="curve" smooth="yes"/>
      <point x="168" y="-10"/>
      <point x="75" y="74"/>
      <point x="75" y="210" type="curve" smooth="yes"/>
      <point x="75" y="239"/>
      <point x="81" y="286"/>
      <point x="86" y="310" type="curve" smooth="yes"/>
      <point x="159" y="688" type="line"/>
      <point x="252" y="688" type="line"/>
      <point x="173" y="276" type="line" smooth="yes"/>
      <point x="168" y="248"/>
      <point x="165" y="225"/>
      <point x="165" y="207" type="curve" smooth="yes"/>
      <point x="165" y="118"/>
      <point x="224" y="66"/>
      <point x="327" y="66" type="curve" smooth="yes"/>
      <point x="452" y="66"/>
      <point x="527" y="132"/>
      <point x="552" y="264" type="curve" smooth="yes"/>
      <point x="634" y="688" type="line"/>
      <point x="727" y="688" type="line"/>
      <point x="644" y="259" type="line" smooth="yes"/>
      <point x="609" y="80"/>
      <point x="499" y="-10"/>
    </contour>
    <contour>
      <point x="446" y="742" type="curve" smooth="yes"/>
      <point x="359" y="742"/>
      <point x="302" y="792"/>
      <point x="301" y="864" type="curve"/>
      <point x="358" y="864" type="line"/>
      <point x="359" y="825"/>
      <point x="397" y="809"/>
      <point x="450" y="809" type="curve" smooth="yes"/>
      <point x="509" y="809"/>
      <point x="548" y="827"/>
      <point x="569" y="864" type="curve"/>
      <point x="626" y="864" type="line"/>
      <point x="593" y="785"/>
      <point x="527" y="742"/>
    </contour>
  </outline>
</glyph>
<glyph name="uogonek" format="1">
  <advance width="556"/>
  <unicode hex="0173"/>
  <outline>
    <contour>
      <point x="114" y="528" type="line"/>
      <point x="203" y="528" type="line"/>
      <point x="141" y="213" type="line" smooth="yes"/>
      <point x="135" y="184"/>
      <point x="132" y="160"/>
      <point x="132" y="140" type="curve" smooth="yes"/>
      <point x="132" y="86"/>
      <point x="161" y="59"/>
      <point x="220" y="59" type="curve" smooth="yes"/>
      <point x="301" y="59"/>
      <point x="370" y="125"/>
      <point x="391" y="232" type="curve" smooth="yes"/>
      <point x="448" y="528" type="line"/>
      <point x="536" y="528" type="line"/>
      <point x="455" y="113" type="line" smooth="yes"/>
      <point x="448" y="82"/>
      <point x="442" y="44"/>
      <point x="436" y="0" type="curve"/>
      <point x="353" y="0" type="line" smooth="yes"/>
      <point x="353" y="3"/>
      <point x="355" y="16"/>
      <point x="358" y="37" type="curve" smooth="yes"/>
      <point x="361" y="59"/>
      <point x="364" y="77"/>
      <point x="367" y="90" type="curve"/>
      <point x="365" y="90" type="line"/>
      <point x="312" y="15"/>
      <point x="262" y="-9"/>
      <point x="187" y="-9" type="curve" smooth="yes"/>
      <point x="91" y="-9"/>
      <point x="42" y="40"/>
      <point x="42" y="129" type="curve" smooth="yes"/>
      <point x="42" y="150"/>
      <point x="45" y="177"/>
      <point x="52" y="209" type="curve" smooth="yes"/>
    </contour>
    <contour>
      <point x="340" y="-208" type="curve" smooth="yes"/>
      <point x="283" y="-208"/>
      <point x="253" y="-175"/>
      <point x="253" y="-126" type="curve" smooth="yes"/>
      <point x="253" y="-73"/>
      <point x="294" y="-23"/>
      <point x="354" y="0" type="curve"/>
      <point x="418" y="0" type="line"/>
      <point x="358" y="-31"/>
      <point x="324" y="-74"/>
      <point x="324" y="-115" type="curve" smooth="yes"/>
      <point x="324" y="-138"/>
      <point x="338" y="-155"/>
      <point x="362" y="-155" type="curve" smooth="yes"/>
      <point x="380" y="-155"/>
      <point x="399" y="-151"/>
      <point x="418" y="-144" type="curve"/>
      <point x="411" y="-195" type="line"/>
      <point x="389" y="-204"/>
      <point x="365" y="-208"/>
    </contour>
  </outline>
</glyph>
<glyph name="zdotaccent" format="1">
  <advance width="500"/>
  <unicode hex="017C"/>
  <outline>
    <contour>
      <point x="403" y="0" type="line"/>
      <point x="-6" y="0" type="line"/>
      <point x="5" y="67" type="line"/>
      <point x="368" y="460" type="line"/>
      <point x="91" y="460" type="line"/>
      <point x="104" y="528" type="line"/>
      <point x="486" y="528" type="line"/>
      <point x="475" y="461" type="line"/>
      <point x="112" y="68" type="line"/>
      <point x="416" y="68" type="line"/>
    </contour>
    <contour>
      <point x="357" y="641" type="line"/>
      <point x="269" y="641" type="line"/>
      <point x="286" y="725" type="line"/>
      <point x="374" y="725" type="line"/>
    </contour>
  </outline>
</glyph>
<glyph name="longs" format="1">
  <advance width="222"/>
  <unicode hex="017F"/>
  <outline>
    <contour>
      <point x="104" y="0" type="line"/>
      <point x="16" y="0" type="line"/>
      <point x="130" y="588" type="line" smooth="yes"/>
      <point x="150" y="689"/>
      <point x="194" y="725"/>
      <point x="279" y="725" type="curve" smooth="yes"/>
      <point x="302" y="725"/>
      <point x="321" y="723"/>
      <point x="337" y="719" type="curve"/>
      <point x="325" y="652" type="line"/>
      <point x="311" y="655"/>
      <point x="297" y="656"/>
      <point x="284" y="656" type="curve" smooth="yes"/>
      <point x="245" y="651"/>
      <point x="232" y="648"/>
      <point x="216" y="576" type="curve" smooth="yes"/>
    </contour>
  </outline>
</glyph>
<glyph name="uni0183" format="1">
  <advance width="556"/>
  <unicode hex="0183"/>
  <outline>
    <contour>
      <point x="363" y="538" type="curve" smooth="yes"/>
      <point x="466" y="538"/>
      <point x="525" y="473"/>
      <point x="525" y="365" type="curve" smooth="yes"/>
      <point x="525" y="299"/>
      <point x="515" y="235"/>
      <point x="495" y="173" type="curve" smooth="yes"/>
      <point x="455" y="49"/>
      <point x="384" y="-10"/>
      <point x="272" y="-10" type="curve" smooth="yes"/>
      <point x="192" y="-10"/>
      <point x="142" y="26"/>
      <point x="121" y="87" type="curve"/>
      <point x="120" y="87" type="line"/>
      <point x="99" y="0" type="line"/>
      <point x="14" y="0" type="line"/>
      <point x="17" y="8"/>
      <point x="25" y="44"/>
      <point x="38" y="109" type="curve" smooth="yes"/>
      <point x="158" y="725" type="line"/>
      <point x="521" y="725" type="line"/>
      <point x="506" y="647" type="line"/>
      <point x="230" y="647" type="line"/>
      <point x="210" y="542"/>
      <point x="200" y="483"/>
      <point x="188" y="450" type="curve"/>
      <point x="190" y="450" type="line"/>
      <point x="238" y="511"/>
      <point x="286" y="538"/>
    </contour>
    <contour>
      <point x="338" y="470" type="curve" smooth="yes"/>
      <point x="274" y="470"/>
      <point x="229" y="444"/>
      <point x="197" y="391" type="curve" smooth="yes"/>
      <point x="181" y="364"/>
      <point x="168" y="331"/>
      <point x="159" y="291" type="curve" smooth="yes"/>
      <point x="150" y="251"/>
      <point x="146" y="215"/>
      <point x="146" y="184" type="curve" smooth="yes"/>
      <point x="146" y="103"/>
      <point x="190" y="55"/>
      <point x="263" y="55" type="curve" smooth="yes"/>
      <point x="302" y="55"/>
      <point x="334" y="67"/>
      <point x="357" y="90" type="curve" smooth="yes"/>
      <point x="380" y="114"/>
      <point x="399" y="153"/>
      <point x="413" y="206" type="curve" smooth="yes"/>
      <point x="427" y="260"/>
      <point x="434" y="308"/>
      <point x="434" y="350" type="curve" smooth="yes"/>
      <point x="434" y="430"/>
      <point x="405" y="470"/>
    </contour>
  </outline>
</glyph>
<glyph name="uni0187" format="1">
  <advance width="722"/>
  <unicode hex="0187"/>
  <outline>
    <contour>
      <point x="593" y="208" type="curve"/>
      <point x="663" y="165" type="line"/>
      <point x="582" y="42"/>
      <point x="479" y="-10"/>
      <point x="342" y="-10" type="curve" smooth="yes"/>
      <point x="162" y="-10"/>
      <point x="55" y="104"/>
      <point x="55" y="278" type="curve" smooth="yes"/>
      <point x="55" y="358"/>
      <point x="72" y="430"/>
      <point x="106" y="495" type="curve" smooth="yes"/>
      <point x="175" y="624"/>
      <point x="303" y="698"/>
      <point x="452" y="698" type="curve" smooth="yes"/>
      <point x="544" y="698"/>
      <point x="616" y="674"/>
      <point x="667" y="626" type="curve"/>
      <point x="671" y="645" type="line" smooth="yes"/>
      <point x="691" y="741"/>
      <point x="745" y="789"/>
      <point x="826" y="789" type="curve" smooth="yes"/>
      <point x="847" y="789"/>
      <point x="866" y="786"/>
      <point x="884" y="779" type="curve"/>
      <point x="870" y="705" type="line"/>
      <point x="855" y="711"/>
      <point x="841" y="714"/>
      <point x="828" y="714" type="curve" smooth="yes"/>
      <point x="783" y="714"/>
      <point x="757" y="687"/>
      <point x="746" y="627" type="curve" smooth="yes"/>
      <point x="728" y="530" type="line"/>
      <point x="640" y="503" type="line"/>
      <point x="616" y="576"/>
      <point x="546" y="622"/>
      <point x="447" y="622" type="curve" smooth="yes"/>
      <point x="266" y="622"/>
      <point x="147" y="483"/>
      <point x="147" y="276" type="curve" smooth="yes"/>
      <point x="147" y="147"/>
      <point x="223" y="66"/>
      <point x="348" y="66" type="curve" smooth="yes"/>
      <point x="444" y="66"/>
      <point x="529" y="115"/>
    </contour>
  </outline>
</glyph>
<glyph name="uni0188" format="1">
  <advance width="500"/>
  <unicode hex="0188"/>
  <outline>
    <contour>
      <point x="229" y="60" type="curve" smooth="yes"/>
      <point x="294" y="60"/>
      <point x="341" y="93"/>
      <point x="370" y="172" type="curve"/>
      <point x="446" y="148" type="line"/>
      <point x="407" y="43"/>
      <point x="334" y="-10"/>
      <point x="227" y="-10" type="curve" smooth="yes"/>
      <point x="102" y="-10"/>
      <point x="33" y="66"/>
      <point x="33" y="193" type="curve" smooth="yes"/>
      <point x="33" y="258"/>
      <point x="45" y="319"/>
      <point x="68" y="374" type="curve" smooth="yes"/>
      <point x="116" y="486"/>
      <point x="192" y="538"/>
      <point x="305" y="538" type="curve" smooth="yes"/>
      <point x="358" y="538"/>
      <point x="401" y="525"/>
      <point x="433" y="500" type="curve"/>
      <point x="456" y="586"/>
      <point x="503" y="629"/>
      <point x="576" y="629" type="curve" smooth="yes"/>
      <point x="597" y="629"/>
      <point x="616" y="626"/>
      <point x="632" y="619" type="curve"/>
      <point x="618" y="545" type="line"/>
      <point x="603" y="552"/>
      <point x="590" y="555"/>
      <point x="580" y="555" type="curve" smooth="yes"/>
      <point x="539" y="555"/>
      <point x="516" y="526"/>
      <point x="504" y="462" type="curve" smooth="yes"/>
      <point x="489" y="383" type="line"/>
      <point x="402" y="371" type="line"/>
      <point x="398" y="434"/>
      <point x="362" y="469"/>
      <point x="302" y="469" type="curve" smooth="yes"/>
      <point x="261" y="469"/>
      <point x="228" y="458"/>
      <point x="203" y="436" type="curve" smooth="yes"/>
      <point x="178" y="414"/>
      <point x="158" y="379"/>
      <point x="144" y="331" type="curve" smooth="yes"/>
      <point x="130" y="284"/>
      <point x="123" y="237"/>
      <point x="123" y="190" type="curve" smooth="yes"/>
      <point x="123" y="103"/>
      <point x="158" y="60"/>
    </contour>
  </outline>
</glyph>
<glyph name="uni0189" format="1">
  <advance width="722"/>
  <unicode hex="0189"/>
  <outline>
    <contour>
      <point x="164" y="688" type="line"/>
      <point x="373" y="688" type="line" smooth="yes"/>
      <point x="474" y="688"/>
      <point x="554" y="661"/>
      <point x="612" y="607" type="curve" smooth="yes"/>
      <point x="671" y="554"/>
      <point x="700" y="480"/>
      <point x="700" y="386" type="curve" smooth="yes"/>
      <point x="700" y="310"/>
      <point x="684" y="243"/>
      <point x="652" y="185" type="curve" smooth="yes"/>
      <point x="588" y="69"/>
      <point x="456" y="0"/>
      <point x="299" y="0" type="curve" smooth="yes"/>
      <point x="31" y="0" type="line"/>
      <point x="92" y="316" type="line"/>
      <point x="17" y="316" type="line"/>
      <point x="31" y="391" type="line"/>
      <point x="106" y="391" type="line"/>
    </contour>
    <contour>
      <point x="243" y="613" type="line"/>
      <point x="200" y="391" type="line"/>
      <point x="398" y="391" type="line"/>
      <point x="383" y="316" type="line"/>
      <point x="185" y="316" type="line"/>
      <point x="138" y="75" type="line"/>
      <point x="287" y="75" type="line" smooth="yes"/>
      <point x="479" y="75"/>
      <point x="605" y="195"/>
      <point x="605" y="387" type="curve" smooth="yes"/>
      <point x="605" y="530"/>
      <point x="519" y="613"/>
      <point x="371" y="613" type="curve" smooth="yes"/>
    </contour>
  </outline>
</glyph>
<glyph name="uni018A" format="1">
  <advance width="784"/>
  <unicode hex="018A"/>
  <outline>
    <contour>
      <point x="211" y="688" type="curve" smooth="yes"/>
      <point x="425" y="688" type="line" smooth="yes"/>
      <point x="527" y="688"/>
      <point x="607" y="661"/>
      <point x="665" y="607" type="curve" smooth="yes"/>
      <point x="723" y="554"/>
      <point x="752" y="480"/>
      <point x="752" y="386" type="curve" smooth="yes"/>
      <point x="757" y="158"/>
      <point x="582" y="-1"/>
      <point x="343" y="0" type="curve" smooth="yes"/>
      <point x="93" y="0" type="line"/>
      <point x="212" y="616" type="line"/>
      <point x="205" y="616" type="line" smooth="yes"/>
      <point x="144" y="616"/>
      <point x="113" y="581"/>
      <point x="113" y="521" type="curve"/>
      <point x="115" y="497" type="line"/>
      <point x="43" y="488" type="line"/>
      <point x="40" y="497"/>
      <point x="39" y="507"/>
      <point x="39" y="517" type="curve" smooth="yes"/>
      <point x="39" y="628"/>
      <point x="99" y="688"/>
    </contour>
    <contour>
      <point x="305" y="613" type="line"/>
      <point x="200" y="75" type="line"/>
      <point x="339" y="75" type="line" smooth="yes"/>
      <point x="533" y="75"/>
      <point x="657" y="195"/>
      <point x="657" y="387" type="curve" smooth="yes"/>
      <point x="657" y="530"/>
      <point x="571" y="613"/>
      <point x="423" y="613" type="curve" smooth="yes"/>
    </contour>
  </outline>
</glyph>
<glyph name="uni018D" format="1">
  <advance width="556"/>
  <unicode hex="018D"/>
  <outline>
    <contour>
      <point x="524" y="333" type="curve" smooth="yes"/>
      <point x="524" y="276"/>
      <point x="513" y="220"/>
      <point x="492" y="165" type="curve" smooth="yes"/>
      <point x="449" y="54"/>
      <point x="370" y="-5"/>
      <point x="253" y="-9" type="curve"/>
      <point x="395" y="-143" type="line"/>
      <point x="383" y="-208" type="line"/>
      <point x="22" y="-208" type="line"/>
      <point x="36" y="-137" type="line"/>
      <point x="214" y="-137" type="line"/>
      <point x="289" y="-141" type="line"/>
      <point x="108" y="27" type="line" smooth="yes"/>
      <point x="53" y="78"/>
      <point x="33" y="134"/>
      <point x="33" y="205" type="curve" smooth="yes"/>
      <point x="33" y="265"/>
      <point x="44" y="322"/>
      <point x="66" y="375" type="curve" smooth="yes"/>
      <point x="110" y="482"/>
      <point x="193" y="538"/>
      <point x="313" y="538" type="curve" smooth="yes"/>
      <point x="450" y="538"/>
      <point x="524" y="464"/>
    </contour>
    <contour>
      <point x="434" y="333" type="curve" smooth="yes"/>
      <point x="434" y="426"/>
      <point x="394" y="473"/>
      <point x="313" y="473" type="curve" smooth="yes"/>
      <point x="269" y="473"/>
      <point x="234" y="462"/>
      <point x="207" y="439" type="curve" smooth="yes"/>
      <point x="180" y="416"/>
      <point x="160" y="382"/>
      <point x="145" y="336" type="curve" smooth="yes"/>
      <point x="130" y="291"/>
      <point x="123" y="246"/>
      <point x="123" y="203" type="curve" smooth="yes"/>
      <point x="123" y="107"/>
      <point x="166" y="55"/>
      <point x="245" y="55" type="curve" smooth="yes"/>
      <point x="313" y="55"/>
      <point x="350" y="77"/>
      <point x="381" y="128" type="curve" smooth="yes"/>
      <point x="397" y="153"/>
      <point x="410" y="186"/>
      <point x="419" y="226" type="curve" smooth="yes"/>
      <point x="429" y="267"/>
      <point x="434" y="302"/>
    </contour>
  </outline>
</glyph>
<glyph name="uni0191" format="1">
  <advance width="611"/>
  <unicode hex="0191"/>
  <outline>
    <contour>
      <point x="643" y="612" type="line"/>
      <point x="243" y="612" type="line"/>
      <point x="193" y="356" type="line"/>
      <point x="582" y="356" type="line"/>
      <point x="566" y="279" type="line"/>
      <point x="178" y="279" type="line"/>
      <point x="112" y="-63" type="line" smooth="yes"/>
      <point x="93" y="-158"/>
      <point x="41" y="-207"/>
      <point x="-56" y="-207" type="curve" smooth="yes"/>
      <point x="-77" y="-207"/>
      <point x="-97" y="-204"/>
      <point x="-115" y="-197" type="curve"/>
      <point x="-101" y="-121" type="line"/>
      <point x="-86" y="-127"/>
      <point x="-72" y="-130"/>
      <point x="-59" y="-130" type="curve" smooth="yes"/>
      <point x="-15" y="-130"/>
      <point x="11" y="-103"/>
      <point x="22" y="-43" type="curve" smooth="yes"/>
      <point x="164" y="688" type="line"/>
      <point x="658" y="688" type="line"/>
    </contour>
  </outline>
</glyph>
<glyph name="florin" format="1">
  <advance width="556"/>
  <unicode hex="0192"/>
  <outline>
    <contour>
      <point x="517" y="700" type="curve"/>
      <point x="502" y="641" type="line"/>
      <point x="485" y="646"/>
      <point x="467" y="648"/>
      <point x="448" y="648" type="curve" smooth="yes"/>
      <point x="409" y="648"/>
      <point x="391" y="627"/>
      <point x="378" y="566" type="curve" smooth="yes"/>
      <point x="366" y="499" type="line"/>
      <point x="469" y="499" type="line"/>
      <point x="457" y="435" type="line"/>
      <point x="353" y="435" type="line"/>
      <point x="227" y="-223" type="line"/>
      <point x="139" y="-223" type="line"/>
      <point x="265" y="435" type="line"/>
      <point x="190" y="435" type="line"/>
      <point x="204" y="499" type="line"/>
      <point x="277" y="499" type="line"/>
      <point x="292" y="573" type="line" smooth="yes"/>
      <point x="312" y="673"/>
      <point x="357" y="710"/>
      <point x="444" y="710" type="curve" smooth="yes"/>
      <point x="470" y="710"/>
      <point x="494" y="707"/>
    </contour>
  </outline>
</glyph>
<glyph name="uni0194" format="1">
  <advance width="497"/>
  <unicode hex="0194"/>
  <outline>
    <contour>
      <point x="167" y="-208" type="curve" smooth="yes"/>
      <point x="102" y="-208"/>
      <point x="59" y="-167"/>
      <point x="59" y="-100" type="curve" smooth="yes"/>
      <point x="59" y="-83"/>
      <point x="63" y="-65"/>
      <point x="70" y="-45" type="curve" smooth="yes"/>
      <point x="77" y="-25"/>
      <point x="87" y="-4"/>
      <point x="100" y="18" type="curve" smooth="yes"/>
      <point x="113" y="41"/>
      <point x="137" y="76"/>
      <point x="172" y="125" type="curve"/>
      <point x="24" y="688" type="line"/>
      <point x="121" y="688" type="line"/>
      <point x="235" y="201" type="line"/>
      <point x="538" y="688" type="line"/>
      <point x="638" y="688" type="line"/>
      <point x="269" y="121" type="line"/>
      <point x="286" y="68"/>
      <point x="296" y="30"/>
      <point x="300" y="7" type="curve" smooth="yes"/>
      <point x="305" y="-16"/>
      <point x="307" y="-37"/>
      <point x="307" y="-55" type="curve" smooth="yes"/>
      <point x="308" y="-141"/>
      <point x="250" y="-212"/>
    </contour>
    <contour>
      <point x="175" y="-134" type="curve" smooth="yes"/>
      <point x="207" y="-134"/>
      <point x="227" y="-102"/>
      <point x="227" y="-47" type="curve" smooth="yes"/>
      <point x="227" y="-10"/>
      <point x="222" y="26"/>
      <point x="211" y="63" type="curve"/>
      <point x="167" y="2"/>
      <point x="139" y="-62"/>
      <point x="139" y="-94" type="curve" smooth="yes"/>
      <point x="139" y="-119"/>
      <point x="152" y="-134"/>
    </contour>
  </outline>
</glyph>
<glyph name="uni0195" format="1">
  <advance width="879"/>
  <unicode hex="0195"/>
  <outline>
    <contour>
      <point x="559" y="-10" type="curve" smooth="yes"/>
      <point x="440" y="-10"/>
      <point x="379" y="44"/>
      <point x="379" y="132" type="curve" smooth="yes"/>
      <point x="379" y="146"/>
      <point x="381" y="161"/>
      <point x="384" y="176" type="curve" smooth="yes"/>
      <point x="413" y="322" type="line" smooth="yes"/>
      <point x="418" y="348"/>
      <point x="420" y="370"/>
      <point x="420" y="388" type="curve" smooth="yes"/>
      <point x="420" y="443"/>
      <point x="393" y="470"/>
      <point x="333" y="470" type="curve" smooth="yes"/>
      <point x="250" y="470"/>
      <point x="182" y="401"/>
      <point x="162" y="298" type="curve" smooth="yes"/>
      <point x="104" y="0" type="line"/>
      <point x="17" y="0" type="line"/>
      <point x="157" y="725" type="line"/>
      <point x="245" y="725" type="line"/>
      <point x="208" y="536" type="line" smooth="yes"/>
      <point x="202" y="500"/>
      <point x="195" y="467"/>
      <point x="186" y="438" type="curve"/>
      <point x="188" y="438" type="line"/>
      <point x="235" y="507"/>
      <point x="287" y="538"/>
      <point x="366" y="538" type="curve" smooth="yes"/>
      <point x="461" y="538"/>
      <point x="510" y="488"/>
      <point x="510" y="400" type="curve" smooth="yes"/>
      <point x="510" y="381"/>
      <point x="508" y="359"/>
      <point x="503" y="334" type="curve" smooth="yes"/>
      <point x="475" y="191" type="line" smooth="yes"/>
      <point x="471" y="170"/>
      <point x="469" y="153"/>
      <point x="469" y="140" type="curve" smooth="yes"/>
      <point x="469" y="87"/>
      <point x="495" y="57"/>
      <point x="563" y="57" type="curve" smooth="yes"/>
      <point x="642" y="57"/>
      <point x="681" y="91"/>
      <point x="701" y="192" type="curve" smooth="yes"/>
      <point x="767" y="528" type="line"/>
      <point x="855" y="528" type="line"/>
      <point x="787" y="178" type="line" smooth="yes"/>
      <point x="760" y="45"/>
      <point x="687" y="-10"/>
    </contour>
  </outline>
</glyph>
<glyph name="uni0198" format="1">
  <advance width="667"/>
  <unicode hex="0198"/>
  <outline>
    <contour>
      <point x="303" y="696" type="curve" smooth="yes"/>
      <point x="324" y="696"/>
      <point x="345" y="693"/>
      <point x="365" y="686" type="curve"/>
      <point x="350" y="608" type="line"/>
      <point x="335" y="614"/>
      <point x="321" y="617"/>
      <point x="308" y="617" type="curve" smooth="yes"/>
      <point x="264" y="617"/>
      <point x="239" y="594"/>
      <point x="227" y="534" type="curve" smooth="yes"/>
      <point x="191" y="351" type="line"/>
      <point x="259" y="414" type="line"/>
      <point x="584" y="688" type="line"/>
      <point x="704" y="688" type="line"/>
      <point x="337" y="380" type="line"/>
      <point x="609" y="0" type="line"/>
      <point x="499" y="0" type="line"/>
      <point x="269" y="329" type="line"/>
      <point x="176" y="266" type="line"/>
      <point x="124" y="0" type="line"/>
      <point x="31" y="0" type="line"/>
      <point x="138" y="552" type="line" smooth="yes"/>
      <point x="155" y="647"/>
      <point x="206" y="696"/>
    </contour>
  </outline>
</glyph>
<glyph name="uni019A" format="1">
  <advance width="222"/>
  <unicode hex="019A"/>
  <outline>
    <contour>
      <point x="101" y="0" type="line"/>
      <point x="13" y="0" type="line"/>
      <point x="76" y="325" type="line"/>
      <point x="11" y="325" type="line"/>
      <point x="25" y="391" type="line"/>
      <point x="89" y="391" type="line"/>
      <point x="154" y="725" type="line"/>
      <point x="242" y="725" type="line"/>
      <point x="176" y="391" type="line"/>
      <point x="244" y="391" type="line"/>
      <point x="229" y="325" type="line"/>
      <point x="164" y="325" type="line"/>
    </contour>
  </outline>
</glyph>
<glyph name="uni019B" format="1">
  <advance width="492"/>
  <unicode hex="019B"/>
  <outline>
    <contour>
      <point x="403" y="681" type="line"/>
      <point x="415" y="621" type="line"/>
      <point x="332" y="592" type="line"/>
      <point x="439" y="0" type="line"/>
      <point x="351" y="0" type="line"/>
      <point x="306" y="282" type="line" smooth="yes"/>
      <point x="299" y="317"/>
      <point x="295" y="352"/>
      <point x="293" y="386" type="curve"/>
      <point x="287" y="374" type="line"/>
      <point x="278" y="359" type="line" smooth="yes"/>
      <point x="275" y="354"/>
      <point x="260" y="328"/>
      <point x="231" y="281" type="curve" smooth="yes"/>
      <point x="50" y="0" type="line"/>
      <point x="-45" y="0" type="line"/>
      <point x="271" y="479" type="line"/>
      <point x="256" y="566" type="line"/>
      <point x="155" y="533" type="line"/>
      <point x="144" y="591" type="line"/>
      <point x="243" y="625" type="line"/>
      <point x="226" y="725" type="line"/>
      <point x="308" y="725" type="line"/>
      <point x="320" y="652" type="line"/>
    </contour>
  </outline>
</glyph>
<glyph name="uni019F" format="1">
  <advance width="778"/>
  <unicode hex="019F"/>
  <outline>
    <contour>
      <point x="458" y="698" type="curve" smooth="yes"/>
      <point x="638" y="698"/>
      <point x="750" y="585"/>
      <point x="750" y="416" type="curve" smooth="yes"/>
      <point x="750" y="300"/>
      <point x="712" y="190"/>
      <point x="639" y="111" type="curve" smooth="yes"/>
      <point x="567" y="34"/>
      <point x="465" y="-10"/>
      <point x="346" y="-10" type="curve" smooth="yes"/>
      <point x="162" y="-10"/>
      <point x="54" y="99"/>
      <point x="54" y="280" type="curve" smooth="yes"/>
      <point x="54" y="357"/>
      <point x="71" y="429"/>
      <point x="105" y="494" type="curve" smooth="yes"/>
      <point x="174" y="625"/>
      <point x="303" y="698"/>
    </contour>
    <contour>
      <point x="351" y="66" type="curve" smooth="yes"/>
      <point x="504" y="66"/>
      <point x="605" y="147"/>
      <point x="644" y="310" type="curve"/>
      <point x="149" y="310" type="line"/>
      <point x="147" y="275" type="line"/>
      <point x="147" y="139"/>
      <point x="218" y="66"/>
    </contour>
    <contour>
      <point x="454" y="623" type="curve" smooth="yes"/>
      <point x="299" y="623"/>
      <point x="202" y="541"/>
      <point x="163" y="388" type="curve"/>
      <point x="656" y="388" type="line"/>
      <point x="657" y="414" type="line"/>
      <point x="657" y="549"/>
      <point x="583" y="623"/>
    </contour>
  </outline>
</glyph>
<glyph name="uni01A2" format="1">
  <advance width="868"/>
  <unicode hex="01A2"/>
  <outline>
    <contour>
      <point x="346" y="-10" type="curve" smooth="yes"/>
      <point x="162" y="-10"/>
      <point x="54" y="99"/>
      <point x="54" y="280" type="curve" smooth="yes"/>
      <point x="54" y="357"/>
      <point x="71" y="429"/>
      <point x="105" y="494" type="curve" smooth="yes"/>
      <point x="174" y="625"/>
      <point x="303" y="698"/>
      <point x="458" y="698" type="curve" smooth="yes"/>
      <point x="514" y="698"/>
      <point x="569" y="686"/>
      <point x="623" y="661" type="curve"/>
      <point x="850" y="695" type="line"/>
      <point x="871" y="695" type="line"/>
      <point x="695" y="-207" type="line"/>
      <point x="607" y="-207" type="line"/>
      <point x="764" y="596" type="line"/>
      <point x="653" y="597" type="line"/>
      <point x="544" y="35" type="line"/>
      <point x="471" y="2"/>
      <point x="414" y="-10"/>
    </contour>
    <contour>
      <point x="467" y="88" type="curve"/>
      <point x="566" y="600" type="line"/>
      <point x="535" y="615"/>
      <point x="498" y="623"/>
      <point x="454" y="623" type="curve" smooth="yes"/>
      <point x="357" y="623"/>
      <point x="282" y="591"/>
      <point x="230" y="528" type="curve" smooth="yes"/>
      <point x="204" y="497"/>
      <point x="184" y="458"/>
      <point x="169" y="411" type="curve" smooth="yes"/>
      <point x="154" y="364"/>
      <point x="147" y="319"/>
      <point x="147" y="275" type="curve" smooth="yes"/>
      <point x="147" y="139"/>
      <point x="217" y="66"/>
      <point x="350" y="66" type="curve" smooth="yes"/>
      <point x="394" y="66"/>
      <point x="433" y="73"/>
    </contour>
  </outline>
</glyph>
<glyph name="uni01A3" format="1">
  <advance width="667"/>
  <unicode hex="01A3"/>
  <outline>
    <contour>
      <point x="240" y="-10" type="curve" smooth="yes"/>
      <point x="112" y="-10"/>
      <point x="33" y="70"/>
      <point x="33" y="205" type="curve" smooth="yes"/>
      <point x="33" y="265"/>
      <point x="44" y="322"/>
      <point x="66" y="375" type="curve" smooth="yes"/>
      <point x="110" y="482"/>
      <point x="193" y="538"/>
      <point x="313" y="538" type="curve" smooth="yes"/>
      <point x="367" y="538"/>
      <point x="416" y="525"/>
      <point x="460" y="500" type="curve"/>
      <point x="631" y="534" type="line"/>
      <point x="652" y="534" type="line"/>
      <point x="508" y="-208" type="line"/>
      <point x="422" y="-208" type="line"/>
      <point x="550" y="448" type="line"/>
      <point x="458" y="448" type="line"/>
      <point x="373" y="19" type="line"/>
      <point x="335" y="0"/>
      <point x="291" y="-10"/>
    </contour>
    <contour>
      <point x="298" y="61" type="curve"/>
      <point x="375" y="464" type="line"/>
      <point x="355" y="470"/>
      <point x="334" y="473"/>
      <point x="313" y="473" type="curve" smooth="yes"/>
      <point x="269" y="473"/>
      <point x="234" y="462"/>
      <point x="207" y="439" type="curve" smooth="yes"/>
      <point x="180" y="416"/>
      <point x="160" y="382"/>
      <point x="145" y="336" type="curve" smooth="yes"/>
      <point x="130" y="291"/>
      <point x="123" y="246"/>
      <point x="123" y="203" type="curve" smooth="yes"/>
      <point x="123" y="107"/>
      <point x="166" y="55"/>
      <point x="245" y="55" type="curve" smooth="yes"/>
      <point x="265" y="55"/>
      <point x="283" y="57"/>
    </contour>
  </outline>
</glyph>
<glyph name="uni01A4" format="1">
  <advance width="730"/>
  <unicode hex="01A4"/>
  <outline>
    <contour>
      <point x="213" y="688" type="curve" smooth="yes"/>
      <point x="479" y="688" type="line" smooth="yes"/>
      <point x="630" y="688"/>
      <point x="724" y="615"/>
      <point x="724" y="498" type="curve" smooth="yes"/>
      <point x="724" y="355"/>
      <point x="618" y="268"/>
      <point x="446" y="268" type="curve" smooth="yes"/>
      <point x="239" y="268" type="line"/>
      <point x="188" y="0" type="line"/>
      <point x="94" y="0" type="line"/>
      <point x="213" y="616" type="line"/>
      <point x="206" y="616" type="line" smooth="yes"/>
      <point x="145" y="616"/>
      <point x="115" y="581"/>
      <point x="115" y="521" type="curve"/>
      <point x="117" y="497" type="line"/>
      <point x="44" y="488" type="line"/>
      <point x="42" y="497"/>
      <point x="41" y="507"/>
      <point x="41" y="517" type="curve" smooth="yes"/>
      <point x="41" y="628"/>
      <point x="101" y="688"/>
    </contour>
    <contour>
      <point x="307" y="613" type="line"/>
      <point x="254" y="342" type="line"/>
      <point x="443" y="342" type="line" smooth="yes"/>
      <point x="567" y="342"/>
      <point x="629" y="393"/>
      <point x="629" y="494" type="curve" smooth="yes"/>
      <point x="629" y="571"/>
      <point x="577" y="613"/>
      <point x="477" y="613" type="curve" smooth="yes"/>
    </contour>
  </outline>
</glyph>
<glyph name="uni01A6" format="1">
  <advance width="667"/>
  <unicode hex="01A6"/>
  <outline>
    <contour>
      <point x="576" y="-156" type="line"/>
      <point x="476" y="-156" type="line"/>
      <point x="355" y="210" type="line"/>
      <point x="165" y="210" type="line"/>
      <point x="124" y="0" type="line"/>
      <point x="31" y="0" type="line"/>
      <point x="164" y="688" type="line"/>
      <point x="255" y="688" type="line"/>
      <point x="241" y="613" type="line"/>
      <point x="424" y="613" type="line" smooth="yes"/>
      <point x="561" y="613"/>
      <point x="652" y="541"/>
      <point x="652" y="432" type="curve" smooth="yes"/>
      <point x="652" y="309"/>
      <point x="581" y="238"/>
      <point x="444" y="219" type="curve"/>
    </contour>
    <contour>
      <point x="179" y="284" type="line"/>
      <point x="379" y="284" type="line" smooth="yes"/>
      <point x="498" y="284"/>
      <point x="558" y="336"/>
      <point x="558" y="425" type="curve" smooth="yes"/>
      <point x="558" y="497"/>
      <point x="509" y="538"/>
      <point x="413" y="538" type="curve" smooth="yes"/>
      <point x="229" y="538" type="line"/>
    </contour>
  </outline>
</glyph>
<glyph name="uni01AB" format="1">
  <advance width="278"/>
  <unicode hex="01AB"/>
  <outline>
    <contour>
      <point x="63" y="-208" type="curve" smooth="yes"/>
      <point x="42" y="-208"/>
      <point x="24" y="-204"/>
      <point x="7" y="-197" type="curve"/>
      <point x="21" y="-123" type="line"/>
      <point x="36" y="-129"/>
      <point x="49" y="-132"/>
      <point x="60" y="-132" type="curve" smooth="yes"/>
      <point x="101" y="-132"/>
      <point x="119" y="-103"/>
      <point x="130" y="-40" type="curve" smooth="yes"/>
      <point x="135" y="-10" type="line"/>
      <point x="134" y="-10" type="line" smooth="yes"/>
      <point x="79" y="-10"/>
      <point x="45" y="26"/>
      <point x="45" y="81" type="curve" smooth="yes"/>
      <point x="45" y="99"/>
      <point x="48" y="120"/>
      <point x="53" y="145" type="curve" smooth="yes"/>
      <point x="114" y="464" type="line"/>
      <point x="53" y="464" type="line"/>
      <point x="66" y="528" type="line"/>
      <point x="128" y="528" type="line"/>
      <point x="179" y="646" type="line"/>
      <point x="238" y="646" type="line"/>
      <point x="215" y="528" type="line"/>
      <point x="313" y="528" type="line"/>
      <point x="300" y="464" type="line"/>
      <point x="202" y="464" type="line"/>
      <point x="141" y="149" type="line" smooth="yes"/>
      <point x="137" y="130"/>
      <point x="135" y="114"/>
      <point x="135" y="103" type="curve" smooth="yes"/>
      <point x="135" y="74"/>
      <point x="150" y="60"/>
      <point x="179" y="60" type="curve" smooth="yes"/>
      <point x="193" y="60"/>
      <point x="209" y="62"/>
      <point x="228" y="67" type="curve"/>
      <point x="207" y="-77" type="line" smooth="yes"/>
      <point x="194" y="-164"/>
      <point x="146" y="-208"/>
    </contour>
  </outline>
</glyph>
<glyph name="uni01AC" format="1">
  <advance width="611"/>
  <unicode hex="01AC"/>
  <outline>
    <contour>
      <point x="655" y="612" type="line"/>
      <point x="419" y="612" type="line"/>
      <point x="300" y="0" type="line"/>
      <point x="207" y="0" type="line"/>
      <point x="326" y="612" type="line"/>
      <point x="228" y="612" type="line" smooth="yes"/>
      <point x="168" y="612"/>
      <point x="138" y="582"/>
      <point x="138" y="521" type="curve"/>
      <point x="140" y="497" type="line"/>
      <point x="67" y="488" type="line"/>
      <point x="64" y="497"/>
      <point x="63" y="507"/>
      <point x="63" y="517" type="curve" smooth="yes"/>
      <point x="63" y="628"/>
      <point x="124" y="688"/>
      <point x="236" y="688" type="curve" smooth="yes"/>
      <point x="670" y="688" type="line"/>
    </contour>
  </outline>
</glyph>
<glyph name="uni01B1" format="1">
  <advance width="761"/>
  <unicode hex="01B1"/>
  <outline>
    <contour>
      <point x="352" y="-10" type="curve" smooth="yes"/>
      <point x="172" y="-10"/>
      <point x="59" y="94"/>
      <point x="59" y="260" type="curve" smooth="yes"/>
      <point x="59" y="437"/>
      <point x="157" y="560"/>
      <point x="338" y="617" type="curve"/>
      <point x="284" y="614"/>
      <point x="249" y="612"/>
      <point x="233" y="612" type="curve" smooth="yes"/>
      <point x="109" y="612" type="line"/>
      <point x="124" y="688" type="line"/>
      <point x="411" y="688" type="line"/>
      <point x="390" y="579" type="line"/>
      <point x="233" y="528"/>
      <point x="151" y="420"/>
      <point x="151" y="271" type="curve" smooth="yes"/>
      <point x="151" y="142"/>
      <point x="226" y="65"/>
      <point x="355" y="65" type="curve" smooth="yes"/>
      <point x="505" y="65"/>
      <point x="614" y="173"/>
      <point x="614" y="346" type="curve" smooth="yes"/>
      <point x="614" y="451"/>
      <point x="574" y="524"/>
      <point x="481" y="579" type="curve"/>
      <point x="503" y="688" type="line"/>
      <point x="771" y="688" type="line"/>
      <point x="756" y="612" type="line"/>
      <point x="657" y="612" type="line" smooth="yes"/>
      <point x="640" y="612"/>
      <point x="601" y="614"/>
      <point x="542" y="617" type="curve"/>
      <point x="647" y="558"/>
      <point x="708" y="456"/>
      <point x="708" y="336" type="curve" smooth="yes"/>
      <point x="712" y="134"/>
      <point x="554" y="-13"/>
    </contour>
  </outline>
</glyph>
<glyph name="uni01B2" format="1">
  <advance width="722"/>
  <unicode hex="01B2"/>
  <outline>
    <contour>
      <point x="300" y="-10" type="curve" smooth="yes"/>
      <point x="164" y="-10"/>
      <point x="73" y="72"/>
      <point x="73" y="206" type="curve" smooth="yes"/>
      <point x="73" y="231"/>
      <point x="76" y="257"/>
      <point x="81" y="285" type="curve" smooth="yes"/>
      <point x="159" y="688" type="line"/>
      <point x="252" y="688" type="line"/>
      <point x="172" y="269" type="line" smooth="yes"/>
      <point x="168" y="248"/>
      <point x="166" y="227"/>
      <point x="166" y="207" type="curve" smooth="yes"/>
      <point x="166" y="115"/>
      <point x="217" y="66"/>
      <point x="313" y="66" type="curve" smooth="yes"/>
      <point x="394" y="66"/>
      <point x="464" y="117"/>
      <point x="513" y="216" type="curve" smooth="yes"/>
      <point x="538" y="265"/>
      <point x="558" y="323"/>
      <point x="573" y="389" type="curve" smooth="yes"/>
      <point x="589" y="456"/>
      <point x="597" y="504"/>
      <point x="597" y="535" type="curve" smooth="yes"/>
      <point x="597" y="589"/>
      <point x="576" y="616"/>
      <point x="534" y="616" type="curve" smooth="yes"/>
      <point x="517" y="616"/>
      <point x="500" y="614"/>
      <point x="483" y="611" type="curve"/>
      <point x="494" y="688" type="line"/>
      <point x="515" y="691"/>
      <point x="536" y="693"/>
      <point x="558" y="693" type="curve" smooth="yes"/>
      <point x="646" y="693"/>
      <point x="690" y="638"/>
      <point x="690" y="541" type="curve" smooth="yes"/>
      <point x="690" y="508"/>
      <point x="682" y="453"/>
      <point x="666" y="376" type="curve" smooth="yes"/>
      <point x="650" y="299"/>
      <point x="626" y="231"/>
      <point x="593" y="172" type="curve" smooth="yes"/>
      <point x="529" y="53"/>
      <point x="427" y="-10"/>
    </contour>
  </outline>
</glyph>
<glyph name="uni01B3" format="1">
  <advance width="717"/>
  <unicode hex="01B3"/>
  <outline>
    <contour>
      <point x="702" y="694" type="curve" smooth="yes"/>
      <point x="743" y="694"/>
      <point x="781" y="678"/>
      <point x="815" y="647" type="curve"/>
      <point x="766" y="582" type="line"/>
      <point x="745" y="599"/>
      <point x="724" y="614"/>
      <point x="696" y="614" type="curve" smooth="yes"/>
      <point x="672" y="614"/>
      <point x="655" y="605"/>
      <point x="632" y="577" type="curve" smooth="yes"/>
      <point x="383" y="285" type="line"/>
      <point x="328" y="0" type="line"/>
      <point x="235" y="0" type="line"/>
      <point x="292" y="285" type="line"/>
      <point x="104" y="688" type="line"/>
      <point x="200" y="688" type="line"/>
      <point x="349" y="359" type="line"/>
      <point x="565" y="619" type="line" smooth="yes"/>
      <point x="614" y="678"/>
      <point x="650" y="694"/>
    </contour>
  </outline>
</glyph>
<glyph name="uni01BA" format="1">
  <advance width="500"/>
  <unicode hex="01BA"/>
  <outline>
    <contour>
      <point x="356" y="-40" type="curve"/>
      <point x="438" y="-49" type="line"/>
      <point x="391" y="-155"/>
      <point x="297" y="-208"/>
      <point x="157" y="-208" type="curve" smooth="yes"/>
      <point x="46" y="-208"/>
      <point x="-41" y="-155"/>
      <point x="-41" y="-73" type="curve" smooth="yes"/>
      <point x="-41" y="-30"/>
      <point x="-23" y="3"/>
      <point x="5" y="28" type="curve" smooth="yes"/>
      <point x="20" y="41"/>
      <point x="40" y="52"/>
      <point x="65" y="62" type="curve" smooth="yes"/>
      <point x="91" y="73"/>
      <point x="132" y="84"/>
      <point x="188" y="97" type="curve" smooth="yes"/>
      <point x="233" y="107"/>
      <point x="265" y="116"/>
      <point x="284" y="123" type="curve" smooth="yes"/>
      <point x="323" y="138"/>
      <point x="345" y="156"/>
      <point x="345" y="183" type="curve" smooth="yes"/>
      <point x="345" y="229"/>
      <point x="291" y="247"/>
      <point x="158" y="247" type="curve"/>
      <point x="171" y="314" type="line"/>
      <point x="374" y="460" type="line"/>
      <point x="78" y="460" type="line"/>
      <point x="91" y="528" type="line"/>
      <point x="515" y="528" type="line"/>
      <point x="503" y="470" type="line"/>
      <point x="276" y="311" type="line"/>
      <point x="377" y="302"/>
      <point x="431" y="261"/>
      <point x="431" y="194" type="curve" smooth="yes"/>
      <point x="431" y="145"/>
      <point x="410" y="108"/>
      <point x="368" y="82" type="curve" smooth="yes"/>
      <point x="328" y="57"/>
      <point x="272" y="46"/>
      <point x="208" y="31" type="curve" smooth="yes"/>
      <point x="139" y="12"/>
      <point x="50" y="-1"/>
      <point x="50" y="-69" type="curve" smooth="yes"/>
      <point x="50" y="-113"/>
      <point x="90" y="-138"/>
      <point x="171" y="-138" type="curve" smooth="yes"/>
      <point x="260" y="-138"/>
      <point x="322" y="-105"/>
    </contour>
  </outline>
</glyph>
<glyph name="uni01C1" format="1">
  <advance width="413"/>
  <unicode hex="01C1"/>
  <outline>
    <contour>
      <point x="178" y="0" type="line"/>
      <point x="97" y="0" type="line"/>
      <point x="97" y="725" type="line"/>
      <point x="178" y="725" type="line"/>
    </contour>
    <contour>
      <point x="335" y="0" type="line"/>
      <point x="255" y="0" type="line"/>
      <point x="255" y="725" type="line"/>
      <point x="335" y="725" type="line"/>
    </contour>
  </outline>
</glyph>
<glyph name="uni01C2" format="1">
  <advance width="584"/>
  <unicode hex="01C2"/>
  <outline>
    <contour>
      <point x="65" y="428" type="line"/>
      <point x="65" y="503" type="line"/>
      <point x="259" y="503" type="line"/>
      <point x="259" y="725" type="line"/>
      <point x="344" y="725" type="line"/>
      <point x="344" y="503" type="line"/>
      <point x="538" y="503" type="line"/>
      <point x="538" y="428" type="line"/>
      <point x="344" y="428" type="line"/>
      <point x="344" y="278" type="line"/>
      <point x="538" y="278" type="line"/>
      <point x="538" y="203" type="line"/>
      <point x="344" y="203" type="line"/>
      <point x="344" y="0" type="line"/>
      <point x="259" y="0" type="line"/>
      <point x="259" y="203" type="line"/>
      <point x="65" y="203" type="line"/>
      <point x="65" y="278" type="line"/>
      <point x="259" y="278" type="line"/>
      <point x="259" y="428" type="line"/>
    </contour>
  </outline>
</glyph>
<glyph name="uni01C7" format="1">
  <advance width="1056"/>
  <unicode hex="01C7"/>
  <outline>
    <contour>
      <point x="472" y="0" type="line"/>
      <point x="31" y="0" type="line"/>
      <point x="164" y="688" type="line"/>
      <point x="257" y="688" type="line"/>
      <point x="139" y="76" type="line"/>
      <point x="486" y="76" type="line"/>
    </contour>
    <contour>
      <point x="742" y="-10" type="curve" smooth="yes"/>
      <point x="639" y="-10"/>
      <point x="570" y="52"/>
      <point x="554" y="167" type="curve"/>
      <point x="636" y="184" type="line"/>
      <point x="651" y="107"/>
      <point x="686" y="66"/>
      <point x="750" y="66" type="curve" smooth="yes"/>
      <point x="819" y="66"/>
      <point x="860" y="111"/>
      <point x="880" y="215" type="curve" smooth="yes"/>
      <point x="957" y="612" type="line"/>
      <point x="814" y="612" type="line"/>
      <point x="829" y="688" type="line"/>
      <point x="1064" y="688" type="line"/>
      <point x="970" y="207" type="line" smooth="yes"/>
      <point x="942" y="60"/>
      <point x="869" y="-10"/>
    </contour>
  </outline>
</glyph>
<glyph name="uni01CD" format="1">
  <advance width="667"/>
  <unicode hex="01CD"/>
  <outline>
    <contour>
      <point x="613" y="0" type="line"/>
      <point x="518" y="0" type="line"/>
      <point x="481" y="201" type="line"/>
      <point x="169" y="201" type="line"/>
      <point x="52" y="0" type="line"/>
      <point x="-49" y="0" type="line"/>
      <point x="365" y="688" type="line"/>
      <point x="471" y="688" type="line"/>
    </contour>
    <contour>
      <point x="418" y="544" type="line"/>
      <point x="405" y="618" type="line"/>
      <point x="401" y="609"/>
      <point x="395" y="598"/>
      <point x="387" y="584" type="curve" smooth="yes"/>
      <point x="210" y="274" type="line"/>
      <point x="468" y="274" type="line"/>
    </contour>
    <contour>
      <point x="598" y="864" type="line"/>
      <point x="466" y="747" type="line"/>
      <point x="366" y="747" type="line"/>
      <point x="275" y="864" type="line"/>
      <point x="277" y="874" type="line"/>
      <point x="322" y="874" type="line"/>
      <point x="422" y="806" type="line"/>
      <point x="423" y="806" type="line"/>
      <point x="543" y="874" type="line"/>
      <point x="600" y="874" type="line"/>
    </contour>
  </outline>
</glyph>
<glyph name="uni01D0" format="1">
  <advance width="222"/>
  <unicode hex="01D0"/>
  <outline>
    <contour>
      <point x="104" y="0" type="line"/>
      <point x="17" y="0" type="line"/>
      <point x="119" y="528" type="line"/>
      <point x="207" y="528" type="line"/>
    </contour>
    <contour>
      <point x="356" y="718" type="line"/>
      <point x="221" y="586" type="line"/>
      <point x="122" y="586" type="line"/>
      <point x="33" y="718" type="line"/>
      <point x="35" y="728" type="line"/>
      <point x="83" y="728" type="line"/>
      <point x="180" y="646" type="line"/>
      <point x="181" y="646" type="line"/>
      <point x="304" y="728" type="line"/>
      <point x="358" y="728" type="line"/>
    </contour>
  </outline>
</glyph>
<glyph name="uni01D9" format="1">
  <advance width="722"/>
  <unicode hex="01D9"/>
  <outline>
    <contour>
      <point x="319" y="-10" type="curve" smooth="yes"/>
      <point x="168" y="-10"/>
      <point x="75" y="74"/>
      <point x="75" y="210" type="curve" smooth="yes"/>
      <point x="75" y="239"/>
      <point x="81" y="286"/>
      <point x="86" y="310" type="curve" smooth="yes"/>
      <point x="159" y="688" type="line"/>
      <point x="252" y="688" type="line"/>
      <point x="173" y="276" type="line" smooth="yes"/>
      <point x="168" y="248"/>
      <point x="165" y="225"/>
      <point x="165" y="207" type="curve" smooth="yes"/>
      <point x="165" y="118"/>
      <point x="224" y="66"/>
      <point x="327" y="66" type="curve" smooth="yes"/>
      <point x="452" y="66"/>
      <point x="527" y="132"/>
      <point x="552" y="264" type="curve" smooth="yes"/>
      <point x="634" y="688" type="line"/>
      <point x="727" y="688" type="line"/>
      <point x="644" y="259" type="line" smooth="yes"/>
      <point x="609" y="80"/>
      <point x="499" y="-10"/>
    </contour>
    <contour>
      <point x="467" y="849" type="line"/>
      <point x="550" y="896" type="line"/>
      <point x="625" y="896" type="line"/>
      <point x="625" y="891" type="line"/>
      <point x="507" y="807" type="line"/>
      <point x="412" y="807" type="line"/>
      <point x="326" y="890" type="line"/>
      <point x="327" y="896" type="line"/>
      <point x="403" y="896" type="line"/>
    </contour>
    <contour>
      <point x="585" y="707" type="line"/>
      <point x="505" y="707" type="line"/>
      <point x="523" y="797" type="line"/>
      <point x="603" y="797" type="line"/>
    </contour>
    <contour>
      <point x="374" y="707" type="line"/>
      <point x="294" y="707" type="line"/>
      <point x="312" y="797" type="line"/>
      <point x="391" y="797" type="line"/>
    </contour>
  </outline>
</glyph>
<glyph name="uni01E8" format="1">
  <advance width="667"/>
  <unicode hex="01E8"/>
  <outline>
    <contour>
      <point x="609" y="0" type="line"/>
      <point x="499" y="0" type="line"/>
      <point x="269" y="329" type="line"/>
      <point x="176" y="266" type="line"/>
      <point x="124" y="0" type="line"/>
      <point x="31" y="0" type="line"/>
      <point x="164" y="688" type="line"/>
      <point x="257" y="688" type="line"/>
      <point x="191" y="351" type="line"/>
      <point x="259" y="414" type="line"/>
      <point x="584" y="688" type="line"/>
      <point x="704" y="688" type="line"/>
      <point x="337" y="380" type="line"/>
    </contour>
    <contour>
      <point x="598" y="864" type="line"/>
      <point x="466" y="747" type="line"/>
      <point x="366" y="747" type="line"/>
      <point x="275" y="864" type="line"/>
      <point x="277" y="874" type="line"/>
      <point x="322" y="874" type="line"/>
      <point x="422" y="806" type="line"/>
      <point x="423" y="806" type="line"/>
      <point x="543" y="874" type="line"/>
      <point x="600" y="874" type="line"/>
    </contour>
  </outline>
</glyph>
<glyph name="uni01E9" format="1">
  <advance width="500"/>
  <unicode hex="01E9"/>
  <outline>
    <contour>
      <point x="447" y="0" type="line"/>
      <point x="352" y="0" type="line"/>
      <point x="221" y="245" type="line"/>
      <point x="139" y="185" type="line"/>
      <point x="104" y="0" type="line"/>
      <point x="17" y="0" type="line"/>
      <point x="157" y="725" type="line"/>
      <point x="245" y="725" type="line"/>
      <point x="158" y="277" type="line"/>
      <point x="257" y="370" type="line"/>
      <point x="434" y="528" type="line"/>
      <point x="542" y="528" type="line"/>
      <point x="283" y="301" type="line"/>
    </contour>
    <contour>
      <point x="487" y="890" type="line"/>
      <point x="352" y="758" type="line"/>
      <point x="252" y="758" type="line"/>
      <point x="164" y="890" type="line"/>
      <point x="166" y="899" type="line"/>
      <point x="213" y="899" type="line"/>
      <point x="311" y="817" type="line"/>
      <point x="312" y="817" type="line"/>
      <point x="435" y="899" type="line"/>
      <point x="489" y="899" type="line"/>
    </contour>
  </outline>
</glyph>
<glyph name="uni01ED" format="1">
  <advance width="556"/>
  <unicode hex="01ED"/>
  <outline>
    <contour>
      <point x="524" y="333" type="curve" smooth="yes"/>
      <point x="524" y="249"/>
      <point x="497" y="149"/>
      <point x="449" y="85" type="curve" smooth="yes"/>
      <point x="401" y="22"/>
      <point x="329" y="-10"/>
      <point x="240" y="-10" type="curve" smooth="yes"/>
      <point x="112" y="-10"/>
      <point x="33" y="72"/>
      <point x="33" y="205" type="curve"/>
      <point x="39" y="404"/>
      <point x="137" y="542"/>
      <point x="313" y="538" type="curve" smooth="yes"/>
      <point x="450" y="538"/>
      <point x="524" y="464"/>
    </contour>
    <contour>
      <point x="434" y="333" type="curve"/>
      <point x="434" y="426"/>
      <point x="394" y="473"/>
      <point x="313" y="473" type="curve" smooth="yes"/>
      <point x="269" y="473"/>
      <point x="234" y="462"/>
      <point x="207" y="439" type="curve" smooth="yes"/>
      <point x="180" y="416"/>
      <point x="160" y="382"/>
      <point x="145" y="336" type="curve" smooth="yes"/>
      <point x="130" y="291"/>
      <point x="123" y="246"/>
      <point x="123" y="203" type="curve" smooth="yes"/>
      <point x="123" y="107"/>
      <point x="166" y="55"/>
      <point x="245" y="55" type="curve" smooth="yes"/>
      <point x="312" y="55"/>
      <point x="348" y="77"/>
      <point x="379" y="125" type="curve" smooth="yes"/>
      <point x="410" y="173"/>
      <point x="430" y="252"/>
    </contour>
    <contour>
      <point x="241" y="-208" type="curve" smooth="yes"/>
      <point x="184" y="-208"/>
      <point x="154" y="-174"/>
      <point x="154" y="-126" type="curve" smooth="yes"/>
      <point x="154" y="-71"/>
      <point x="195" y="-23"/>
      <point x="254" y="0" type="curve"/>
      <point x="319" y="0" type="line"/>
      <point x="259" y="-31"/>
      <point x="225" y="-74"/>
      <point x="225" y="-115" type="curve" smooth="yes"/>
      <point x="225" y="-136"/>
      <point x="239" y="-154"/>
      <point x="263" y="-154" type="curve" smooth="yes"/>
      <point x="281" y="-154"/>
      <point x="300" y="-151"/>
      <point x="319" y="-144" type="curve"/>
      <point x="312" y="-195" type="line"/>
      <point x="290" y="-204"/>
      <point x="266" y="-208"/>
    </contour>
    <contour>
      <point x="494" y="666" type="line"/>
      <point x="481" y="604" type="line"/>
      <point x="213" y="604" type="line"/>
      <point x="226" y="666" type="line"/>
    </contour>
  </outline>
</glyph>
<glyph name="uni01EF" format="1">
  <advance width="500"/>
  <unicode hex="01EF"/>
  <outline>
    <contour>
      <point x="87" y="459" type="line"/>
      <point x="100" y="528" type="line"/>
      <point x="502" y="528" type="line"/>
      <point x="486" y="441" type="line"/>
      <point x="270" y="264" type="line"/>
      <point x="366" y="249"/>
      <point x="428" y="175"/>
      <point x="428" y="72" type="curve" smooth="yes"/>
      <point x="428" y="23"/>
      <point x="417" y="-24"/>
      <point x="394" y="-68" type="curve" smooth="yes"/>
      <point x="349" y="-157"/>
      <point x="262" y="-208"/>
      <point x="151" y="-208" type="curve" smooth="yes"/>
      <point x="30" y="-208"/>
      <point x="-40" y="-157"/>
      <point x="-51" y="-60" type="curve"/>
      <point x="33" y="-50" type="line"/>
      <point x="43" y="-109"/>
      <point x="83" y="-139"/>
      <point x="154" y="-139" type="curve" smooth="yes"/>
      <point x="191" y="-139"/>
      <point x="223" y="-129"/>
      <point x="251" y="-110" type="curve" smooth="yes"/>
      <point x="279" y="-91"/>
      <point x="301" y="-65"/>
      <point x="316" y="-30" type="curve" smooth="yes"/>
      <point x="332" y="5"/>
      <point x="340" y="39"/>
      <point x="340" y="72" type="curve" smooth="yes"/>
      <point x="340" y="152"/>
      <point x="286" y="201"/>
      <point x="199" y="201" type="curve" smooth="yes"/>
      <point x="159" y="201" type="line"/>
      <point x="173" y="271" type="line"/>
      <point x="397" y="459" type="line"/>
    </contour>
    <contour>
      <point x="487" y="718" type="line"/>
      <point x="352" y="586" type="line"/>
      <point x="252" y="586" type="line"/>
      <point x="164" y="718" type="line"/>
      <point x="166" y="728" type="line"/>
      <point x="213" y="728" type="line"/>
      <point x="311" y="646" type="line"/>
      <point x="312" y="646" type="line"/>
      <point x="435" y="728" type="line"/>
      <point x="489" y="728" type="line"/>
    </contour>
  </outline>
</glyph>
<glyph name="uni01F1" format="1">
  <advance width="1333"/>
  <unicode hex="01F1"/>
  <outline>
    <contour>
      <point x="164" y="688" type="line"/>
      <point x="363" y="688" type="line" smooth="yes"/>
      <point x="465" y="688"/>
      <point x="545" y="661"/>
      <point x="603" y="607" type="curve" smooth="yes"/>
      <point x="661" y="554"/>
      <point x="690" y="480"/>
      <point x="690" y="386" type="curve" smooth="yes"/>
      <point x="695" y="158"/>
      <point x="520" y="-1"/>
      <point x="281" y="0" type="curve" smooth="yes"/>
      <point x="31" y="0" type="line"/>
    </contour>
    <contour>
      <point x="243" y="613" type="line"/>
      <point x="138" y="75" type="line"/>
      <point x="277" y="75" type="line" smooth="yes"/>
      <point x="468" y="72"/>
      <point x="598" y="197"/>
      <point x="595" y="387" type="curve" smooth="yes"/>
      <point x="595" y="530"/>
      <point x="509" y="613"/>
      <point x="361" y="613" type="curve" smooth="yes"/>
    </contour>
    <contour>
      <point x="1265" y="76" type="line"/>
      <point x="1250" y="0" type="line"/>
      <point x="703" y="0" type="line"/>
      <point x="716" y="70" type="line"/>
      <point x="1230" y="612" type="line"/>
      <point x="857" y="612" type="line"/>
      <point x="872" y="688" type="line"/>
      <point x="1361" y="688" type="line"/>
      <point x="1348" y="620" type="line"/>
      <point x="833" y="76" type="line"/>
    </contour>
  </outline>
</glyph>
<glyph name="uni01F7" format="1">
  <advance width="618"/>
  <unicode hex="01F7"/>
  <outline>
    <contour>
      <point x="107" y="-78" type="curve"/>
      <point x="82" y="-208" type="line"/>
      <point x="-12" y="-208" type="line"/>
      <point x="163" y="688" type="line"/>
      <point x="252" y="688" type="line"/>
      <point x="236" y="605" type="line"/>
      <point x="291" y="667"/>
      <point x="355" y="698"/>
      <point x="427" y="698" type="curve" smooth="yes"/>
      <point x="548" y="698"/>
      <point x="616" y="631"/>
      <point x="616" y="511" type="curve" smooth="yes"/>
      <point x="616" y="436"/>
      <point x="593" y="359"/>
      <point x="548" y="280" type="curve" smooth="yes"/>
      <point x="503" y="201"/>
      <point x="441" y="129"/>
      <point x="362" y="64" type="curve" smooth="yes"/>
      <point x="283" y="-1"/>
      <point x="198" y="-48"/>
    </contour>
    <contour>
      <point x="521" y="507" type="curve" smooth="yes"/>
      <point x="521" y="580"/>
      <point x="483" y="623"/>
      <point x="406" y="623" type="curve" smooth="yes"/>
      <point x="313" y="626"/>
      <point x="225" y="535"/>
      <point x="206" y="435" type="curve" smooth="yes"/>
      <point x="123" y="5" type="line"/>
      <point x="190" y="30"/>
      <point x="254" y="71"/>
      <point x="317" y="128" type="curve" smooth="yes"/>
      <point x="380" y="186"/>
      <point x="430" y="249"/>
      <point x="466" y="318" type="curve" smooth="yes"/>
      <point x="503" y="387"/>
      <point x="521" y="450"/>
    </contour>
  </outline>
</glyph>
<glyph name="Aringacute" format="1">
  <advance width="667"/>
  <unicode hex="01FA"/>
  <outline>
    <contour>
      <point x="613" y="0" type="line"/>
      <point x="518" y="0" type="line"/>
      <point x="481" y="201" type="line"/>
      <point x="169" y="201" type="line"/>
      <point x="52" y="0" type="line"/>
      <point x="-49" y="0" type="line"/>
      <point x="365" y="688" type="line"/>
      <point x="471" y="688" type="line"/>
    </contour>
    <contour>
      <point x="418" y="544" type="line"/>
      <point x="405" y="618" type="line"/>
      <point x="401" y="609"/>
      <point x="395" y="598"/>
      <point x="387" y="584" type="curve" smooth="yes"/>
      <point x="210" y="274" type="line"/>
      <point x="468" y="274" type="line"/>
    </contour>
    <contour>
      <point x="536" y="755" type="curve" smooth="yes"/>
      <point x="536" y="722"/>
      <point x="524" y="694"/>
      <point x="501" y="671" type="curve" smooth="yes"/>
      <point x="478" y="648"/>
      <point x="451" y="637"/>
      <point x="418" y="637" type="curve" smooth="yes"/>
      <point x="385" y="637"/>
      <point x="357" y="648"/>
      <point x="334" y="671" type="curve" smooth="yes"/>
      <point x="311" y="694"/>
      <point x="300" y="722"/>
      <point x="300" y="755" type="curve" smooth="yes"/>
      <point x="300" y="788"/>
      <point x="311" y="815"/>
      <point x="334" y="838" type="curve" smooth="yes"/>
      <point x="357" y="861"/>
      <point x="385" y="873"/>
      <point x="418" y="873" type="curve" smooth="yes"/>
      <point x="450" y="873"/>
      <point x="478" y="861"/>
      <point x="501" y="838" type="curve" smooth="yes"/>
      <point x="524" y="815"/>
      <point x="536" y="788"/>
    </contour>
    <contour>
      <point x="483" y="755" type="curve" smooth="yes"/>
      <point x="483" y="792"/>
      <point x="455" y="820"/>
      <point x="418" y="820" type="curve" smooth="yes"/>
      <point x="379" y="820"/>
      <point x="352" y="791"/>
      <point x="352" y="755" type="curve" smooth="yes"/>
      <point x="352" y="719"/>
      <point x="379" y="688"/>
      <point x="418" y="688" type="curve" smooth="yes"/>
      <point x="455" y="688"/>
      <point x="483" y="718"/>
    </contour>
    <contour>
      <point x="442" y="894" type="line"/>
      <point x="387" y="894" type="line"/>
      <point x="388" y="904" type="line"/>
      <point x="516" y="1014" type="line"/>
      <point x="617" y="1014" type="line"/>
      <point x="614" y="1000" type="line"/>
    </contour>
  </outline>
</glyph>
<glyph name="AEacute" format="1">
  <advance width="1000"/>
  <unicode hex="01FC"/>
  <outline>
    <contour>
      <point x="896" y="0" type="line"/>
      <point x="421" y="0" type="line"/>
      <point x="461" y="201" type="line"/>
      <point x="196" y="201" type="line"/>
      <point x="60" y="0" type="line"/>
      <point x="-40" y="0" type="line"/>
      <point x="429" y="688" type="line"/>
      <point x="1009" y="688" type="line"/>
      <point x="995" y="612" type="line"/>
      <point x="634" y="612" type="line"/>
      <point x="591" y="391" type="line"/>
      <point x="922" y="391" type="line"/>
      <point x="908" y="316" type="line"/>
      <point x="576" y="316" type="line"/>
      <point x="530" y="76" type="line"/>
      <point x="911" y="76" type="line"/>
    </contour>
    <contour>
      <point x="475" y="274" type="line"/>
      <point x="542" y="616" type="line"/>
      <point x="468" y="616" type="line"/>
      <point x="401" y="511" type="line"/>
      <point x="244" y="274" type="line"/>
    </contour>
    <contour>
      <point x="673" y="747" type="line"/>
      <point x="617" y="747" type="line"/>
      <point x="619" y="757" type="line"/>
      <point x="746" y="867" type="line"/>
      <point x="847" y="867" type="line"/>
      <point x="845" y="853" type="line"/>
    </contour>
  </outline>
</glyph>
<glyph name="Oslashacute" format="1">
  <advance width="778"/>
  <unicode hex="01FE"/>
  <outline>
    <contour>
      <point x="826" y="716" type="line"/>
      <point x="695" y="588" type="line"/>
      <point x="728" y="541"/>
      <point x="745" y="484"/>
      <point x="745" y="416" type="curve" smooth="yes"/>
      <point x="741" y="155"/>
      <point x="573" y="-10"/>
      <point x="341" y="-10" type="curve" smooth="yes"/>
      <point x="259" y="-10"/>
      <point x="193" y="10"/>
      <point x="144" y="51" type="curve"/>
      <point x="65" y="-26" type="line"/>
      <point x="-27" y="-26" type="line"/>
      <point x="100" y="98" type="line"/>
      <point x="66" y="147"/>
      <point x="49" y="207"/>
      <point x="49" y="280" type="curve" smooth="yes"/>
      <point x="49" y="357"/>
      <point x="66" y="429"/>
      <point x="100" y="494" type="curve" smooth="yes"/>
      <point x="169" y="625"/>
      <point x="298" y="698"/>
      <point x="453" y="698" type="curve" smooth="yes"/>
      <point x="534" y="698"/>
      <point x="599" y="677"/>
      <point x="650" y="636" type="curve"/>
      <point x="732" y="716" type="line"/>
    </contour>
    <contour>
      <point x="449" y="623" type="curve" smooth="yes"/>
      <point x="384" y="623"/>
      <point x="328" y="608"/>
      <point x="283" y="579" type="curve" smooth="yes"/>
      <point x="238" y="550"/>
      <point x="203" y="507"/>
      <point x="179" y="449" type="curve" smooth="yes"/>
      <point x="155" y="392"/>
      <point x="143" y="334"/>
      <point x="143" y="275" type="curve" smooth="yes"/>
      <point x="143" y="230"/>
      <point x="150" y="193"/>
      <point x="165" y="162" type="curve"/>
      <point x="590" y="577" type="line"/>
      <point x="555" y="608"/>
      <point x="508" y="623"/>
    </contour>
    <contour>
      <point x="652" y="414" type="curve" smooth="yes"/>
      <point x="652" y="457"/>
      <point x="644" y="494"/>
      <point x="629" y="524" type="curve"/>
      <point x="205" y="110" type="line"/>
      <point x="239" y="81"/>
      <point x="286" y="66"/>
      <point x="346" y="66" type="curve" smooth="yes"/>
      <point x="410" y="66"/>
      <point x="464" y="80"/>
      <point x="509" y="108" type="curve" smooth="yes"/>
      <point x="554" y="136"/>
      <point x="589" y="178"/>
      <point x="614" y="234" type="curve" smooth="yes"/>
      <point x="639" y="291"/>
      <point x="652" y="351"/>
    </contour>
    <contour>
      <point x="473" y="747" type="line"/>
      <point x="417" y="747" type="line"/>
      <point x="419" y="757" type="line"/>
      <point x="546" y="867" type="line"/>
      <point x="647" y="867" type="line"/>
      <point x="645" y="853" type="line"/>
    </contour>
  </outline>
</glyph>
<glyph name="uni0200" format="1">
  <advance width="667"/>
  <unicode hex="0200"/>
  <outline>
    <contour>
      <point x="613" y="0" type="line"/>
      <point x="518" y="0" type="line"/>
      <point x="481" y="201" type="line"/>
      <point x="169" y="201" type="line"/>
      <point x="52" y="0" type="line"/>
      <point x="-49" y="0" type="line"/>
      <point x="365" y="688" type="line"/>
      <point x="471" y="688" type="line"/>
    </contour>
    <contour>
      <point x="418" y="544" type="line"/>
      <point x="405" y="618" type="line"/>
      <point x="401" y="609"/>
      <point x="395" y="598"/>
      <point x="387" y="584" type="curve" smooth="yes"/>
      <point x="210" y="274" type="line"/>
      <point x="468" y="274" type="line"/>
    </contour>
    <contour>
      <point x="369" y="747" type="line"/>
      <point x="325" y="747" type="line"/>
      <point x="205" y="869" type="line"/>
      <point x="207" y="883" type="line"/>
      <point x="306" y="883" type="line"/>
      <point x="371" y="757" type="line"/>
    </contour>
    <contour>
      <point x="531" y="747" type="line"/>
      <point x="487" y="747" type="line"/>
      <point x="366" y="869" type="line"/>
      <point x="368" y="883" type="line"/>
      <point x="467" y="883" type="line"/>
      <point x="533" y="757" type="line"/>
    </contour>
  </outline>
</glyph>
<glyph name="uni0204" format="1">
  <advance width="667"/>
  <unicode hex="0204"/>
  <outline>
    <contour>
      <point x="563" y="0" type="line"/>
      <point x="31" y="0" type="line"/>
      <point x="164" y="688" type="line"/>
      <point x="676" y="688" type="line"/>
      <point x="662" y="612" type="line"/>
      <point x="243" y="612" type="line"/>
      <point x="200" y="391" type="line"/>
      <point x="589" y="391" type="line"/>
      <point x="575" y="316" type="line"/>
      <point x="185" y="316" type="line"/>
      <point x="139" y="76" type="line"/>
      <point x="578" y="76" type="line"/>
    </contour>
    <contour>
      <point x="405" y="748" type="line"/>
      <point x="361" y="748" type="line"/>
      <point x="241" y="870" type="line"/>
      <point x="243" y="884" type="line"/>
      <point x="342" y="884" type="line"/>
      <point x="407" y="757" type="line"/>
    </contour>
    <contour>
      <point x="567" y="748" type="line"/>
      <point x="523" y="748" type="line"/>
      <point x="402" y="870" type="line"/>
      <point x="404" y="884" type="line"/>
      <point x="503" y="884" type="line"/>
      <point x="569" y="757" type="line"/>
    </contour>
  </outline>
</glyph>
<glyph name="uni0208" format="1">
  <advance width="278"/>
  <unicode hex="0208"/>
  <outline>
    <contour>
      <point x="133" y="0" type="line"/>
      <point x="40" y="0" type="line"/>
      <point x="173" y="688" type="line"/>
      <point x="267" y="688" type="line"/>
    </contour>
    <contour>
      <point x="193" y="747" type="line"/>
      <point x="149" y="747" type="line"/>
      <point x="29" y="869" type="line"/>
      <point x="31" y="883" type="line"/>
      <point x="130" y="883" type="line"/>
      <point x="195" y="757" type="line"/>
    </contour>
    <contour>
      <point x="355" y="747" type="line"/>
      <point x="311" y="747" type="line"/>
      <point x="190" y="869" type="line"/>
      <point x="192" y="883" type="line"/>
      <point x="292" y="883" type="line"/>
      <point x="357" y="757" type="line"/>
    </contour>
  </outline>
</glyph>
<glyph name="uni0212" format="1">
  <advance width="722"/>
  <unicode hex="0212"/>
  <outline>
    <contour>
      <point x="614" y="0" type="line"/>
      <point x="513" y="0" type="line"/>
      <point x="395" y="286" type="line"/>
      <point x="179" y="286" type="line"/>
      <point x="124" y="0" type="line"/>
      <point x="31" y="0" type="line"/>
      <point x="164" y="688" type="line"/>
      <point x="463" y="688" type="line" smooth="yes"/>
      <point x="532" y="688"/>
      <point x="588" y="671"/>
      <point x="629" y="638" type="curve" smooth="yes"/>
      <point x="670" y="605"/>
      <point x="691" y="561"/>
      <point x="691" y="507" type="curve" smooth="yes"/>
      <point x="691" y="386"/>
      <point x="620" y="313"/>
      <point x="483" y="294" type="curve"/>
    </contour>
    <contour>
      <point x="194" y="359" type="line"/>
      <point x="418" y="359" type="line" smooth="yes"/>
      <point x="537" y="359"/>
      <point x="597" y="411"/>
      <point x="597" y="500" type="curve" smooth="yes"/>
      <point x="597" y="573"/>
      <point x="548" y="613"/>
      <point x="452" y="613" type="curve" smooth="yes"/>
      <point x="243" y="613" type="line"/>
    </contour>
    <contour>
      <point x="442" y="875" type="curve" smooth="yes"/>
      <point x="517" y="875"/>
      <point x="560" y="832"/>
      <point x="561" y="757" type="curve"/>
      <point x="560" y="748" type="line"/>
      <point x="509" y="748" type="line"/>
      <point x="508" y="787"/>
      <point x="478" y="812"/>
      <point x="430" y="812" type="curve" smooth="yes"/>
      <point x="386" y="812"/>
      <point x="345" y="791"/>
      <point x="326" y="748" type="curve"/>
      <point x="275" y="748" type="line"/>
      <point x="300" y="825"/>
      <point x="363" y="875"/>
    </contour>
  </outline>
</glyph>
<glyph name="uni0213" format="1">
  <advance width="333"/>
  <unicode hex="0213"/>
  <outline>
    <contour>
      <point x="367" y="531" type="curve"/>
      <point x="351" y="458" type="line"/>
      <point x="336" y="462"/>
      <point x="322" y="464"/>
      <point x="307" y="464" type="curve" smooth="yes"/>
      <point x="272" y="464"/>
      <point x="241" y="446"/>
      <point x="214" y="410" type="curve" smooth="yes"/>
      <point x="187" y="375"/>
      <point x="168" y="330"/>
      <point x="158" y="275" type="curve" smooth="yes"/>
      <point x="104" y="0" type="line"/>
      <point x="17" y="0" type="line"/>
      <point x="96" y="405" type="line"/>
      <point x="108" y="473" type="line"/>
      <point x="117" y="528" type="line"/>
      <point x="200" y="528" type="line"/>
      <point x="183" y="420" type="line"/>
      <point x="185" y="420" type="line"/>
      <point x="228" y="507"/>
      <point x="265" y="538"/>
      <point x="320" y="538" type="curve" smooth="yes"/>
      <point x="335" y="538"/>
      <point x="351" y="536"/>
    </contour>
    <contour>
      <point x="277" y="716" type="curve" smooth="yes"/>
      <point x="352" y="716"/>
      <point x="395" y="672"/>
      <point x="396" y="599" type="curve"/>
      <point x="395" y="589" type="line"/>
      <point x="344" y="589" type="line"/>
      <point x="343" y="629"/>
      <point x="313" y="653"/>
      <point x="265" y="653" type="curve" smooth="yes"/>
      <point x="221" y="653"/>
      <point x="180" y="633"/>
      <point x="161" y="589" type="curve"/>
      <point x="110" y="589" type="line"/>
      <point x="135" y="666"/>
      <point x="198" y="716"/>
    </contour>
  </outline>
</glyph>
<glyph name="uni0216" format="1">
  <advance width="722"/>
  <unicode hex="0216"/>
  <outline>
    <contour>
      <point x="319" y="-10" type="curve" smooth="yes"/>
      <point x="168" y="-10"/>
      <point x="75" y="74"/>
      <point x="75" y="210" type="curve" smooth="yes"/>
      <point x="75" y="239"/>
      <point x="81" y="286"/>
      <point x="86" y="310" type="curve" smooth="yes"/>
      <point x="159" y="688" type="line"/>
      <point x="252" y="688" type="line"/>
      <point x="173" y="276" type="line" smooth="yes"/>
      <point x="168" y="248"/>
      <point x="165" y="225"/>
      <point x="165" y="207" type="curve" smooth="yes"/>
      <point x="165" y="118"/>
      <point x="224" y="66"/>
      <point x="327" y="66" type="curve" smooth="yes"/>
      <point x="452" y="66"/>
      <point x="527" y="132"/>
      <point x="552" y="264" type="curve" smooth="yes"/>
      <point x="634" y="688" type="line"/>
      <point x="727" y="688" type="line"/>
      <point x="644" y="259" type="line" smooth="yes"/>
      <point x="609" y="80"/>
      <point x="499" y="-10"/>
    </contour>
    <contour>
      <point x="475" y="874" type="curve" smooth="yes"/>
      <point x="550" y="874"/>
      <point x="593" y="830"/>
      <point x="594" y="757" type="curve"/>
      <point x="593" y="747" type="line"/>
      <point x="542" y="747" type="line"/>
      <point x="541" y="787"/>
      <point x="511" y="812"/>
      <point x="463" y="812" type="curve" smooth="yes"/>
      <point x="420" y="812"/>
      <point x="378" y="791"/>
      <point x="359" y="747" type="curve"/>
      <point x="309" y="747" type="line"/>
      <point x="334" y="824"/>
      <point x="396" y="874"/>
    </contour>
  </outline>
</glyph>
<glyph name="uni021C" format="1">
  <advance width="545"/>
  <unicode hex="021C"/>
  <outline>
    <contour>
      <point x="-34" y="-208" type="curve"/>
      <point x="-19" y="-127" type="line"/>
      <point x="240" y="-60"/>
      <point x="383" y="56"/>
      <point x="383" y="204" type="curve" smooth="yes"/>
      <point x="383" y="240"/>
      <point x="376" y="267"/>
      <point x="361" y="286" type="curve"/>
      <point x="294" y="241"/>
      <point x="185" y="195"/>
      <point x="35" y="148" type="curve"/>
      <point x="51" y="233" type="line"/>
      <point x="190" y="274"/>
      <point x="289" y="316"/>
      <point x="350" y="360" type="curve" smooth="yes"/>
      <point x="411" y="405"/>
      <point x="442" y="457"/>
      <point x="442" y="516" type="curve" smooth="yes"/>
      <point x="442" y="579"/>
      <point x="397" y="620"/>
      <point x="324" y="620" type="curve" smooth="yes"/>
      <point x="252" y="620"/>
      <point x="201" y="595"/>
      <point x="148" y="526" type="curve"/>
      <point x="82" y="569" type="line"/>
      <point x="119" y="616"/>
      <point x="157" y="650"/>
      <point x="195" y="669" type="curve" smooth="yes"/>
      <point x="234" y="689"/>
      <point x="280" y="699"/>
      <point x="335" y="699" type="curve" smooth="yes"/>
      <point x="455" y="699"/>
      <point x="535" y="630"/>
      <point x="535" y="525" type="curve" smooth="yes"/>
      <point x="535" y="451"/>
      <point x="501" y="388"/>
      <point x="433" y="336" type="curve"/>
      <point x="462" y="300"/>
      <point x="477" y="258"/>
      <point x="477" y="210" type="curve" smooth="yes"/>
      <point x="477" y="18"/>
      <point x="303" y="-125"/>
    </contour>
  </outline>
</glyph>
<glyph name="uni0220" format="1">
  <advance width="669"/>
  <unicode hex="0220"/>
  <outline>
    <contour>
      <point x="501" y="-208" type="line"/>
      <point x="409" y="-208" type="line"/>
      <point x="538" y="451" type="line" smooth="yes"/>
      <point x="542" y="474"/>
      <point x="544" y="494"/>
      <point x="544" y="512" type="curve" smooth="yes"/>
      <point x="544" y="583"/>
      <point x="512" y="622"/>
      <point x="431" y="622" type="curve" smooth="yes"/>
      <point x="340" y="625"/>
      <point x="224" y="528"/>
      <point x="209" y="435" type="curve" smooth="yes"/>
      <point x="125" y="0" type="line"/>
      <point x="31" y="0" type="line"/>
      <point x="135" y="533" type="line"/>
      <point x="163" y="688" type="line"/>
      <point x="252" y="688" type="line"/>
      <point x="248" y="659"/>
      <point x="241" y="618"/>
      <point x="232" y="565" type="curve"/>
      <point x="234" y="565" type="line"/>
      <point x="293" y="654"/>
      <point x="371" y="698"/>
      <point x="458" y="698" type="curve" smooth="yes"/>
      <point x="573" y="698"/>
      <point x="637" y="640"/>
      <point x="637" y="523" type="curve" smooth="yes"/>
      <point x="637" y="498"/>
      <point x="634" y="471"/>
      <point x="628" y="441" type="curve" smooth="yes"/>
    </contour>
  </outline>
</glyph>
<glyph name="uni0222" format="1">
  <advance width="604"/>
  <unicode hex="0222"/>
  <outline>
    <contour>
      <point x="388" y="633" type="curve"/>
      <point x="400" y="698" type="line"/>
      <point x="527" y="694"/>
      <point x="597" y="639"/>
      <point x="597" y="544" type="curve" smooth="yes"/>
      <point x="597" y="451"/>
      <point x="529" y="380"/>
      <point x="432" y="361" type="curve"/>
      <point x="431" y="359" type="line"/>
      <point x="507" y="344"/>
      <point x="552" y="294"/>
      <point x="552" y="218" type="curve" smooth="yes"/>
      <point x="552" y="147"/>
      <point x="526" y="92"/>
      <point x="473" y="51" type="curve" smooth="yes"/>
      <point x="420" y="10"/>
      <point x="350" y="-10"/>
      <point x="261" y="-10" type="curve" smooth="yes"/>
      <point x="116" y="-10"/>
      <point x="33" y="56"/>
      <point x="33" y="163" type="curve" smooth="yes"/>
      <point x="33" y="267"/>
      <point x="100" y="343"/>
      <point x="216" y="360" type="curve"/>
      <point x="216" y="362" type="line"/>
      <point x="144" y="383"/>
      <point x="108" y="420"/>
      <point x="108" y="474" type="curve" smooth="yes"/>
      <point x="108" y="574"/>
      <point x="202" y="631"/>
      <point x="358" y="631" type="curve"/>
      <point x="346" y="567" type="line"/>
      <point x="246" y="566"/>
      <point x="198" y="529"/>
      <point x="198" y="470" type="curve" smooth="yes"/>
      <point x="198" y="422"/>
      <point x="246" y="395"/>
      <point x="331" y="395" type="curve" smooth="yes"/>
      <point x="444" y="395"/>
      <point x="505" y="459"/>
      <point x="505" y="541" type="curve" smooth="yes"/>
      <point x="505" y="594"/>
      <point x="469" y="629"/>
    </contour>
    <contour>
      <point x="268" y="59" type="curve" smooth="yes"/>
      <point x="388" y="59"/>
      <point x="461" y="118"/>
      <point x="461" y="219" type="curve" smooth="yes"/>
      <point x="461" y="290"/>
      <point x="412" y="328"/>
      <point x="317" y="328" type="curve" smooth="yes"/>
      <point x="200" y="328"/>
      <point x="124" y="265"/>
      <point x="124" y="170" type="curve" smooth="yes"/>
      <point x="124" y="97"/>
      <point x="175" y="59"/>
    </contour>
  </outline>
</glyph>
<glyph name="uni0228" format="1">
  <advance width="667"/>
  <unicode hex="0228"/>
  <outline>
    <contour>
      <point x="563" y="0" type="line"/>
      <point x="31" y="0" type="line"/>
      <point x="164" y="688" type="line"/>
      <point x="676" y="688" type="line"/>
      <point x="662" y="612" type="line"/>
      <point x="243" y="612" type="line"/>
      <point x="200" y="391" type="line"/>
      <point x="589" y="391" type="line"/>
      <point x="575" y="316" type="line"/>
      <point x="185" y="316" type="line"/>
      <point x="139" y="76" type="line"/>
      <point x="578" y="76" type="line"/>
    </contour>
    <contour>
      <point x="364" y="0" type="line"/>
      <point x="335" y="-47" type="line"/>
      <point x="388" y="-50"/>
      <point x="414" y="-74"/>
      <point x="414" y="-113" type="curve" smooth="yes"/>
      <point x="414" y="-176"/>
      <point x="365" y="-208"/>
      <point x="266" y="-208" type="curve" smooth="yes"/>
      <point x="250" y="-208"/>
      <point x="233" y="-207"/>
      <point x="214" y="-204" type="curve"/>
      <point x="225" y="-160" type="line"/>
      <point x="240" y="-162"/>
      <point x="255" y="-163"/>
      <point x="268" y="-163" type="curve" smooth="yes"/>
      <point x="327" y="-163"/>
      <point x="349" y="-148"/>
      <point x="349" y="-119" type="curve" smooth="yes"/>
      <point x="349" y="-96"/>
      <point x="330" y="-84"/>
      <point x="291" y="-84" type="curve" smooth="yes"/>
      <point x="276" y="-84"/>
      <point x="267" y="-84"/>
      <point x="262" y="-85" type="curve" smooth="yes"/>
      <point x="312" y="0" type="line"/>
    </contour>
  </outline>
</glyph>
<glyph name="uni0232" format="1">
  <advance width="667"/>
  <unicode hex="0232"/>
  <outline>
    <contour>
      <point x="383" y="285" type="line"/>
      <point x="328" y="0" type="line"/>
      <point x="235" y="0" type="line"/>
      <point x="292" y="285" type="line"/>
      <point x="104" y="688" type="line"/>
      <point x="200" y="688" type="line"/>
      <point x="349" y="359" type="line"/>
      <point x="623" y="688" type="line"/>
      <point x="727" y="688" type="line"/>
    </contour>
    <contour>
      <point x="580" y="829" type="line"/>
      <point x="567" y="767" type="line"/>
      <point x="298" y="767" type="line"/>
      <point x="311" y="829" type="line"/>
    </contour>
  </outline>
</glyph>
<glyph name="uni0234" format="1">
  <advance width="294"/>
  <unicode hex="0234"/>
  <outline>
    <contour>
      <point x="12" y="-21" type="curve"/>
      <point x="157" y="725" type="line"/>
      <point x="245" y="725" type="line"/>
      <point x="109" y="32" type="line"/>
      <point x="128" y="39"/>
      <point x="147" y="42"/>
      <point x="166" y="42" type="curve" smooth="yes"/>
      <point x="239" y="42"/>
      <point x="282" y="-2"/>
      <point x="282" y="-71" type="curve" smooth="yes"/>
      <point x="282" y="-156"/>
      <point x="226" y="-208"/>
      <point x="133" y="-208" type="curve" smooth="yes"/>
      <point x="65" y="-208"/>
      <point x="22" y="-170"/>
      <point x="9" y="-113" type="curve"/>
      <point x="-17" y="-137"/>
      <point x="-45" y="-166"/>
      <point x="-76" y="-199" type="curve"/>
      <point x="-125" y="-151" type="line"/>
      <point x="-82" y="-101"/>
      <point x="-36" y="-58"/>
    </contour>
    <contour>
      <point x="139" y="-137" type="curve" smooth="yes"/>
      <point x="176" y="-137"/>
      <point x="204" y="-115"/>
      <point x="204" y="-76" type="curve" smooth="yes"/>
      <point x="204" y="-47"/>
      <point x="185" y="-28"/>
      <point x="157" y="-28" type="curve" smooth="yes"/>
      <point x="134" y="-28"/>
      <point x="111" y="-36"/>
      <point x="88" y="-52" type="curve"/>
      <point x="85" y="-79" type="line" smooth="yes"/>
      <point x="85" y="-114"/>
      <point x="106" y="-137"/>
    </contour>
  </outline>
</glyph>
<glyph name="uni0236" format="1">
  <advance width="348"/>
  <unicode hex="0236"/>
  <outline>
    <contour>
      <point x="-29" y="-1" type="curve"/>
      <point x="-78" y="47" type="line"/>
      <point x="-34" y="97"/>
      <point x="12" y="140"/>
      <point x="59" y="176" type="curve"/>
      <point x="114" y="464" type="line"/>
      <point x="53" y="464" type="line"/>
      <point x="66" y="528" type="line"/>
      <point x="128" y="528" type="line"/>
      <point x="179" y="646" type="line"/>
      <point x="238" y="646" type="line"/>
      <point x="215" y="528" type="line"/>
      <point x="313" y="528" type="line"/>
      <point x="300" y="464" type="line"/>
      <point x="202" y="464" type="line"/>
      <point x="157" y="229" type="line"/>
      <point x="178" y="236"/>
      <point x="196" y="240"/>
      <point x="213" y="240" type="curve" smooth="yes"/>
      <point x="288" y="240"/>
      <point x="329" y="197"/>
      <point x="329" y="126" type="curve" smooth="yes"/>
      <point x="329" y="41"/>
      <point x="274" y="-10"/>
      <point x="182" y="-10" type="curve" smooth="yes"/>
      <point x="111" y="-10"/>
      <point x="69" y="22"/>
      <point x="57" y="85" type="curve"/>
      <point x="31" y="60"/>
      <point x="2" y="32"/>
    </contour>
    <contour>
      <point x="189" y="61" type="curve" smooth="yes"/>
      <point x="226" y="61"/>
      <point x="251" y="82"/>
      <point x="251" y="122" type="curve" smooth="yes"/>
      <point x="251" y="151"/>
      <point x="233" y="169"/>
      <point x="204" y="169" type="curve" smooth="yes"/>
      <point x="184" y="169"/>
      <point x="163" y="162"/>
      <point x="141" y="147" type="curve"/>
      <point x="139" y="136"/>
      <point x="138" y="127"/>
      <point x="138" y="119" type="curve" smooth="yes"/>
      <point x="138" y="82"/>
      <point x="158" y="61"/>
    </contour>
  </outline>
</glyph>
<glyph name="uni023A" format="1">
  <advance width="667"/>
  <unicode hex="023A"/>
  <outline>
    <contour>
      <point x="717" y="739" type="line"/>
      <point x="513" y="484" type="line"/>
      <point x="613" y="0" type="line"/>
      <point x="518" y="0" type="line"/>
      <point x="481" y="201" type="line"/>
      <point x="287" y="201" type="line"/>
      <point x="84" y="-52" type="line"/>
      <point x="0" y="-52" type="line"/>
      <point x="42" y="0" type="line"/>
      <point x="-49" y="0" type="line"/>
      <point x="365" y="688" type="line"/>
      <point x="471" y="688" type="line"/>
      <point x="496" y="568" type="line"/>
      <point x="632" y="739" type="line"/>
    </contour>
    <contour>
      <point x="391" y="590" type="curve" smooth="yes"/>
      <point x="210" y="274" type="line"/>
      <point x="260" y="274" type="line"/>
      <point x="429" y="485" type="line"/>
      <point x="405" y="618" type="line" smooth="yes"/>
      <point x="404" y="615"/>
      <point x="400" y="606"/>
    </contour>
    <contour>
      <point x="468" y="274" type="line"/>
      <point x="445" y="398" type="line"/>
      <point x="345" y="274" type="line"/>
    </contour>
    <contour>
      <point x="169" y="201" type="line"/>
      <point x="81" y="48" type="line"/>
      <point x="202" y="201" type="line"/>
    </contour>
  </outline>
</glyph>
<glyph name="uni023B" format="1">
  <advance width="722"/>
  <unicode hex="023B"/>
  <outline>
    <contour>
      <point x="742" y="739" type="line"/>
      <point x="658" y="635" type="line"/>
      <point x="692" y="607"/>
      <point x="715" y="572"/>
      <point x="728" y="530" type="curve"/>
      <point x="640" y="503" type="line"/>
      <point x="632" y="526"/>
      <point x="619" y="547"/>
      <point x="602" y="565" type="curve"/>
      <point x="229" y="98" type="line"/>
      <point x="261" y="77"/>
      <point x="301" y="66"/>
      <point x="348" y="66" type="curve" smooth="yes"/>
      <point x="444" y="66"/>
      <point x="529" y="115"/>
      <point x="593" y="208" type="curve"/>
      <point x="663" y="165" type="line"/>
      <point x="582" y="42"/>
      <point x="479" y="-10"/>
      <point x="342" y="-10" type="curve" smooth="yes"/>
      <point x="276" y="-10"/>
      <point x="221" y="4"/>
      <point x="176" y="32" type="curve"/>
      <point x="108" y="-52" type="line"/>
      <point x="24" y="-52" type="line"/>
      <point x="125" y="74" type="line"/>
      <point x="78" y="125"/>
      <point x="55" y="193"/>
      <point x="55" y="278" type="curve" smooth="yes"/>
      <point x="55" y="358"/>
      <point x="72" y="430"/>
      <point x="106" y="495" type="curve" smooth="yes"/>
      <point x="175" y="624"/>
      <point x="303" y="698"/>
      <point x="452" y="698" type="curve" smooth="yes"/>
      <point x="509" y="698"/>
      <point x="558" y="689"/>
      <point x="601" y="670" type="curve"/>
      <point x="657" y="739" type="line"/>
    </contour>
    <contour>
      <point x="147" y="276" type="curve" smooth="yes"/>
      <point x="147" y="225"/>
      <point x="159" y="181"/>
      <point x="182" y="146" type="curve"/>
      <point x="547" y="603" type="line"/>
      <point x="518" y="616"/>
      <point x="485" y="622"/>
      <point x="447" y="622" type="curve" smooth="yes"/>
      <point x="266" y="622"/>
      <point x="147" y="483"/>
    </contour>
  </outline>
</glyph>
<glyph name="uni023F" format="1">
  <advance width="500"/>
  <unicode hex="023F"/>
  <outline>
    <contour>
      <point x="443" y="155" type="curve"/>
      <point x="443" y="48"/>
      <point x="360" y="-10"/>
      <point x="208" y="-10" type="curve" smooth="yes"/>
      <point x="190" y="-10"/>
      <point x="170" y="-8"/>
      <point x="149" y="-5" type="curve"/>
      <point x="217" y="-97" type="line" smooth="yes"/>
      <point x="235" y="-121"/>
      <point x="256" y="-133"/>
      <point x="280" y="-133" type="curve" smooth="yes"/>
      <point x="299" y="-133"/>
      <point x="321" y="-124"/>
      <point x="345" y="-105" type="curve"/>
      <point x="384" y="-160" type="line"/>
      <point x="351" y="-192"/>
      <point x="312" y="-208"/>
      <point x="269" y="-208" type="curve" smooth="yes"/>
      <point x="238" y="-208"/>
      <point x="215" y="-201"/>
      <point x="194" y="-186" type="curve" smooth="yes"/>
      <point x="184" y="-179"/>
      <point x="174" y="-169"/>
      <point x="164" y="-158" type="curve" smooth="yes"/>
      <point x="155" y="-147"/>
      <point x="130" y="-112"/>
      <point x="90" y="-53" type="curve" smooth="yes"/>
      <point x="51" y="5"/>
      <point x="22" y="52"/>
      <point x="3" y="87" type="curve"/>
      <point x="76" y="130" type="line"/>
      <point x="105" y="71"/>
      <point x="139" y="54"/>
      <point x="215" y="54" type="curve" smooth="yes"/>
      <point x="308" y="54"/>
      <point x="357" y="87"/>
      <point x="357" y="147" type="curve" smooth="yes"/>
      <point x="357" y="160"/>
      <point x="353" y="172"/>
      <point x="346" y="182" type="curve" smooth="yes"/>
      <point x="339" y="192"/>
      <point x="329" y="201"/>
      <point x="314" y="209" type="curve" smooth="yes"/>
      <point x="300" y="217"/>
      <point x="271" y="228"/>
      <point x="227" y="243" type="curve" smooth="yes"/>
      <point x="106" y="283"/>
      <point x="74" y="317"/>
      <point x="69" y="389" type="curve"/>
      <point x="69" y="484"/>
      <point x="148" y="537"/>
      <point x="285" y="537" type="curve" smooth="yes"/>
      <point x="400" y="537"/>
      <point x="465" y="495"/>
      <point x="479" y="412" type="curve"/>
      <point x="400" y="400" type="line"/>
      <point x="385" y="451"/>
      <point x="347" y="473"/>
      <point x="279" y="473" type="curve" smooth="yes"/>
      <point x="199" y="473"/>
      <point x="154" y="446"/>
      <point x="154" y="399" type="curve" smooth="yes"/>
      <point x="154" y="385"/>
      <point x="157" y="373"/>
      <point x="164" y="364" type="curve" smooth="yes"/>
      <point x="171" y="355"/>
      <point x="180" y="346"/>
      <point x="193" y="339" type="curve" smooth="yes"/>
      <point x="206" y="332"/>
      <point x="236" y="321"/>
      <point x="283" y="306" type="curve" smooth="yes"/>
      <point x="403" y="268"/>
      <point x="437" y="231"/>
    </contour>
  </outline>
</glyph>
<glyph name="uni0240" format="1">
  <advance width="500"/>
  <unicode hex="0240"/>
  <outline>
    <contour>
      <point x="100" y="68" type="line"/>
      <point x="99" y="67" type="line"/>
      <point x="155" y="61"/>
      <point x="167" y="60"/>
      <point x="212" y="-4" type="curve" smooth="yes"/>
      <point x="268" y="-91"/>
      <point x="288" y="-136"/>
      <point x="324" y="-133" type="curve" smooth="yes"/>
      <point x="341" y="-133"/>
      <point x="362" y="-122"/>
      <point x="385" y="-100" type="curve"/>
      <point x="426" y="-155" type="line"/>
      <point x="389" y="-190"/>
      <point x="350" y="-208"/>
      <point x="311" y="-208" type="curve" smooth="yes"/>
      <point x="266" y="-208"/>
      <point x="234" y="-191"/>
      <point x="197" y="-131" type="curve" smooth="yes"/>
      <point x="137" y="-37" type="line" smooth="yes"/>
      <point x="118" y="-8"/>
      <point x="104" y="0"/>
      <point x="55" y="0" type="curve" smooth="yes"/>
      <point x="-21" y="0" type="line"/>
      <point x="-8" y="67" type="line"/>
      <point x="381" y="460" type="line"/>
      <point x="87" y="460" type="line"/>
      <point x="101" y="528" type="line"/>
      <point x="503" y="528" type="line"/>
      <point x="490" y="461" type="line"/>
    </contour>
  </outline>
</glyph>
<glyph name="uni0244" format="1">
  <advance width="722"/>
  <unicode hex="0244"/>
  <outline>
    <contour>
      <point x="31" y="320" type="line"/>
      <point x="45" y="395" type="line"/>
      <point x="102" y="395" type="line"/>
      <point x="159" y="688" type="line"/>
      <point x="252" y="688" type="line"/>
      <point x="196" y="395" type="line"/>
      <point x="578" y="395" type="line"/>
      <point x="634" y="688" type="line"/>
      <point x="727" y="688" type="line"/>
      <point x="670" y="395" type="line"/>
      <point x="728" y="395" type="line"/>
      <point x="713" y="320" type="line"/>
      <point x="656" y="320" type="line"/>
      <point x="644" y="259" type="line" smooth="yes"/>
      <point x="611" y="82"/>
      <point x="499" y="-10"/>
      <point x="319" y="-10" type="curve" smooth="yes"/>
      <point x="168" y="-10"/>
      <point x="75" y="73"/>
      <point x="75" y="210" type="curve" smooth="yes"/>
      <point x="75" y="237"/>
      <point x="79" y="274"/>
      <point x="88" y="320" type="curve"/>
    </contour>
    <contour>
      <point x="327" y="66" type="curve" smooth="yes"/>
      <point x="452" y="66"/>
      <point x="527" y="132"/>
      <point x="552" y="264" type="curve" smooth="yes"/>
      <point x="563" y="320" type="line"/>
      <point x="182" y="320" type="line"/>
      <point x="173" y="276" type="line" smooth="yes"/>
      <point x="168" y="248"/>
      <point x="165" y="225"/>
      <point x="165" y="207" type="curve" smooth="yes"/>
      <point x="165" y="118"/>
      <point x="224" y="66"/>
    </contour>
  </outline>
</glyph>
<glyph name="uni0247" format="1">
  <advance width="556"/>
  <unicode hex="0247"/>
  <outline>
    <contour>
      <point x="507" y="246" type="curve"/>
      <point x="295" y="246" type="line"/>
      <point x="184" y="69" type="line"/>
      <point x="203" y="60"/>
      <point x="225" y="56"/>
      <point x="251" y="56" type="curve" smooth="yes"/>
      <point x="312" y="56"/>
      <point x="365" y="85"/>
      <point x="397" y="144" type="curve"/>
      <point x="464" y="113" type="line"/>
      <point x="413" y="24"/>
      <point x="341" y="-10"/>
      <point x="241" y="-10" type="curve" smooth="yes"/>
      <point x="205" y="-10"/>
      <point x="173" y="-4"/>
      <point x="145" y="7" type="curve"/>
      <point x="9" y="-208" type="line"/>
      <point x="-66" y="-208" type="line"/>
      <point x="91" y="42" type="line"/>
      <point x="53" y="78"/>
      <point x="34" y="130"/>
      <point x="34" y="198" type="curve" smooth="yes"/>
      <point x="31" y="394"/>
      <point x="150" y="542"/>
      <point x="308" y="538" type="curve" smooth="yes"/>
      <point x="341" y="538"/>
      <point x="370" y="534"/>
      <point x="396" y="525" type="curve"/>
      <point x="522" y="725" type="line"/>
      <point x="598" y="725" type="line"/>
      <point x="454" y="496" type="line"/>
      <point x="497" y="462"/>
      <point x="519" y="412"/>
      <point x="519" y="346" type="curve" smooth="yes"/>
      <point x="519" y="311"/>
      <point x="515" y="278"/>
    </contour>
    <contour>
      <point x="137" y="313" type="curve"/>
      <point x="262" y="313" type="line"/>
      <point x="359" y="466" type="line"/>
      <point x="344" y="471"/>
      <point x="327" y="473"/>
      <point x="310" y="473" type="curve" smooth="yes"/>
      <point x="222" y="473"/>
      <point x="161" y="416"/>
    </contour>
    <contour>
      <point x="121" y="190" type="curve" smooth="yes"/>
      <point x="121" y="160"/>
      <point x="126" y="135"/>
      <point x="137" y="114" type="curve"/>
      <point x="220" y="246" type="line"/>
      <point x="125" y="246" type="line"/>
      <point x="122" y="227"/>
      <point x="121" y="209"/>
    </contour>
    <contour>
      <point x="430" y="313" type="line"/>
      <point x="432" y="348" type="line" smooth="yes"/>
      <point x="432" y="381"/>
      <point x="425" y="407"/>
      <point x="411" y="428" type="curve"/>
      <point x="338" y="313" type="line"/>
    </contour>
  </outline>
</glyph>
<glyph name="uni024D" format="1">
  <advance width="333"/>
  <unicode hex="024D"/>
  <outline>
    <contour>
      <point x="367" y="531" type="curve"/>
      <point x="351" y="458" type="line"/>
      <point x="336" y="462"/>
      <point x="322" y="464"/>
      <point x="307" y="464" type="curve" smooth="yes"/>
      <point x="247" y="464"/>
      <point x="193" y="404"/>
      <point x="166" y="309" type="curve"/>
      <point x="254" y="309" type="line"/>
      <point x="240" y="237" type="line"/>
      <point x="151" y="237" type="line"/>
      <point x="104" y="0" type="line"/>
      <point x="17" y="0" type="line"/>
      <point x="63" y="237" type="line"/>
      <point x="3" y="237" type="line"/>
      <point x="17" y="309" type="line"/>
      <point x="77" y="309" type="line"/>
      <point x="99" y="422"/>
      <point x="112" y="495"/>
      <point x="117" y="528" type="curve"/>
      <point x="200" y="528" type="line"/>
      <point x="183" y="420" type="line"/>
      <point x="185" y="420" type="line"/>
      <point x="228" y="507"/>
      <point x="265" y="538"/>
      <point x="320" y="538" type="curve" smooth="yes"/>
      <point x="333" y="538"/>
      <point x="348" y="536"/>
    </contour>
  </outline>
</glyph>
<glyph name="uni024E" format="1">
  <advance width="667"/>
  <unicode hex="024E"/>
  <outline>
    <contour>
      <point x="727" y="688" type="line"/>
      <point x="631" y="576" type="line"/>
      <point x="705" y="576" type="line"/>
      <point x="691" y="504" type="line"/>
      <point x="570" y="504" type="line"/>
      <point x="383" y="285" type="line"/>
      <point x="328" y="0" type="line"/>
      <point x="235" y="0" type="line"/>
      <point x="292" y="285" type="line"/>
      <point x="189" y="504" type="line"/>
      <point x="73" y="504" type="line"/>
      <point x="87" y="576" type="line"/>
      <point x="156" y="576" type="line"/>
      <point x="104" y="688" type="line"/>
      <point x="200" y="688" type="line"/>
      <point x="250" y="576" type="line"/>
      <point x="529" y="576" type="line"/>
      <point x="623" y="688" type="line"/>
    </contour>
    <contour>
      <point x="283" y="504" type="line"/>
      <point x="349" y="359" type="line"/>
      <point x="470" y="504" type="line"/>
    </contour>
  </outline>
</glyph>
<glyph name="uni0250" format="1">
  <advance width="556"/>
  <unicode hex="0250"/>
  <outline>
    <contour>
      <point x="104" y="533" type="curve" smooth="yes"/>
      <point x="164" y="533"/>
      <point x="190" y="509"/>
      <point x="190" y="458" type="curve" smooth="yes"/>
      <point x="188" y="427" type="line"/>
      <point x="191" y="427" type="line"/>
      <point x="244" y="510"/>
      <point x="297" y="538"/>
      <point x="380" y="538" type="curve" smooth="yes"/>
      <point x="425" y="538"/>
      <point x="462" y="524"/>
      <point x="491" y="497" type="curve" smooth="yes"/>
      <point x="520" y="470"/>
      <point x="534" y="435"/>
      <point x="534" y="393" type="curve" smooth="yes"/>
      <point x="534" y="272"/>
      <point x="451" y="209"/>
      <point x="263" y="208" type="curve" smooth="yes"/>
      <point x="149" y="206" type="line"/>
      <point x="143" y="174"/>
      <point x="140" y="153"/>
      <point x="140" y="144" type="curve" smooth="yes"/>
      <point x="140" y="85"/>
      <point x="177" y="57"/>
      <point x="238" y="57" type="curve" smooth="yes"/>
      <point x="315" y="57"/>
      <point x="350" y="85"/>
      <point x="369" y="141" type="curve"/>
      <point x="456" y="127" type="line"/>
      <point x="427" y="31"/>
      <point x="356" y="-10"/>
      <point x="233" y="-10" type="curve" smooth="yes"/>
      <point x="121" y="-10"/>
      <point x="52" y="46"/>
      <point x="52" y="134" type="curve" smooth="yes"/>
      <point x="52" y="155"/>
      <point x="55" y="181"/>
      <point x="62" y="211" type="curve" smooth="yes"/>
      <point x="98" y="396" type="line" smooth="yes"/>
      <point x="101" y="411"/>
      <point x="103" y="425"/>
      <point x="103" y="438" type="curve" smooth="yes"/>
      <point x="103" y="462"/>
      <point x="90" y="474"/>
      <point x="63" y="474" type="curve" smooth="yes"/>
      <point x="54" y="474"/>
      <point x="45" y="473"/>
      <point x="34" y="471" type="curve"/>
      <point x="41" y="525" type="line"/>
      <point x="62" y="530"/>
      <point x="83" y="533"/>
    </contour>
    <contour>
      <point x="174" y="328" type="curve" smooth="yes"/>
      <point x="161" y="267" type="line"/>
      <point x="258" y="269" type="line" smooth="yes"/>
      <point x="335" y="270"/>
      <point x="377" y="283"/>
      <point x="401" y="302" type="curve" smooth="yes"/>
      <point x="425" y="321"/>
      <point x="440" y="348"/>
      <point x="440" y="389" type="curve" smooth="yes"/>
      <point x="440" y="437"/>
      <point x="406" y="471"/>
      <point x="355" y="471" type="curve" smooth="yes"/>
      <point x="262" y="471"/>
      <point x="190" y="403"/>
    </contour>
  </outline>
</glyph>
<glyph name="uni0252" format="1">
  <advance width="556"/>
  <unicode hex="0252"/>
  <outline>
    <contour>
      <point x="271" y="-10" type="curve" smooth="yes"/>
      <point x="190" y="-10"/>
      <point x="140" y="26"/>
      <point x="119" y="87" type="curve"/>
      <point x="117" y="87" type="line"/>
      <point x="103" y="0" type="line"/>
      <point x="16" y="0" type="line"/>
      <point x="97" y="420" type="line" smooth="yes"/>
      <point x="104" y="461"/>
      <point x="110" y="497"/>
      <point x="113" y="528" type="curve"/>
      <point x="195" y="528" type="line" smooth="yes"/>
      <point x="195" y="525"/>
      <point x="194" y="514"/>
      <point x="192" y="495" type="curve" smooth="yes"/>
      <point x="191" y="477"/>
      <point x="189" y="462"/>
      <point x="187" y="450" type="curve"/>
      <point x="189" y="450" type="line"/>
      <point x="237" y="511"/>
      <point x="285" y="538"/>
      <point x="362" y="538" type="curve" smooth="yes"/>
      <point x="463" y="538"/>
      <point x="524" y="473"/>
      <point x="524" y="365" type="curve" smooth="yes"/>
      <point x="524" y="299"/>
      <point x="514" y="235"/>
      <point x="494" y="173" type="curve" smooth="yes"/>
      <point x="454" y="49"/>
      <point x="383" y="-10"/>
    </contour>
    <contour>
      <point x="336" y="470" type="curve" smooth="yes"/>
      <point x="272" y="470"/>
      <point x="227" y="444"/>
      <point x="195" y="391" type="curve" smooth="yes"/>
      <point x="179" y="364"/>
      <point x="166" y="331"/>
      <point x="157" y="291" type="curve" smooth="yes"/>
      <point x="148" y="251"/>
      <point x="144" y="215"/>
      <point x="144" y="184" type="curve" smooth="yes"/>
      <point x="144" y="103"/>
      <point x="188" y="55"/>
      <point x="261" y="55" type="curve" smooth="yes"/>
      <point x="301" y="55"/>
      <point x="332" y="67"/>
      <point x="355" y="90" type="curve" smooth="yes"/>
      <point x="378" y="114"/>
      <point x="397" y="153"/>
      <point x="411" y="206" type="curve" smooth="yes"/>
      <point x="425" y="260"/>
      <point x="432" y="308"/>
      <point x="432" y="350" type="curve" smooth="yes"/>
      <point x="432" y="430"/>
      <point x="403" y="470"/>
    </contour>
  </outline>
</glyph>
<glyph name="uni0254" format="1">
  <advance width="500"/>
  <unicode hex="0254"/>
  <outline>
    <contour>
      <point x="271" y="469" type="curve" smooth="yes"/>
      <point x="204" y="469"/>
      <point x="157" y="431"/>
      <point x="130" y="356" type="curve"/>
      <point x="54" y="380" type="line"/>
      <point x="93" y="485"/>
      <point x="166" y="538"/>
      <point x="273" y="538" type="curve" smooth="yes"/>
      <point x="398" y="538"/>
      <point x="468" y="464"/>
      <point x="468" y="335" type="curve" smooth="yes"/>
      <point x="468" y="270"/>
      <point x="456" y="210"/>
      <point x="432" y="154" type="curve" smooth="yes"/>
      <point x="385" y="42"/>
      <point x="308" y="-10"/>
      <point x="195" y="-10" type="curve" smooth="yes"/>
      <point x="86" y="-10"/>
      <point x="19" y="49"/>
      <point x="12" y="146" type="curve"/>
      <point x="98" y="158" type="line"/>
      <point x="102" y="94"/>
      <point x="139" y="59"/>
      <point x="198" y="59" type="curve" smooth="yes"/>
      <point x="239" y="59"/>
      <point x="273" y="70"/>
      <point x="298" y="92" type="curve" smooth="yes"/>
      <point x="323" y="114"/>
      <point x="343" y="149"/>
      <point x="357" y="197" type="curve" smooth="yes"/>
      <point x="371" y="245"/>
      <point x="378" y="292"/>
      <point x="378" y="338" type="curve" smooth="yes"/>
      <point x="378" y="425"/>
      <point x="342" y="469"/>
    </contour>
  </outline>
</glyph>
<glyph name="uni0255" format="1">
  <advance width="500"/>
  <unicode hex="0255"/>
  <outline>
    <contour>
      <point x="242" y="-10" type="curve" smooth="yes"/>
      <point x="186" y="-10"/>
      <point x="139" y="4"/>
      <point x="101" y="32" type="curve"/>
      <point x="68" y="-8"/>
      <point x="47" y="-34"/>
      <point x="40" y="-45" type="curve"/>
      <point x="-17" y="0" type="line"/>
      <point x="3" y="25"/>
      <point x="29" y="55"/>
      <point x="60" y="88" type="curve"/>
      <point x="42" y="117"/>
      <point x="33" y="157"/>
      <point x="33" y="208" type="curve" smooth="yes"/>
      <point x="33" y="244"/>
      <point x="39" y="284"/>
      <point x="52" y="328" type="curve" smooth="yes"/>
      <point x="65" y="373"/>
      <point x="83" y="411"/>
      <point x="106" y="443" type="curve" smooth="yes"/>
      <point x="153" y="507"/>
      <point x="218" y="538"/>
      <point x="307" y="538" type="curve" smooth="yes"/>
      <point x="414" y="538"/>
      <point x="485" y="474"/>
      <point x="489" y="383" type="curve"/>
      <point x="402" y="371" type="line"/>
      <point x="398" y="432"/>
      <point x="363" y="469"/>
      <point x="303" y="469" type="curve" smooth="yes"/>
      <point x="261" y="469"/>
      <point x="227" y="458"/>
      <point x="202" y="436" type="curve" smooth="yes"/>
      <point x="177" y="414"/>
      <point x="158" y="379"/>
      <point x="144" y="331" type="curve" smooth="yes"/>
      <point x="130" y="283"/>
      <point x="123" y="240"/>
      <point x="123" y="201" type="curve" smooth="yes"/>
      <point x="123" y="185"/>
      <point x="124" y="170"/>
      <point x="127" y="156" type="curve"/>
      <point x="200" y="221"/>
      <point x="258" y="249"/>
      <point x="322" y="249" type="curve" smooth="yes"/>
      <point x="398" y="249"/>
      <point x="444" y="210"/>
      <point x="444" y="146" type="curve" smooth="yes"/>
      <point x="444" y="55"/>
      <point x="372" y="-10"/>
    </contour>
    <contour>
      <point x="245" y="56" type="curve" smooth="yes"/>
      <point x="322" y="56"/>
      <point x="371" y="90"/>
      <point x="371" y="139" type="curve" smooth="yes"/>
      <point x="371" y="168"/>
      <point x="353" y="182"/>
      <point x="316" y="182" type="curve" smooth="yes"/>
      <point x="267" y="182"/>
      <point x="214" y="152"/>
      <point x="155" y="91" type="curve"/>
      <point x="172" y="70"/>
      <point x="208" y="56"/>
    </contour>
  </outline>
</glyph>
<glyph name="uni0256" format="1">
  <advance width="556"/>
  <unicode hex="0256"/>
  <outline>
    <contour>
      <point x="196" y="-10" type="curve" smooth="yes"/>
      <point x="93" y="-10"/>
      <point x="34" y="55"/>
      <point x="34" y="163" type="curve" smooth="yes"/>
      <point x="34" y="229"/>
      <point x="44" y="293"/>
      <point x="64" y="355" type="curve" smooth="yes"/>
      <point x="104" y="479"/>
      <point x="175" y="538"/>
      <point x="287" y="538" type="curve" smooth="yes"/>
      <point x="367" y="538"/>
      <point x="418" y="502"/>
      <point x="438" y="441" type="curve"/>
      <point x="441" y="441" type="line"/>
      <point x="455" y="520" type="line"/>
      <point x="495" y="725" type="line"/>
      <point x="583" y="725" type="line"/>
      <point x="430" y="-61" type="line" smooth="yes"/>
      <point x="428" y="-70"/>
      <point x="427" y="-78"/>
      <point x="427" y="-85" type="curve" smooth="yes"/>
      <point x="427" y="-115"/>
      <point x="443" y="-130"/>
      <point x="474" y="-130" type="curve" smooth="yes"/>
      <point x="492" y="-130"/>
      <point x="509" y="-128"/>
      <point x="526" y="-124" type="curve"/>
      <point x="512" y="-201" type="line"/>
      <point x="489" y="-206"/>
      <point x="467" y="-208"/>
      <point x="446" y="-208" type="curve" smooth="yes"/>
      <point x="379" y="-208"/>
      <point x="339" y="-167"/>
      <point x="339" y="-99" type="curve" smooth="yes"/>
      <point x="339" y="-86"/>
      <point x="340" y="-71"/>
      <point x="343" y="-56" type="curve" smooth="yes"/>
      <point x="370" y="78" type="line"/>
      <point x="369" y="78" type="line"/>
      <point x="320" y="14"/>
      <point x="271" y="-10"/>
    </contour>
    <contour>
      <point x="221" y="58" type="curve" smooth="yes"/>
      <point x="286" y="58"/>
      <point x="330" y="84"/>
      <point x="362" y="137" type="curve" smooth="yes"/>
      <point x="378" y="164"/>
      <point x="391" y="197"/>
      <point x="400" y="236" type="curve" smooth="yes"/>
      <point x="409" y="276"/>
      <point x="414" y="312"/>
      <point x="414" y="344" type="curve" smooth="yes"/>
      <point x="414" y="425"/>
      <point x="371" y="473"/>
      <point x="296" y="473" type="curve" smooth="yes"/>
      <point x="256" y="473"/>
      <point x="224" y="461"/>
      <point x="201" y="436" type="curve" smooth="yes"/>
      <point x="178" y="411"/>
      <point x="159" y="372"/>
      <point x="145" y="318" type="curve" smooth="yes"/>
      <point x="132" y="265"/>
      <point x="125" y="218"/>
      <point x="125" y="178" type="curve" smooth="yes"/>
      <point x="125" y="98"/>
      <point x="154" y="58"/>
    </contour>
  </outline>
</glyph>
<glyph name="uni0263" format="1">
  <advance width="501"/>
  <unicode hex="0263"/>
  <outline>
    <contour>
      <point x="124" y="24" type="curve" smooth="yes"/>
      <point x="165" y="77" type="line"/>
      <point x="54" y="528" type="line"/>
      <point x="144" y="528" type="line"/>
      <point x="229" y="159" type="line"/>
      <point x="454" y="528" type="line"/>
      <point x="552" y="528" type="line"/>
      <point x="266" y="74" type="line"/>
      <point x="285" y="21"/>
      <point x="298" y="-23"/>
      <point x="298" y="-66" type="curve" smooth="yes"/>
      <point x="298" y="-155"/>
      <point x="253" y="-208"/>
      <point x="174" y="-208" type="curve" smooth="yes"/>
      <point x="110" y="-208"/>
      <point x="68" y="-165"/>
      <point x="68" y="-104" type="curve" smooth="yes"/>
      <point x="68" y="-65"/>
      <point x="87" y="-23"/>
    </contour>
    <contour>
      <point x="178" y="-137" type="curve" smooth="yes"/>
      <point x="205" y="-137"/>
      <point x="222" y="-112"/>
      <point x="222" y="-69" type="curve" smooth="yes"/>
      <point x="222" y="-46"/>
      <point x="216" y="-17"/>
      <point x="204" y="18" type="curve"/>
      <point x="184" y="-9"/>
      <point x="171" y="-28"/>
      <point x="165" y="-39" type="curve" smooth="yes"/>
      <point x="153" y="-60"/>
      <point x="145" y="-81"/>
      <point x="145" y="-98" type="curve" smooth="yes"/>
      <point x="145" y="-121"/>
      <point x="158" y="-137"/>
    </contour>
  </outline>
</glyph>
